%TF.GenerationSoftware,KiCad,Pcbnew,10.0.5*%
%TF.CreationDate,2026-09-15T23:29:13+05:30*%
%TF.ProjectId,comp pcb1,636f6d70-2070-4636-9231-2e6b69636164,rev?*%
%TF.SameCoordinates,Original*%
%TF.FileFunction,Soldermask,Top*%
%TF.FilePolarity,Negative*%
%FSLAX46Y46*%
G04 Gerber Fmt 4.6, Leading zero omitted, Abs format (unit mm)*
G04 Created by KiCad (PCBNEW 10.0.5) date 2026-09-15 23:29:13*
%MOMM*%
%LPD*%
G01*
G04 APERTURE LIST*
G04 Aperture macros list*
%AMRoundRect*
0 Rectangle with rounded corners*
0 $1 Rounding radius*
0 $2 $3 $4 $5 $6 $7 $8 $9 X,Y pos of 4 corners*
0 Add a 4 corners polygon primitive as box body*
4,1,4,$2,$3,$4,$5,$6,$7,$8,$9,$2,$3,0*
0 Add four circle primitives for the rounded corners*
1,1,$1+$1,$2,$3*
1,1,$1+$1,$4,$5*
1,1,$1+$1,$6,$7*
1,1,$1+$1,$8,$9*
0 Add four rect primitives between the rounded corners*
20,1,$1+$1,$2,$3,$4,$5,0*
20,1,$1+$1,$4,$5,$6,$7,0*
20,1,$1+$1,$6,$7,$8,$9,0*
20,1,$1+$1,$8,$9,$2,$3,0*%
G04 Aperture macros list end*
%ADD10RoundRect,0.250000X-0.475000X0.250000X-0.475000X-0.250000X0.475000X-0.250000X0.475000X0.250000X0*%
%ADD11RoundRect,0.250000X-0.250000X-0.475000X0.250000X-0.475000X0.250000X0.475000X-0.250000X0.475000X0*%
%ADD12RoundRect,0.250000X0.250000X0.475000X-0.250000X0.475000X-0.250000X-0.475000X0.250000X-0.475000X0*%
%ADD13RoundRect,0.075000X-0.700000X-0.075000X0.700000X-0.075000X0.700000X0.075000X-0.700000X0.075000X0*%
%ADD14RoundRect,0.075000X-0.075000X-0.700000X0.075000X-0.700000X0.075000X0.700000X-0.075000X0.700000X0*%
%ADD15RoundRect,0.250000X0.475000X-0.250000X0.475000X0.250000X-0.475000X0.250000X-0.475000X-0.250000X0*%
%ADD16RoundRect,0.375000X-0.375000X0.625000X-0.375000X-0.625000X0.375000X-0.625000X0.375000X0.625000X0*%
%ADD17RoundRect,0.500000X-1.400000X0.500000X-1.400000X-0.500000X1.400000X-0.500000X1.400000X0.500000X0*%
%ADD18RoundRect,0.250000X0.262500X0.450000X-0.262500X0.450000X-0.262500X-0.450000X0.262500X-0.450000X0*%
%ADD19RoundRect,0.250000X-0.625000X0.375000X-0.625000X-0.375000X0.625000X-0.375000X0.625000X0.375000X0*%
%ADD20R,1.700000X1.700000*%
%ADD21C,1.700000*%
%ADD22RoundRect,0.250000X0.450000X-0.262500X0.450000X0.262500X-0.450000X0.262500X-0.450000X-0.262500X0*%
%ADD23RoundRect,0.243750X0.243750X0.456250X-0.243750X0.456250X-0.243750X-0.456250X0.243750X-0.456250X0*%
%ADD24RoundRect,0.250000X-0.262500X-0.450000X0.262500X-0.450000X0.262500X0.450000X-0.262500X0.450000X0*%
%ADD25RoundRect,0.250000X0.525000X0.250000X-0.525000X0.250000X-0.525000X-0.250000X0.525000X-0.250000X0*%
%ADD26RoundRect,0.250000X-0.525000X-0.250000X0.525000X-0.250000X0.525000X0.250000X-0.525000X0.250000X0*%
%ADD27RoundRect,0.076200X0.550000X-0.225000X0.550000X0.225000X-0.550000X0.225000X-0.550000X-0.225000X0*%
%ADD28O,2.552400X1.352400*%
%ADD29RoundRect,0.250000X0.750000X-2.000000X0.750000X2.000000X-0.750000X2.000000X-0.750000X-2.000000X0*%
G04 APERTURE END LIST*
D10*
%TO.C,C5*%
X115500000Y-103000000D03*
X115500000Y-104900000D03*
%TD*%
D11*
%TO.C,C1*%
X129800000Y-102000000D03*
X131700000Y-102000000D03*
%TD*%
%TO.C,C10*%
X112650000Y-85600000D03*
X114550000Y-85600000D03*
%TD*%
D12*
%TO.C,C2*%
X137300000Y-98800000D03*
X135400000Y-98800000D03*
%TD*%
D13*
%TO.C,U1*%
X112125000Y-90625000D03*
X112125000Y-91125000D03*
X112125000Y-91625000D03*
X112125000Y-92125000D03*
X112125000Y-92625000D03*
X112125000Y-93125000D03*
X112125000Y-93625000D03*
X112125000Y-94125000D03*
X112125000Y-94625000D03*
X112125000Y-95125000D03*
X112125000Y-95625000D03*
X112125000Y-96125000D03*
X112125000Y-96625000D03*
X112125000Y-97125000D03*
X112125000Y-97625000D03*
X112125000Y-98125000D03*
D14*
X114050000Y-100050000D03*
X114550000Y-100050000D03*
X115050000Y-100050000D03*
X115550000Y-100050000D03*
X116050000Y-100050000D03*
X116550000Y-100050000D03*
X117050000Y-100050000D03*
X117550000Y-100050000D03*
X118050000Y-100050000D03*
X118550000Y-100050000D03*
X119050000Y-100050000D03*
X119550000Y-100050000D03*
X120050000Y-100050000D03*
X120550000Y-100050000D03*
X121050000Y-100050000D03*
X121550000Y-100050000D03*
D13*
X123475000Y-98125000D03*
X123475000Y-97625000D03*
X123475000Y-97125000D03*
X123475000Y-96625000D03*
X123475000Y-96125000D03*
X123475000Y-95625000D03*
X123475000Y-95125000D03*
X123475000Y-94625000D03*
X123475000Y-94125000D03*
X123475000Y-93625000D03*
X123475000Y-93125000D03*
X123475000Y-92625000D03*
X123475000Y-92125000D03*
X123475000Y-91625000D03*
X123475000Y-91125000D03*
X123475000Y-90625000D03*
D14*
X121550000Y-88700000D03*
X121050000Y-88700000D03*
X120550000Y-88700000D03*
X120050000Y-88700000D03*
X119550000Y-88700000D03*
X119050000Y-88700000D03*
X118550000Y-88700000D03*
X118050000Y-88700000D03*
X117550000Y-88700000D03*
X117050000Y-88700000D03*
X116550000Y-88700000D03*
X116050000Y-88700000D03*
X115550000Y-88700000D03*
X115050000Y-88700000D03*
X114550000Y-88700000D03*
X114050000Y-88700000D03*
%TD*%
D12*
%TO.C,C11*%
X121100000Y-102400000D03*
X119200000Y-102400000D03*
%TD*%
D15*
%TO.C,C7*%
X124200000Y-103150000D03*
X124200000Y-101250000D03*
%TD*%
D16*
%TO.C,U2*%
X132600000Y-106250000D03*
X130300000Y-106250000D03*
X128000000Y-106250000D03*
D17*
X130300000Y-112550000D03*
%TD*%
D18*
%TO.C,R1*%
X131800000Y-82900000D03*
X129975000Y-82900000D03*
%TD*%
D12*
%TO.C,C13*%
X108950000Y-99000000D03*
X107050000Y-99000000D03*
%TD*%
D19*
%TO.C,F1*%
X129300000Y-95900000D03*
X129300000Y-98700000D03*
%TD*%
D20*
%TO.C,gpio*%
X106940000Y-117600000D03*
D21*
X109480000Y-117600000D03*
X112020000Y-117600000D03*
X114560000Y-117600000D03*
X117100000Y-117600000D03*
X119640000Y-117600000D03*
X122180000Y-117600000D03*
X124720000Y-117600000D03*
X127260000Y-117600000D03*
X129800000Y-117600000D03*
%TD*%
D12*
%TO.C,C14*%
X110800000Y-87100000D03*
X108900000Y-87100000D03*
%TD*%
D11*
%TO.C,C3*%
X107500000Y-92500000D03*
X109400000Y-92500000D03*
%TD*%
D10*
%TO.C,C4*%
X108800000Y-94500000D03*
X108800000Y-96400000D03*
%TD*%
D22*
%TO.C,R4*%
X102400000Y-116825000D03*
X102400000Y-115000000D03*
%TD*%
D23*
%TO.C,D2*%
X105237500Y-108000000D03*
X103362500Y-108000000D03*
%TD*%
D20*
%TO.C,SWD*%
X136700000Y-103760000D03*
D21*
X136700000Y-106300000D03*
X136700000Y-108840000D03*
X136700000Y-111380000D03*
X136700000Y-113920000D03*
%TD*%
D22*
%TO.C,R7*%
X100200000Y-83925000D03*
X100200000Y-82100000D03*
%TD*%
D24*
%TO.C,R5*%
X109087500Y-82400000D03*
X110912500Y-82400000D03*
%TD*%
D11*
%TO.C,C8*%
X125900000Y-89800000D03*
X127800000Y-89800000D03*
%TD*%
D25*
%TO.C,SW2*%
X123500000Y-80200000D03*
X118250000Y-80200000D03*
X123500000Y-77000000D03*
X118250000Y-77000000D03*
%TD*%
D22*
%TO.C,R2*%
X113100000Y-79612500D03*
X113100000Y-77787500D03*
%TD*%
D11*
%TO.C,C9*%
X124800000Y-87400000D03*
X126700000Y-87400000D03*
%TD*%
D26*
%TO.C,SW1*%
X129575000Y-77000000D03*
X134825000Y-77000000D03*
X129575000Y-80200000D03*
X134825000Y-80200000D03*
%TD*%
D27*
%TO.C,USB*%
X134652500Y-92200000D03*
X134652500Y-91550000D03*
X134652500Y-90900000D03*
X134652500Y-90250000D03*
X134652500Y-89600000D03*
D28*
X135172500Y-95850000D03*
X139172500Y-95850000D03*
X139172500Y-85950000D03*
X135172500Y-85950000D03*
%TD*%
D24*
%TO.C,R3*%
X103475000Y-103800000D03*
X105300000Y-103800000D03*
%TD*%
D23*
%TO.C,D1*%
X105200000Y-112000000D03*
X103325000Y-112000000D03*
%TD*%
D18*
%TO.C,R6*%
X105600000Y-82400000D03*
X103775000Y-82400000D03*
%TD*%
D20*
%TO.C,I2C*%
X100380000Y-77900000D03*
D21*
X102920000Y-77900000D03*
X105460000Y-77900000D03*
X108000000Y-77900000D03*
%TD*%
D10*
%TO.C,C6*%
X112500000Y-103000000D03*
X112500000Y-104900000D03*
%TD*%
D29*
%TO.C,Y1 8MHz*%
X103100000Y-97150000D03*
X103100000Y-88650000D03*
%TD*%
D20*
%TO.C,SPI*%
X110440000Y-111300000D03*
D21*
X112980000Y-111300000D03*
X115520000Y-111300000D03*
X118060000Y-111300000D03*
X120600000Y-111300000D03*
X123140000Y-111300000D03*
%TD*%
D11*
%TO.C,C12*%
X121100000Y-85600000D03*
X123000000Y-85600000D03*
%TD*%
D20*
%TO.C,UART*%
X99600000Y-111120000D03*
D21*
X99600000Y-108580000D03*
X99600000Y-106040000D03*
X99600000Y-103500000D03*
%TD*%
M02*
