%TF.GenerationSoftware,KiCad,Pcbnew,10.0.5*%
%TF.CreationDate,2026-09-15T23:29:13+05:30*%
%TF.ProjectId,comp pcb1,636f6d70-2070-4636-9231-2e6b69636164,rev?*%
%TF.SameCoordinates,Original*%
%TF.FileFunction,Legend,Top*%
%TF.FilePolarity,Positive*%
%FSLAX46Y46*%
G04 Gerber Fmt 4.6, Leading zero omitted, Abs format (unit mm)*
G04 Created by KiCad (PCBNEW 10.0.5) date 2026-09-15 23:29:13*
%MOMM*%
%LPD*%
G01*
G04 APERTURE LIST*
%ADD10C,0.100000*%
%ADD11C,0.125000*%
%ADD12C,0.150000*%
%ADD13C,0.120000*%
%ADD14C,0.127000*%
%ADD15C,0.200000*%
G04 APERTURE END LIST*
D10*
X116484836Y-115333609D02*
X116484836Y-114833609D01*
X116484836Y-114833609D02*
X116675312Y-114833609D01*
X116675312Y-114833609D02*
X116722931Y-114857419D01*
X116722931Y-114857419D02*
X116746741Y-114881228D01*
X116746741Y-114881228D02*
X116770550Y-114928847D01*
X116770550Y-114928847D02*
X116770550Y-115000276D01*
X116770550Y-115000276D02*
X116746741Y-115047895D01*
X116746741Y-115047895D02*
X116722931Y-115071704D01*
X116722931Y-115071704D02*
X116675312Y-115095514D01*
X116675312Y-115095514D02*
X116484836Y-115095514D01*
X117270550Y-115285990D02*
X117246741Y-115309800D01*
X117246741Y-115309800D02*
X117175312Y-115333609D01*
X117175312Y-115333609D02*
X117127693Y-115333609D01*
X117127693Y-115333609D02*
X117056265Y-115309800D01*
X117056265Y-115309800D02*
X117008646Y-115262180D01*
X117008646Y-115262180D02*
X116984836Y-115214561D01*
X116984836Y-115214561D02*
X116961027Y-115119323D01*
X116961027Y-115119323D02*
X116961027Y-115047895D01*
X116961027Y-115047895D02*
X116984836Y-114952657D01*
X116984836Y-114952657D02*
X117008646Y-114905038D01*
X117008646Y-114905038D02*
X117056265Y-114857419D01*
X117056265Y-114857419D02*
X117127693Y-114833609D01*
X117127693Y-114833609D02*
X117175312Y-114833609D01*
X117175312Y-114833609D02*
X117246741Y-114857419D01*
X117246741Y-114857419D02*
X117270550Y-114881228D01*
X117722931Y-114833609D02*
X117484836Y-114833609D01*
X117484836Y-114833609D02*
X117461027Y-115071704D01*
X117461027Y-115071704D02*
X117484836Y-115047895D01*
X117484836Y-115047895D02*
X117532455Y-115024085D01*
X117532455Y-115024085D02*
X117651503Y-115024085D01*
X117651503Y-115024085D02*
X117699122Y-115047895D01*
X117699122Y-115047895D02*
X117722931Y-115071704D01*
X117722931Y-115071704D02*
X117746741Y-115119323D01*
X117746741Y-115119323D02*
X117746741Y-115238371D01*
X117746741Y-115238371D02*
X117722931Y-115285990D01*
X117722931Y-115285990D02*
X117699122Y-115309800D01*
X117699122Y-115309800D02*
X117651503Y-115333609D01*
X117651503Y-115333609D02*
X117532455Y-115333609D01*
X117532455Y-115333609D02*
X117484836Y-115309800D01*
X117484836Y-115309800D02*
X117461027Y-115285990D01*
X138784836Y-111933609D02*
X138784836Y-111433609D01*
X138784836Y-111433609D02*
X139070550Y-111933609D01*
X139070550Y-111933609D02*
X139070550Y-111433609D01*
X139594360Y-111933609D02*
X139427694Y-111695514D01*
X139308646Y-111933609D02*
X139308646Y-111433609D01*
X139308646Y-111433609D02*
X139499122Y-111433609D01*
X139499122Y-111433609D02*
X139546741Y-111457419D01*
X139546741Y-111457419D02*
X139570551Y-111481228D01*
X139570551Y-111481228D02*
X139594360Y-111528847D01*
X139594360Y-111528847D02*
X139594360Y-111600276D01*
X139594360Y-111600276D02*
X139570551Y-111647895D01*
X139570551Y-111647895D02*
X139546741Y-111671704D01*
X139546741Y-111671704D02*
X139499122Y-111695514D01*
X139499122Y-111695514D02*
X139308646Y-111695514D01*
X139784837Y-111909800D02*
X139856265Y-111933609D01*
X139856265Y-111933609D02*
X139975313Y-111933609D01*
X139975313Y-111933609D02*
X140022932Y-111909800D01*
X140022932Y-111909800D02*
X140046741Y-111885990D01*
X140046741Y-111885990D02*
X140070551Y-111838371D01*
X140070551Y-111838371D02*
X140070551Y-111790752D01*
X140070551Y-111790752D02*
X140046741Y-111743133D01*
X140046741Y-111743133D02*
X140022932Y-111719323D01*
X140022932Y-111719323D02*
X139975313Y-111695514D01*
X139975313Y-111695514D02*
X139880075Y-111671704D01*
X139880075Y-111671704D02*
X139832456Y-111647895D01*
X139832456Y-111647895D02*
X139808646Y-111624085D01*
X139808646Y-111624085D02*
X139784837Y-111576466D01*
X139784837Y-111576466D02*
X139784837Y-111528847D01*
X139784837Y-111528847D02*
X139808646Y-111481228D01*
X139808646Y-111481228D02*
X139832456Y-111457419D01*
X139832456Y-111457419D02*
X139880075Y-111433609D01*
X139880075Y-111433609D02*
X139999122Y-111433609D01*
X139999122Y-111433609D02*
X140070551Y-111457419D01*
X140213408Y-111433609D02*
X140499122Y-111433609D01*
X140356265Y-111933609D02*
X140356265Y-111433609D01*
X139246741Y-113857419D02*
X139199122Y-113833609D01*
X139199122Y-113833609D02*
X139127693Y-113833609D01*
X139127693Y-113833609D02*
X139056265Y-113857419D01*
X139056265Y-113857419D02*
X139008646Y-113905038D01*
X139008646Y-113905038D02*
X138984836Y-113952657D01*
X138984836Y-113952657D02*
X138961027Y-114047895D01*
X138961027Y-114047895D02*
X138961027Y-114119323D01*
X138961027Y-114119323D02*
X138984836Y-114214561D01*
X138984836Y-114214561D02*
X139008646Y-114262180D01*
X139008646Y-114262180D02*
X139056265Y-114309800D01*
X139056265Y-114309800D02*
X139127693Y-114333609D01*
X139127693Y-114333609D02*
X139175312Y-114333609D01*
X139175312Y-114333609D02*
X139246741Y-114309800D01*
X139246741Y-114309800D02*
X139270550Y-114285990D01*
X139270550Y-114285990D02*
X139270550Y-114119323D01*
X139270550Y-114119323D02*
X139175312Y-114119323D01*
X139484836Y-114333609D02*
X139484836Y-113833609D01*
X139484836Y-113833609D02*
X139770550Y-114333609D01*
X139770550Y-114333609D02*
X139770550Y-113833609D01*
X140008646Y-114333609D02*
X140008646Y-113833609D01*
X140008646Y-113833609D02*
X140127694Y-113833609D01*
X140127694Y-113833609D02*
X140199122Y-113857419D01*
X140199122Y-113857419D02*
X140246741Y-113905038D01*
X140246741Y-113905038D02*
X140270551Y-113952657D01*
X140270551Y-113952657D02*
X140294360Y-114047895D01*
X140294360Y-114047895D02*
X140294360Y-114119323D01*
X140294360Y-114119323D02*
X140270551Y-114214561D01*
X140270551Y-114214561D02*
X140246741Y-114262180D01*
X140246741Y-114262180D02*
X140199122Y-114309800D01*
X140199122Y-114309800D02*
X140127694Y-114333609D01*
X140127694Y-114333609D02*
X140008646Y-114333609D01*
X109733609Y-115315163D02*
X109233609Y-115315163D01*
X109233609Y-115315163D02*
X109233609Y-115124687D01*
X109233609Y-115124687D02*
X109257419Y-115077068D01*
X109257419Y-115077068D02*
X109281228Y-115053258D01*
X109281228Y-115053258D02*
X109328847Y-115029449D01*
X109328847Y-115029449D02*
X109400276Y-115029449D01*
X109400276Y-115029449D02*
X109447895Y-115053258D01*
X109447895Y-115053258D02*
X109471704Y-115077068D01*
X109471704Y-115077068D02*
X109495514Y-115124687D01*
X109495514Y-115124687D02*
X109495514Y-115315163D01*
X109685990Y-114529449D02*
X109709800Y-114553258D01*
X109709800Y-114553258D02*
X109733609Y-114624687D01*
X109733609Y-114624687D02*
X109733609Y-114672306D01*
X109733609Y-114672306D02*
X109709800Y-114743734D01*
X109709800Y-114743734D02*
X109662180Y-114791353D01*
X109662180Y-114791353D02*
X109614561Y-114815163D01*
X109614561Y-114815163D02*
X109519323Y-114838972D01*
X109519323Y-114838972D02*
X109447895Y-114838972D01*
X109447895Y-114838972D02*
X109352657Y-114815163D01*
X109352657Y-114815163D02*
X109305038Y-114791353D01*
X109305038Y-114791353D02*
X109257419Y-114743734D01*
X109257419Y-114743734D02*
X109233609Y-114672306D01*
X109233609Y-114672306D02*
X109233609Y-114624687D01*
X109233609Y-114624687D02*
X109257419Y-114553258D01*
X109257419Y-114553258D02*
X109281228Y-114529449D01*
X109281228Y-114338972D02*
X109257419Y-114315163D01*
X109257419Y-114315163D02*
X109233609Y-114267544D01*
X109233609Y-114267544D02*
X109233609Y-114148496D01*
X109233609Y-114148496D02*
X109257419Y-114100877D01*
X109257419Y-114100877D02*
X109281228Y-114077068D01*
X109281228Y-114077068D02*
X109328847Y-114053258D01*
X109328847Y-114053258D02*
X109376466Y-114053258D01*
X109376466Y-114053258D02*
X109447895Y-114077068D01*
X109447895Y-114077068D02*
X109733609Y-114362782D01*
X109733609Y-114362782D02*
X109733609Y-114053258D01*
X112133609Y-115315163D02*
X111633609Y-115315163D01*
X111633609Y-115315163D02*
X111633609Y-115124687D01*
X111633609Y-115124687D02*
X111657419Y-115077068D01*
X111657419Y-115077068D02*
X111681228Y-115053258D01*
X111681228Y-115053258D02*
X111728847Y-115029449D01*
X111728847Y-115029449D02*
X111800276Y-115029449D01*
X111800276Y-115029449D02*
X111847895Y-115053258D01*
X111847895Y-115053258D02*
X111871704Y-115077068D01*
X111871704Y-115077068D02*
X111895514Y-115124687D01*
X111895514Y-115124687D02*
X111895514Y-115315163D01*
X112085990Y-114529449D02*
X112109800Y-114553258D01*
X112109800Y-114553258D02*
X112133609Y-114624687D01*
X112133609Y-114624687D02*
X112133609Y-114672306D01*
X112133609Y-114672306D02*
X112109800Y-114743734D01*
X112109800Y-114743734D02*
X112062180Y-114791353D01*
X112062180Y-114791353D02*
X112014561Y-114815163D01*
X112014561Y-114815163D02*
X111919323Y-114838972D01*
X111919323Y-114838972D02*
X111847895Y-114838972D01*
X111847895Y-114838972D02*
X111752657Y-114815163D01*
X111752657Y-114815163D02*
X111705038Y-114791353D01*
X111705038Y-114791353D02*
X111657419Y-114743734D01*
X111657419Y-114743734D02*
X111633609Y-114672306D01*
X111633609Y-114672306D02*
X111633609Y-114624687D01*
X111633609Y-114624687D02*
X111657419Y-114553258D01*
X111657419Y-114553258D02*
X111681228Y-114529449D01*
X111633609Y-114362782D02*
X111633609Y-114053258D01*
X111633609Y-114053258D02*
X111824085Y-114219925D01*
X111824085Y-114219925D02*
X111824085Y-114148496D01*
X111824085Y-114148496D02*
X111847895Y-114100877D01*
X111847895Y-114100877D02*
X111871704Y-114077068D01*
X111871704Y-114077068D02*
X111919323Y-114053258D01*
X111919323Y-114053258D02*
X112038371Y-114053258D01*
X112038371Y-114053258D02*
X112085990Y-114077068D01*
X112085990Y-114077068D02*
X112109800Y-114100877D01*
X112109800Y-114100877D02*
X112133609Y-114148496D01*
X112133609Y-114148496D02*
X112133609Y-114291353D01*
X112133609Y-114291353D02*
X112109800Y-114338972D01*
X112109800Y-114338972D02*
X112085990Y-114362782D01*
X114633609Y-115315163D02*
X114133609Y-115315163D01*
X114133609Y-115315163D02*
X114133609Y-115124687D01*
X114133609Y-115124687D02*
X114157419Y-115077068D01*
X114157419Y-115077068D02*
X114181228Y-115053258D01*
X114181228Y-115053258D02*
X114228847Y-115029449D01*
X114228847Y-115029449D02*
X114300276Y-115029449D01*
X114300276Y-115029449D02*
X114347895Y-115053258D01*
X114347895Y-115053258D02*
X114371704Y-115077068D01*
X114371704Y-115077068D02*
X114395514Y-115124687D01*
X114395514Y-115124687D02*
X114395514Y-115315163D01*
X114585990Y-114529449D02*
X114609800Y-114553258D01*
X114609800Y-114553258D02*
X114633609Y-114624687D01*
X114633609Y-114624687D02*
X114633609Y-114672306D01*
X114633609Y-114672306D02*
X114609800Y-114743734D01*
X114609800Y-114743734D02*
X114562180Y-114791353D01*
X114562180Y-114791353D02*
X114514561Y-114815163D01*
X114514561Y-114815163D02*
X114419323Y-114838972D01*
X114419323Y-114838972D02*
X114347895Y-114838972D01*
X114347895Y-114838972D02*
X114252657Y-114815163D01*
X114252657Y-114815163D02*
X114205038Y-114791353D01*
X114205038Y-114791353D02*
X114157419Y-114743734D01*
X114157419Y-114743734D02*
X114133609Y-114672306D01*
X114133609Y-114672306D02*
X114133609Y-114624687D01*
X114133609Y-114624687D02*
X114157419Y-114553258D01*
X114157419Y-114553258D02*
X114181228Y-114529449D01*
X114300276Y-114100877D02*
X114633609Y-114100877D01*
X114109800Y-114219925D02*
X114466942Y-114338972D01*
X114466942Y-114338972D02*
X114466942Y-114029449D01*
X119733609Y-115315163D02*
X119233609Y-115315163D01*
X119233609Y-115315163D02*
X119233609Y-115124687D01*
X119233609Y-115124687D02*
X119257419Y-115077068D01*
X119257419Y-115077068D02*
X119281228Y-115053258D01*
X119281228Y-115053258D02*
X119328847Y-115029449D01*
X119328847Y-115029449D02*
X119400276Y-115029449D01*
X119400276Y-115029449D02*
X119447895Y-115053258D01*
X119447895Y-115053258D02*
X119471704Y-115077068D01*
X119471704Y-115077068D02*
X119495514Y-115124687D01*
X119495514Y-115124687D02*
X119495514Y-115315163D01*
X119685990Y-114529449D02*
X119709800Y-114553258D01*
X119709800Y-114553258D02*
X119733609Y-114624687D01*
X119733609Y-114624687D02*
X119733609Y-114672306D01*
X119733609Y-114672306D02*
X119709800Y-114743734D01*
X119709800Y-114743734D02*
X119662180Y-114791353D01*
X119662180Y-114791353D02*
X119614561Y-114815163D01*
X119614561Y-114815163D02*
X119519323Y-114838972D01*
X119519323Y-114838972D02*
X119447895Y-114838972D01*
X119447895Y-114838972D02*
X119352657Y-114815163D01*
X119352657Y-114815163D02*
X119305038Y-114791353D01*
X119305038Y-114791353D02*
X119257419Y-114743734D01*
X119257419Y-114743734D02*
X119233609Y-114672306D01*
X119233609Y-114672306D02*
X119233609Y-114624687D01*
X119233609Y-114624687D02*
X119257419Y-114553258D01*
X119257419Y-114553258D02*
X119281228Y-114529449D01*
X119233609Y-114100877D02*
X119233609Y-114196115D01*
X119233609Y-114196115D02*
X119257419Y-114243734D01*
X119257419Y-114243734D02*
X119281228Y-114267544D01*
X119281228Y-114267544D02*
X119352657Y-114315163D01*
X119352657Y-114315163D02*
X119447895Y-114338972D01*
X119447895Y-114338972D02*
X119638371Y-114338972D01*
X119638371Y-114338972D02*
X119685990Y-114315163D01*
X119685990Y-114315163D02*
X119709800Y-114291353D01*
X119709800Y-114291353D02*
X119733609Y-114243734D01*
X119733609Y-114243734D02*
X119733609Y-114148496D01*
X119733609Y-114148496D02*
X119709800Y-114100877D01*
X119709800Y-114100877D02*
X119685990Y-114077068D01*
X119685990Y-114077068D02*
X119638371Y-114053258D01*
X119638371Y-114053258D02*
X119519323Y-114053258D01*
X119519323Y-114053258D02*
X119471704Y-114077068D01*
X119471704Y-114077068D02*
X119447895Y-114100877D01*
X119447895Y-114100877D02*
X119424085Y-114148496D01*
X119424085Y-114148496D02*
X119424085Y-114243734D01*
X119424085Y-114243734D02*
X119447895Y-114291353D01*
X119447895Y-114291353D02*
X119471704Y-114315163D01*
X119471704Y-114315163D02*
X119519323Y-114338972D01*
X122233609Y-115315163D02*
X121733609Y-115315163D01*
X121733609Y-115315163D02*
X121733609Y-115124687D01*
X121733609Y-115124687D02*
X121757419Y-115077068D01*
X121757419Y-115077068D02*
X121781228Y-115053258D01*
X121781228Y-115053258D02*
X121828847Y-115029449D01*
X121828847Y-115029449D02*
X121900276Y-115029449D01*
X121900276Y-115029449D02*
X121947895Y-115053258D01*
X121947895Y-115053258D02*
X121971704Y-115077068D01*
X121971704Y-115077068D02*
X121995514Y-115124687D01*
X121995514Y-115124687D02*
X121995514Y-115315163D01*
X122185990Y-114529449D02*
X122209800Y-114553258D01*
X122209800Y-114553258D02*
X122233609Y-114624687D01*
X122233609Y-114624687D02*
X122233609Y-114672306D01*
X122233609Y-114672306D02*
X122209800Y-114743734D01*
X122209800Y-114743734D02*
X122162180Y-114791353D01*
X122162180Y-114791353D02*
X122114561Y-114815163D01*
X122114561Y-114815163D02*
X122019323Y-114838972D01*
X122019323Y-114838972D02*
X121947895Y-114838972D01*
X121947895Y-114838972D02*
X121852657Y-114815163D01*
X121852657Y-114815163D02*
X121805038Y-114791353D01*
X121805038Y-114791353D02*
X121757419Y-114743734D01*
X121757419Y-114743734D02*
X121733609Y-114672306D01*
X121733609Y-114672306D02*
X121733609Y-114624687D01*
X121733609Y-114624687D02*
X121757419Y-114553258D01*
X121757419Y-114553258D02*
X121781228Y-114529449D01*
X121733609Y-114362782D02*
X121733609Y-114029449D01*
X121733609Y-114029449D02*
X122233609Y-114243734D01*
X124833609Y-115315163D02*
X124333609Y-115315163D01*
X124333609Y-115315163D02*
X124333609Y-115124687D01*
X124333609Y-115124687D02*
X124357419Y-115077068D01*
X124357419Y-115077068D02*
X124381228Y-115053258D01*
X124381228Y-115053258D02*
X124428847Y-115029449D01*
X124428847Y-115029449D02*
X124500276Y-115029449D01*
X124500276Y-115029449D02*
X124547895Y-115053258D01*
X124547895Y-115053258D02*
X124571704Y-115077068D01*
X124571704Y-115077068D02*
X124595514Y-115124687D01*
X124595514Y-115124687D02*
X124595514Y-115315163D01*
X124785990Y-114529449D02*
X124809800Y-114553258D01*
X124809800Y-114553258D02*
X124833609Y-114624687D01*
X124833609Y-114624687D02*
X124833609Y-114672306D01*
X124833609Y-114672306D02*
X124809800Y-114743734D01*
X124809800Y-114743734D02*
X124762180Y-114791353D01*
X124762180Y-114791353D02*
X124714561Y-114815163D01*
X124714561Y-114815163D02*
X124619323Y-114838972D01*
X124619323Y-114838972D02*
X124547895Y-114838972D01*
X124547895Y-114838972D02*
X124452657Y-114815163D01*
X124452657Y-114815163D02*
X124405038Y-114791353D01*
X124405038Y-114791353D02*
X124357419Y-114743734D01*
X124357419Y-114743734D02*
X124333609Y-114672306D01*
X124333609Y-114672306D02*
X124333609Y-114624687D01*
X124333609Y-114624687D02*
X124357419Y-114553258D01*
X124357419Y-114553258D02*
X124381228Y-114529449D01*
X124547895Y-114243734D02*
X124524085Y-114291353D01*
X124524085Y-114291353D02*
X124500276Y-114315163D01*
X124500276Y-114315163D02*
X124452657Y-114338972D01*
X124452657Y-114338972D02*
X124428847Y-114338972D01*
X124428847Y-114338972D02*
X124381228Y-114315163D01*
X124381228Y-114315163D02*
X124357419Y-114291353D01*
X124357419Y-114291353D02*
X124333609Y-114243734D01*
X124333609Y-114243734D02*
X124333609Y-114148496D01*
X124333609Y-114148496D02*
X124357419Y-114100877D01*
X124357419Y-114100877D02*
X124381228Y-114077068D01*
X124381228Y-114077068D02*
X124428847Y-114053258D01*
X124428847Y-114053258D02*
X124452657Y-114053258D01*
X124452657Y-114053258D02*
X124500276Y-114077068D01*
X124500276Y-114077068D02*
X124524085Y-114100877D01*
X124524085Y-114100877D02*
X124547895Y-114148496D01*
X124547895Y-114148496D02*
X124547895Y-114243734D01*
X124547895Y-114243734D02*
X124571704Y-114291353D01*
X124571704Y-114291353D02*
X124595514Y-114315163D01*
X124595514Y-114315163D02*
X124643133Y-114338972D01*
X124643133Y-114338972D02*
X124738371Y-114338972D01*
X124738371Y-114338972D02*
X124785990Y-114315163D01*
X124785990Y-114315163D02*
X124809800Y-114291353D01*
X124809800Y-114291353D02*
X124833609Y-114243734D01*
X124833609Y-114243734D02*
X124833609Y-114148496D01*
X124833609Y-114148496D02*
X124809800Y-114100877D01*
X124809800Y-114100877D02*
X124785990Y-114077068D01*
X124785990Y-114077068D02*
X124738371Y-114053258D01*
X124738371Y-114053258D02*
X124643133Y-114053258D01*
X124643133Y-114053258D02*
X124595514Y-114077068D01*
X124595514Y-114077068D02*
X124571704Y-114100877D01*
X124571704Y-114100877D02*
X124547895Y-114148496D01*
X127033609Y-115315163D02*
X126533609Y-115315163D01*
X126533609Y-115315163D02*
X126533609Y-115124687D01*
X126533609Y-115124687D02*
X126557419Y-115077068D01*
X126557419Y-115077068D02*
X126581228Y-115053258D01*
X126581228Y-115053258D02*
X126628847Y-115029449D01*
X126628847Y-115029449D02*
X126700276Y-115029449D01*
X126700276Y-115029449D02*
X126747895Y-115053258D01*
X126747895Y-115053258D02*
X126771704Y-115077068D01*
X126771704Y-115077068D02*
X126795514Y-115124687D01*
X126795514Y-115124687D02*
X126795514Y-115315163D01*
X126985990Y-114529449D02*
X127009800Y-114553258D01*
X127009800Y-114553258D02*
X127033609Y-114624687D01*
X127033609Y-114624687D02*
X127033609Y-114672306D01*
X127033609Y-114672306D02*
X127009800Y-114743734D01*
X127009800Y-114743734D02*
X126962180Y-114791353D01*
X126962180Y-114791353D02*
X126914561Y-114815163D01*
X126914561Y-114815163D02*
X126819323Y-114838972D01*
X126819323Y-114838972D02*
X126747895Y-114838972D01*
X126747895Y-114838972D02*
X126652657Y-114815163D01*
X126652657Y-114815163D02*
X126605038Y-114791353D01*
X126605038Y-114791353D02*
X126557419Y-114743734D01*
X126557419Y-114743734D02*
X126533609Y-114672306D01*
X126533609Y-114672306D02*
X126533609Y-114624687D01*
X126533609Y-114624687D02*
X126557419Y-114553258D01*
X126557419Y-114553258D02*
X126581228Y-114529449D01*
X127033609Y-114291353D02*
X127033609Y-114196115D01*
X127033609Y-114196115D02*
X127009800Y-114148496D01*
X127009800Y-114148496D02*
X126985990Y-114124687D01*
X126985990Y-114124687D02*
X126914561Y-114077068D01*
X126914561Y-114077068D02*
X126819323Y-114053258D01*
X126819323Y-114053258D02*
X126628847Y-114053258D01*
X126628847Y-114053258D02*
X126581228Y-114077068D01*
X126581228Y-114077068D02*
X126557419Y-114100877D01*
X126557419Y-114100877D02*
X126533609Y-114148496D01*
X126533609Y-114148496D02*
X126533609Y-114243734D01*
X126533609Y-114243734D02*
X126557419Y-114291353D01*
X126557419Y-114291353D02*
X126581228Y-114315163D01*
X126581228Y-114315163D02*
X126628847Y-114338972D01*
X126628847Y-114338972D02*
X126747895Y-114338972D01*
X126747895Y-114338972D02*
X126795514Y-114315163D01*
X126795514Y-114315163D02*
X126819323Y-114291353D01*
X126819323Y-114291353D02*
X126843133Y-114243734D01*
X126843133Y-114243734D02*
X126843133Y-114148496D01*
X126843133Y-114148496D02*
X126819323Y-114100877D01*
X126819323Y-114100877D02*
X126795514Y-114077068D01*
X126795514Y-114077068D02*
X126747895Y-114053258D01*
X129457419Y-115053258D02*
X129433609Y-115100877D01*
X129433609Y-115100877D02*
X129433609Y-115172306D01*
X129433609Y-115172306D02*
X129457419Y-115243734D01*
X129457419Y-115243734D02*
X129505038Y-115291353D01*
X129505038Y-115291353D02*
X129552657Y-115315163D01*
X129552657Y-115315163D02*
X129647895Y-115338972D01*
X129647895Y-115338972D02*
X129719323Y-115338972D01*
X129719323Y-115338972D02*
X129814561Y-115315163D01*
X129814561Y-115315163D02*
X129862180Y-115291353D01*
X129862180Y-115291353D02*
X129909800Y-115243734D01*
X129909800Y-115243734D02*
X129933609Y-115172306D01*
X129933609Y-115172306D02*
X129933609Y-115124687D01*
X129933609Y-115124687D02*
X129909800Y-115053258D01*
X129909800Y-115053258D02*
X129885990Y-115029449D01*
X129885990Y-115029449D02*
X129719323Y-115029449D01*
X129719323Y-115029449D02*
X129719323Y-115124687D01*
X129933609Y-114815163D02*
X129433609Y-114815163D01*
X129433609Y-114815163D02*
X129933609Y-114529449D01*
X129933609Y-114529449D02*
X129433609Y-114529449D01*
X129933609Y-114291353D02*
X129433609Y-114291353D01*
X129433609Y-114291353D02*
X129433609Y-114172305D01*
X129433609Y-114172305D02*
X129457419Y-114100877D01*
X129457419Y-114100877D02*
X129505038Y-114053258D01*
X129505038Y-114053258D02*
X129552657Y-114029448D01*
X129552657Y-114029448D02*
X129647895Y-114005639D01*
X129647895Y-114005639D02*
X129719323Y-114005639D01*
X129719323Y-114005639D02*
X129814561Y-114029448D01*
X129814561Y-114029448D02*
X129862180Y-114053258D01*
X129862180Y-114053258D02*
X129909800Y-114100877D01*
X129909800Y-114100877D02*
X129933609Y-114172305D01*
X129933609Y-114172305D02*
X129933609Y-114291353D01*
X139809800Y-110038972D02*
X139833609Y-109967544D01*
X139833609Y-109967544D02*
X139833609Y-109848496D01*
X139833609Y-109848496D02*
X139809800Y-109800877D01*
X139809800Y-109800877D02*
X139785990Y-109777068D01*
X139785990Y-109777068D02*
X139738371Y-109753258D01*
X139738371Y-109753258D02*
X139690752Y-109753258D01*
X139690752Y-109753258D02*
X139643133Y-109777068D01*
X139643133Y-109777068D02*
X139619323Y-109800877D01*
X139619323Y-109800877D02*
X139595514Y-109848496D01*
X139595514Y-109848496D02*
X139571704Y-109943734D01*
X139571704Y-109943734D02*
X139547895Y-109991353D01*
X139547895Y-109991353D02*
X139524085Y-110015163D01*
X139524085Y-110015163D02*
X139476466Y-110038972D01*
X139476466Y-110038972D02*
X139428847Y-110038972D01*
X139428847Y-110038972D02*
X139381228Y-110015163D01*
X139381228Y-110015163D02*
X139357419Y-109991353D01*
X139357419Y-109991353D02*
X139333609Y-109943734D01*
X139333609Y-109943734D02*
X139333609Y-109824687D01*
X139333609Y-109824687D02*
X139357419Y-109753258D01*
X139333609Y-109586592D02*
X139833609Y-109467544D01*
X139833609Y-109467544D02*
X139476466Y-109372306D01*
X139476466Y-109372306D02*
X139833609Y-109277068D01*
X139833609Y-109277068D02*
X139333609Y-109158021D01*
X139833609Y-108967544D02*
X139333609Y-108967544D01*
X139333609Y-108967544D02*
X139333609Y-108848496D01*
X139333609Y-108848496D02*
X139357419Y-108777068D01*
X139357419Y-108777068D02*
X139405038Y-108729449D01*
X139405038Y-108729449D02*
X139452657Y-108705639D01*
X139452657Y-108705639D02*
X139547895Y-108681830D01*
X139547895Y-108681830D02*
X139619323Y-108681830D01*
X139619323Y-108681830D02*
X139714561Y-108705639D01*
X139714561Y-108705639D02*
X139762180Y-108729449D01*
X139762180Y-108729449D02*
X139809800Y-108777068D01*
X139809800Y-108777068D02*
X139833609Y-108848496D01*
X139833609Y-108848496D02*
X139833609Y-108967544D01*
X139833609Y-108467544D02*
X139333609Y-108467544D01*
X139333609Y-108134211D02*
X139333609Y-108038973D01*
X139333609Y-108038973D02*
X139357419Y-107991354D01*
X139357419Y-107991354D02*
X139405038Y-107943735D01*
X139405038Y-107943735D02*
X139500276Y-107919925D01*
X139500276Y-107919925D02*
X139666942Y-107919925D01*
X139666942Y-107919925D02*
X139762180Y-107943735D01*
X139762180Y-107943735D02*
X139809800Y-107991354D01*
X139809800Y-107991354D02*
X139833609Y-108038973D01*
X139833609Y-108038973D02*
X139833609Y-108134211D01*
X139833609Y-108134211D02*
X139809800Y-108181830D01*
X139809800Y-108181830D02*
X139762180Y-108229449D01*
X139762180Y-108229449D02*
X139666942Y-108253258D01*
X139666942Y-108253258D02*
X139500276Y-108253258D01*
X139500276Y-108253258D02*
X139405038Y-108229449D01*
X139405038Y-108229449D02*
X139357419Y-108181830D01*
X139357419Y-108181830D02*
X139333609Y-108134211D01*
D11*
X139708500Y-107222525D02*
X139732309Y-107151097D01*
X139732309Y-107151097D02*
X139732309Y-107032049D01*
X139732309Y-107032049D02*
X139708500Y-106984430D01*
X139708500Y-106984430D02*
X139684690Y-106960621D01*
X139684690Y-106960621D02*
X139637071Y-106936811D01*
X139637071Y-106936811D02*
X139589452Y-106936811D01*
X139589452Y-106936811D02*
X139541833Y-106960621D01*
X139541833Y-106960621D02*
X139518023Y-106984430D01*
X139518023Y-106984430D02*
X139494214Y-107032049D01*
X139494214Y-107032049D02*
X139470404Y-107127287D01*
X139470404Y-107127287D02*
X139446595Y-107174906D01*
X139446595Y-107174906D02*
X139422785Y-107198716D01*
X139422785Y-107198716D02*
X139375166Y-107222525D01*
X139375166Y-107222525D02*
X139327547Y-107222525D01*
X139327547Y-107222525D02*
X139279928Y-107198716D01*
X139279928Y-107198716D02*
X139256119Y-107174906D01*
X139256119Y-107174906D02*
X139232309Y-107127287D01*
X139232309Y-107127287D02*
X139232309Y-107008240D01*
X139232309Y-107008240D02*
X139256119Y-106936811D01*
X139232309Y-106770145D02*
X139732309Y-106651097D01*
X139732309Y-106651097D02*
X139375166Y-106555859D01*
X139375166Y-106555859D02*
X139732309Y-106460621D01*
X139732309Y-106460621D02*
X139232309Y-106341574D01*
X139684690Y-105865383D02*
X139708500Y-105889192D01*
X139708500Y-105889192D02*
X139732309Y-105960621D01*
X139732309Y-105960621D02*
X139732309Y-106008240D01*
X139732309Y-106008240D02*
X139708500Y-106079668D01*
X139708500Y-106079668D02*
X139660880Y-106127287D01*
X139660880Y-106127287D02*
X139613261Y-106151097D01*
X139613261Y-106151097D02*
X139518023Y-106174906D01*
X139518023Y-106174906D02*
X139446595Y-106174906D01*
X139446595Y-106174906D02*
X139351357Y-106151097D01*
X139351357Y-106151097D02*
X139303738Y-106127287D01*
X139303738Y-106127287D02*
X139256119Y-106079668D01*
X139256119Y-106079668D02*
X139232309Y-106008240D01*
X139232309Y-106008240D02*
X139232309Y-105960621D01*
X139232309Y-105960621D02*
X139256119Y-105889192D01*
X139256119Y-105889192D02*
X139279928Y-105865383D01*
X139732309Y-105413002D02*
X139732309Y-105651097D01*
X139732309Y-105651097D02*
X139232309Y-105651097D01*
X139732309Y-105246335D02*
X139232309Y-105246335D01*
X139732309Y-104960621D02*
X139446595Y-105174906D01*
X139232309Y-104960621D02*
X139518023Y-105246335D01*
D10*
X115925042Y-108998496D02*
X115355042Y-108998496D01*
X115355042Y-108998496D02*
X115762185Y-108808496D01*
X115762185Y-108808496D02*
X115355042Y-108618496D01*
X115355042Y-108618496D02*
X115925042Y-108618496D01*
X115355042Y-108238496D02*
X115355042Y-108129924D01*
X115355042Y-108129924D02*
X115382185Y-108075639D01*
X115382185Y-108075639D02*
X115436471Y-108021353D01*
X115436471Y-108021353D02*
X115545042Y-107994210D01*
X115545042Y-107994210D02*
X115735042Y-107994210D01*
X115735042Y-107994210D02*
X115843614Y-108021353D01*
X115843614Y-108021353D02*
X115897900Y-108075639D01*
X115897900Y-108075639D02*
X115925042Y-108129924D01*
X115925042Y-108129924D02*
X115925042Y-108238496D01*
X115925042Y-108238496D02*
X115897900Y-108292782D01*
X115897900Y-108292782D02*
X115843614Y-108347067D01*
X115843614Y-108347067D02*
X115735042Y-108374210D01*
X115735042Y-108374210D02*
X115545042Y-108374210D01*
X115545042Y-108374210D02*
X115436471Y-108347067D01*
X115436471Y-108347067D02*
X115382185Y-108292782D01*
X115382185Y-108292782D02*
X115355042Y-108238496D01*
X115897900Y-107777067D02*
X115925042Y-107695639D01*
X115925042Y-107695639D02*
X115925042Y-107559924D01*
X115925042Y-107559924D02*
X115897900Y-107505639D01*
X115897900Y-107505639D02*
X115870757Y-107478496D01*
X115870757Y-107478496D02*
X115816471Y-107451353D01*
X115816471Y-107451353D02*
X115762185Y-107451353D01*
X115762185Y-107451353D02*
X115707900Y-107478496D01*
X115707900Y-107478496D02*
X115680757Y-107505639D01*
X115680757Y-107505639D02*
X115653614Y-107559924D01*
X115653614Y-107559924D02*
X115626471Y-107668496D01*
X115626471Y-107668496D02*
X115599328Y-107722781D01*
X115599328Y-107722781D02*
X115572185Y-107749924D01*
X115572185Y-107749924D02*
X115517900Y-107777067D01*
X115517900Y-107777067D02*
X115463614Y-107777067D01*
X115463614Y-107777067D02*
X115409328Y-107749924D01*
X115409328Y-107749924D02*
X115382185Y-107722781D01*
X115382185Y-107722781D02*
X115355042Y-107668496D01*
X115355042Y-107668496D02*
X115355042Y-107532781D01*
X115355042Y-107532781D02*
X115382185Y-107451353D01*
X115925042Y-107207067D02*
X115355042Y-107207067D01*
X95437217Y-111435657D02*
X95437217Y-111549942D01*
X95465789Y-111549942D02*
X95465789Y-111435657D01*
X95494360Y-111407085D02*
X95494360Y-111578514D01*
X95522932Y-111549942D02*
X95522932Y-111435657D01*
X95551503Y-111435657D02*
X95551503Y-111549942D01*
X95437217Y-111521371D02*
X95494360Y-111578514D01*
X95494360Y-111578514D02*
X95551503Y-111521371D01*
X95437217Y-111464228D02*
X95494360Y-111407085D01*
X95494360Y-111407085D02*
X95551503Y-111464228D01*
X95437217Y-111435657D02*
X95494360Y-111407085D01*
X95494360Y-111407085D02*
X95551503Y-111435657D01*
X95551503Y-111435657D02*
X95580074Y-111492800D01*
X95580074Y-111492800D02*
X95551503Y-111549942D01*
X95551503Y-111549942D02*
X95494360Y-111578514D01*
X95494360Y-111578514D02*
X95437217Y-111549942D01*
X95437217Y-111549942D02*
X95408646Y-111492800D01*
X95408646Y-111492800D02*
X95437217Y-111435657D01*
X95951503Y-111121371D02*
X96322931Y-111121371D01*
X96322931Y-111121371D02*
X96122931Y-111349942D01*
X96122931Y-111349942D02*
X96208646Y-111349942D01*
X96208646Y-111349942D02*
X96265789Y-111378514D01*
X96265789Y-111378514D02*
X96294360Y-111407085D01*
X96294360Y-111407085D02*
X96322931Y-111464228D01*
X96322931Y-111464228D02*
X96322931Y-111607085D01*
X96322931Y-111607085D02*
X96294360Y-111664228D01*
X96294360Y-111664228D02*
X96265789Y-111692800D01*
X96265789Y-111692800D02*
X96208646Y-111721371D01*
X96208646Y-111721371D02*
X96037217Y-111721371D01*
X96037217Y-111721371D02*
X95980074Y-111692800D01*
X95980074Y-111692800D02*
X95951503Y-111664228D01*
X96522932Y-111321371D02*
X96665789Y-111721371D01*
X96665789Y-111721371D02*
X96808646Y-111321371D01*
X96980075Y-111121371D02*
X97351503Y-111121371D01*
X97351503Y-111121371D02*
X97151503Y-111349942D01*
X97151503Y-111349942D02*
X97237218Y-111349942D01*
X97237218Y-111349942D02*
X97294361Y-111378514D01*
X97294361Y-111378514D02*
X97322932Y-111407085D01*
X97322932Y-111407085D02*
X97351503Y-111464228D01*
X97351503Y-111464228D02*
X97351503Y-111607085D01*
X97351503Y-111607085D02*
X97322932Y-111664228D01*
X97322932Y-111664228D02*
X97294361Y-111692800D01*
X97294361Y-111692800D02*
X97237218Y-111721371D01*
X97237218Y-111721371D02*
X97065789Y-111721371D01*
X97065789Y-111721371D02*
X97008646Y-111692800D01*
X97008646Y-111692800D02*
X96980075Y-111664228D01*
X96122931Y-103349942D02*
X96065789Y-103321371D01*
X96065789Y-103321371D02*
X95980074Y-103321371D01*
X95980074Y-103321371D02*
X95894360Y-103349942D01*
X95894360Y-103349942D02*
X95837217Y-103407085D01*
X95837217Y-103407085D02*
X95808646Y-103464228D01*
X95808646Y-103464228D02*
X95780074Y-103578514D01*
X95780074Y-103578514D02*
X95780074Y-103664228D01*
X95780074Y-103664228D02*
X95808646Y-103778514D01*
X95808646Y-103778514D02*
X95837217Y-103835657D01*
X95837217Y-103835657D02*
X95894360Y-103892800D01*
X95894360Y-103892800D02*
X95980074Y-103921371D01*
X95980074Y-103921371D02*
X96037217Y-103921371D01*
X96037217Y-103921371D02*
X96122931Y-103892800D01*
X96122931Y-103892800D02*
X96151503Y-103864228D01*
X96151503Y-103864228D02*
X96151503Y-103664228D01*
X96151503Y-103664228D02*
X96037217Y-103664228D01*
X96408646Y-103921371D02*
X96408646Y-103321371D01*
X96408646Y-103321371D02*
X96751503Y-103921371D01*
X96751503Y-103921371D02*
X96751503Y-103321371D01*
X97037217Y-103921371D02*
X97037217Y-103321371D01*
X97037217Y-103321371D02*
X97180074Y-103321371D01*
X97180074Y-103321371D02*
X97265788Y-103349942D01*
X97265788Y-103349942D02*
X97322931Y-103407085D01*
X97322931Y-103407085D02*
X97351502Y-103464228D01*
X97351502Y-103464228D02*
X97380074Y-103578514D01*
X97380074Y-103578514D02*
X97380074Y-103664228D01*
X97380074Y-103664228D02*
X97351502Y-103778514D01*
X97351502Y-103778514D02*
X97322931Y-103835657D01*
X97322931Y-103835657D02*
X97265788Y-103892800D01*
X97265788Y-103892800D02*
X97180074Y-103921371D01*
X97180074Y-103921371D02*
X97037217Y-103921371D01*
X96451503Y-106521371D02*
X96251503Y-106235657D01*
X96108646Y-106521371D02*
X96108646Y-105921371D01*
X96108646Y-105921371D02*
X96337217Y-105921371D01*
X96337217Y-105921371D02*
X96394360Y-105949942D01*
X96394360Y-105949942D02*
X96422931Y-105978514D01*
X96422931Y-105978514D02*
X96451503Y-106035657D01*
X96451503Y-106035657D02*
X96451503Y-106121371D01*
X96451503Y-106121371D02*
X96422931Y-106178514D01*
X96422931Y-106178514D02*
X96394360Y-106207085D01*
X96394360Y-106207085D02*
X96337217Y-106235657D01*
X96337217Y-106235657D02*
X96108646Y-106235657D01*
X96651503Y-105921371D02*
X97051503Y-106521371D01*
X97051503Y-105921371D02*
X96651503Y-106521371D01*
X96122931Y-108621371D02*
X96465789Y-108621371D01*
X96294360Y-109221371D02*
X96294360Y-108621371D01*
X96608646Y-108621371D02*
X97008646Y-109221371D01*
X97008646Y-108621371D02*
X96608646Y-109221371D01*
X99037217Y-75135657D02*
X99037217Y-75249942D01*
X99065789Y-75249942D02*
X99065789Y-75135657D01*
X99094360Y-75107085D02*
X99094360Y-75278514D01*
X99122932Y-75249942D02*
X99122932Y-75135657D01*
X99151503Y-75135657D02*
X99151503Y-75249942D01*
X99037217Y-75221371D02*
X99094360Y-75278514D01*
X99094360Y-75278514D02*
X99151503Y-75221371D01*
X99037217Y-75164228D02*
X99094360Y-75107085D01*
X99094360Y-75107085D02*
X99151503Y-75164228D01*
X99037217Y-75135657D02*
X99094360Y-75107085D01*
X99094360Y-75107085D02*
X99151503Y-75135657D01*
X99151503Y-75135657D02*
X99180074Y-75192800D01*
X99180074Y-75192800D02*
X99151503Y-75249942D01*
X99151503Y-75249942D02*
X99094360Y-75278514D01*
X99094360Y-75278514D02*
X99037217Y-75249942D01*
X99037217Y-75249942D02*
X99008646Y-75192800D01*
X99008646Y-75192800D02*
X99037217Y-75135657D01*
X99551503Y-74821371D02*
X99922931Y-74821371D01*
X99922931Y-74821371D02*
X99722931Y-75049942D01*
X99722931Y-75049942D02*
X99808646Y-75049942D01*
X99808646Y-75049942D02*
X99865789Y-75078514D01*
X99865789Y-75078514D02*
X99894360Y-75107085D01*
X99894360Y-75107085D02*
X99922931Y-75164228D01*
X99922931Y-75164228D02*
X99922931Y-75307085D01*
X99922931Y-75307085D02*
X99894360Y-75364228D01*
X99894360Y-75364228D02*
X99865789Y-75392800D01*
X99865789Y-75392800D02*
X99808646Y-75421371D01*
X99808646Y-75421371D02*
X99637217Y-75421371D01*
X99637217Y-75421371D02*
X99580074Y-75392800D01*
X99580074Y-75392800D02*
X99551503Y-75364228D01*
X100122932Y-75021371D02*
X100265789Y-75421371D01*
X100265789Y-75421371D02*
X100408646Y-75021371D01*
X100580075Y-74821371D02*
X100951503Y-74821371D01*
X100951503Y-74821371D02*
X100751503Y-75049942D01*
X100751503Y-75049942D02*
X100837218Y-75049942D01*
X100837218Y-75049942D02*
X100894361Y-75078514D01*
X100894361Y-75078514D02*
X100922932Y-75107085D01*
X100922932Y-75107085D02*
X100951503Y-75164228D01*
X100951503Y-75164228D02*
X100951503Y-75307085D01*
X100951503Y-75307085D02*
X100922932Y-75364228D01*
X100922932Y-75364228D02*
X100894361Y-75392800D01*
X100894361Y-75392800D02*
X100837218Y-75421371D01*
X100837218Y-75421371D02*
X100665789Y-75421371D01*
X100665789Y-75421371D02*
X100608646Y-75392800D01*
X100608646Y-75392800D02*
X100580075Y-75364228D01*
X130622931Y-92021371D02*
X130822931Y-92621371D01*
X130822931Y-92621371D02*
X131022931Y-92021371D01*
X131422932Y-92307085D02*
X131508646Y-92335657D01*
X131508646Y-92335657D02*
X131537217Y-92364228D01*
X131537217Y-92364228D02*
X131565789Y-92421371D01*
X131565789Y-92421371D02*
X131565789Y-92507085D01*
X131565789Y-92507085D02*
X131537217Y-92564228D01*
X131537217Y-92564228D02*
X131508646Y-92592800D01*
X131508646Y-92592800D02*
X131451503Y-92621371D01*
X131451503Y-92621371D02*
X131222932Y-92621371D01*
X131222932Y-92621371D02*
X131222932Y-92021371D01*
X131222932Y-92021371D02*
X131422932Y-92021371D01*
X131422932Y-92021371D02*
X131480075Y-92049942D01*
X131480075Y-92049942D02*
X131508646Y-92078514D01*
X131508646Y-92078514D02*
X131537217Y-92135657D01*
X131537217Y-92135657D02*
X131537217Y-92192800D01*
X131537217Y-92192800D02*
X131508646Y-92249942D01*
X131508646Y-92249942D02*
X131480075Y-92278514D01*
X131480075Y-92278514D02*
X131422932Y-92307085D01*
X131422932Y-92307085D02*
X131222932Y-92307085D01*
X131822932Y-92021371D02*
X131822932Y-92507085D01*
X131822932Y-92507085D02*
X131851503Y-92564228D01*
X131851503Y-92564228D02*
X131880075Y-92592800D01*
X131880075Y-92592800D02*
X131937217Y-92621371D01*
X131937217Y-92621371D02*
X132051503Y-92621371D01*
X132051503Y-92621371D02*
X132108646Y-92592800D01*
X132108646Y-92592800D02*
X132137217Y-92564228D01*
X132137217Y-92564228D02*
X132165789Y-92507085D01*
X132165789Y-92507085D02*
X132165789Y-92021371D01*
X132422931Y-92592800D02*
X132508646Y-92621371D01*
X132508646Y-92621371D02*
X132651503Y-92621371D01*
X132651503Y-92621371D02*
X132708646Y-92592800D01*
X132708646Y-92592800D02*
X132737217Y-92564228D01*
X132737217Y-92564228D02*
X132765788Y-92507085D01*
X132765788Y-92507085D02*
X132765788Y-92449942D01*
X132765788Y-92449942D02*
X132737217Y-92392800D01*
X132737217Y-92392800D02*
X132708646Y-92364228D01*
X132708646Y-92364228D02*
X132651503Y-92335657D01*
X132651503Y-92335657D02*
X132537217Y-92307085D01*
X132537217Y-92307085D02*
X132480074Y-92278514D01*
X132480074Y-92278514D02*
X132451503Y-92249942D01*
X132451503Y-92249942D02*
X132422931Y-92192800D01*
X132422931Y-92192800D02*
X132422931Y-92135657D01*
X132422931Y-92135657D02*
X132451503Y-92078514D01*
X132451503Y-92078514D02*
X132480074Y-92049942D01*
X132480074Y-92049942D02*
X132537217Y-92021371D01*
X132537217Y-92021371D02*
X132680074Y-92021371D01*
X132680074Y-92021371D02*
X132765788Y-92049942D01*
X132008646Y-91721371D02*
X132008646Y-91121371D01*
X132008646Y-91121371D02*
X132151503Y-91121371D01*
X132151503Y-91121371D02*
X132237217Y-91149942D01*
X132237217Y-91149942D02*
X132294360Y-91207085D01*
X132294360Y-91207085D02*
X132322931Y-91264228D01*
X132322931Y-91264228D02*
X132351503Y-91378514D01*
X132351503Y-91378514D02*
X132351503Y-91464228D01*
X132351503Y-91464228D02*
X132322931Y-91578514D01*
X132322931Y-91578514D02*
X132294360Y-91635657D01*
X132294360Y-91635657D02*
X132237217Y-91692800D01*
X132237217Y-91692800D02*
X132151503Y-91721371D01*
X132151503Y-91721371D02*
X132008646Y-91721371D01*
X132608646Y-91492800D02*
X133065789Y-91492800D01*
X132508646Y-90621371D02*
X132508646Y-90021371D01*
X132508646Y-90021371D02*
X132651503Y-90021371D01*
X132651503Y-90021371D02*
X132737217Y-90049942D01*
X132737217Y-90049942D02*
X132794360Y-90107085D01*
X132794360Y-90107085D02*
X132822931Y-90164228D01*
X132822931Y-90164228D02*
X132851503Y-90278514D01*
X132851503Y-90278514D02*
X132851503Y-90364228D01*
X132851503Y-90364228D02*
X132822931Y-90478514D01*
X132822931Y-90478514D02*
X132794360Y-90535657D01*
X132794360Y-90535657D02*
X132737217Y-90592800D01*
X132737217Y-90592800D02*
X132651503Y-90621371D01*
X132651503Y-90621371D02*
X132508646Y-90621371D01*
X133108646Y-90392800D02*
X133565789Y-90392800D01*
X133337217Y-90621371D02*
X133337217Y-90164228D01*
X138737217Y-103735657D02*
X138737217Y-103849942D01*
X138765789Y-103849942D02*
X138765789Y-103735657D01*
X138794360Y-103707085D02*
X138794360Y-103878514D01*
X138822932Y-103849942D02*
X138822932Y-103735657D01*
X138851503Y-103735657D02*
X138851503Y-103849942D01*
X138737217Y-103821371D02*
X138794360Y-103878514D01*
X138794360Y-103878514D02*
X138851503Y-103821371D01*
X138737217Y-103764228D02*
X138794360Y-103707085D01*
X138794360Y-103707085D02*
X138851503Y-103764228D01*
X138737217Y-103735657D02*
X138794360Y-103707085D01*
X138794360Y-103707085D02*
X138851503Y-103735657D01*
X138851503Y-103735657D02*
X138880074Y-103792800D01*
X138880074Y-103792800D02*
X138851503Y-103849942D01*
X138851503Y-103849942D02*
X138794360Y-103878514D01*
X138794360Y-103878514D02*
X138737217Y-103849942D01*
X138737217Y-103849942D02*
X138708646Y-103792800D01*
X138708646Y-103792800D02*
X138737217Y-103735657D01*
X139251503Y-103421371D02*
X139622931Y-103421371D01*
X139622931Y-103421371D02*
X139422931Y-103649942D01*
X139422931Y-103649942D02*
X139508646Y-103649942D01*
X139508646Y-103649942D02*
X139565789Y-103678514D01*
X139565789Y-103678514D02*
X139594360Y-103707085D01*
X139594360Y-103707085D02*
X139622931Y-103764228D01*
X139622931Y-103764228D02*
X139622931Y-103907085D01*
X139622931Y-103907085D02*
X139594360Y-103964228D01*
X139594360Y-103964228D02*
X139565789Y-103992800D01*
X139565789Y-103992800D02*
X139508646Y-104021371D01*
X139508646Y-104021371D02*
X139337217Y-104021371D01*
X139337217Y-104021371D02*
X139280074Y-103992800D01*
X139280074Y-103992800D02*
X139251503Y-103964228D01*
X139822932Y-103621371D02*
X139965789Y-104021371D01*
X139965789Y-104021371D02*
X140108646Y-103621371D01*
X140280075Y-103421371D02*
X140651503Y-103421371D01*
X140651503Y-103421371D02*
X140451503Y-103649942D01*
X140451503Y-103649942D02*
X140537218Y-103649942D01*
X140537218Y-103649942D02*
X140594361Y-103678514D01*
X140594361Y-103678514D02*
X140622932Y-103707085D01*
X140622932Y-103707085D02*
X140651503Y-103764228D01*
X140651503Y-103764228D02*
X140651503Y-103907085D01*
X140651503Y-103907085D02*
X140622932Y-103964228D01*
X140622932Y-103964228D02*
X140594361Y-103992800D01*
X140594361Y-103992800D02*
X140537218Y-104021371D01*
X140537218Y-104021371D02*
X140365789Y-104021371D01*
X140365789Y-104021371D02*
X140308646Y-103992800D01*
X140308646Y-103992800D02*
X140280075Y-103964228D01*
X102992800Y-75819925D02*
X103021371Y-75734211D01*
X103021371Y-75734211D02*
X103021371Y-75591353D01*
X103021371Y-75591353D02*
X102992800Y-75534211D01*
X102992800Y-75534211D02*
X102964228Y-75505639D01*
X102964228Y-75505639D02*
X102907085Y-75477068D01*
X102907085Y-75477068D02*
X102849942Y-75477068D01*
X102849942Y-75477068D02*
X102792800Y-75505639D01*
X102792800Y-75505639D02*
X102764228Y-75534211D01*
X102764228Y-75534211D02*
X102735657Y-75591353D01*
X102735657Y-75591353D02*
X102707085Y-75705639D01*
X102707085Y-75705639D02*
X102678514Y-75762782D01*
X102678514Y-75762782D02*
X102649942Y-75791353D01*
X102649942Y-75791353D02*
X102592800Y-75819925D01*
X102592800Y-75819925D02*
X102535657Y-75819925D01*
X102535657Y-75819925D02*
X102478514Y-75791353D01*
X102478514Y-75791353D02*
X102449942Y-75762782D01*
X102449942Y-75762782D02*
X102421371Y-75705639D01*
X102421371Y-75705639D02*
X102421371Y-75562782D01*
X102421371Y-75562782D02*
X102449942Y-75477068D01*
X103021371Y-75219924D02*
X102421371Y-75219924D01*
X102421371Y-75219924D02*
X102421371Y-75077067D01*
X102421371Y-75077067D02*
X102449942Y-74991353D01*
X102449942Y-74991353D02*
X102507085Y-74934210D01*
X102507085Y-74934210D02*
X102564228Y-74905639D01*
X102564228Y-74905639D02*
X102678514Y-74877067D01*
X102678514Y-74877067D02*
X102764228Y-74877067D01*
X102764228Y-74877067D02*
X102878514Y-74905639D01*
X102878514Y-74905639D02*
X102935657Y-74934210D01*
X102935657Y-74934210D02*
X102992800Y-74991353D01*
X102992800Y-74991353D02*
X103021371Y-75077067D01*
X103021371Y-75077067D02*
X103021371Y-75219924D01*
X102849942Y-74648496D02*
X102849942Y-74362782D01*
X103021371Y-74705639D02*
X102421371Y-74505639D01*
X102421371Y-74505639D02*
X103021371Y-74305639D01*
X105592800Y-75819925D02*
X105621371Y-75734211D01*
X105621371Y-75734211D02*
X105621371Y-75591353D01*
X105621371Y-75591353D02*
X105592800Y-75534211D01*
X105592800Y-75534211D02*
X105564228Y-75505639D01*
X105564228Y-75505639D02*
X105507085Y-75477068D01*
X105507085Y-75477068D02*
X105449942Y-75477068D01*
X105449942Y-75477068D02*
X105392800Y-75505639D01*
X105392800Y-75505639D02*
X105364228Y-75534211D01*
X105364228Y-75534211D02*
X105335657Y-75591353D01*
X105335657Y-75591353D02*
X105307085Y-75705639D01*
X105307085Y-75705639D02*
X105278514Y-75762782D01*
X105278514Y-75762782D02*
X105249942Y-75791353D01*
X105249942Y-75791353D02*
X105192800Y-75819925D01*
X105192800Y-75819925D02*
X105135657Y-75819925D01*
X105135657Y-75819925D02*
X105078514Y-75791353D01*
X105078514Y-75791353D02*
X105049942Y-75762782D01*
X105049942Y-75762782D02*
X105021371Y-75705639D01*
X105021371Y-75705639D02*
X105021371Y-75562782D01*
X105021371Y-75562782D02*
X105049942Y-75477068D01*
X105564228Y-74877067D02*
X105592800Y-74905639D01*
X105592800Y-74905639D02*
X105621371Y-74991353D01*
X105621371Y-74991353D02*
X105621371Y-75048496D01*
X105621371Y-75048496D02*
X105592800Y-75134210D01*
X105592800Y-75134210D02*
X105535657Y-75191353D01*
X105535657Y-75191353D02*
X105478514Y-75219924D01*
X105478514Y-75219924D02*
X105364228Y-75248496D01*
X105364228Y-75248496D02*
X105278514Y-75248496D01*
X105278514Y-75248496D02*
X105164228Y-75219924D01*
X105164228Y-75219924D02*
X105107085Y-75191353D01*
X105107085Y-75191353D02*
X105049942Y-75134210D01*
X105049942Y-75134210D02*
X105021371Y-75048496D01*
X105021371Y-75048496D02*
X105021371Y-74991353D01*
X105021371Y-74991353D02*
X105049942Y-74905639D01*
X105049942Y-74905639D02*
X105078514Y-74877067D01*
X105621371Y-74334210D02*
X105621371Y-74619924D01*
X105621371Y-74619924D02*
X105021371Y-74619924D01*
X107235657Y-115562782D02*
X107349942Y-115562782D01*
X107349942Y-115534210D02*
X107235657Y-115534210D01*
X107207085Y-115505639D02*
X107378514Y-115505639D01*
X107349942Y-115477068D02*
X107235657Y-115477068D01*
X107235657Y-115448496D02*
X107349942Y-115448496D01*
X107321371Y-115562782D02*
X107378514Y-115505639D01*
X107378514Y-115505639D02*
X107321371Y-115448496D01*
X107264228Y-115562782D02*
X107207085Y-115505639D01*
X107207085Y-115505639D02*
X107264228Y-115448496D01*
X107235657Y-115562782D02*
X107207085Y-115505639D01*
X107207085Y-115505639D02*
X107235657Y-115448496D01*
X107235657Y-115448496D02*
X107292800Y-115419925D01*
X107292800Y-115419925D02*
X107349942Y-115448496D01*
X107349942Y-115448496D02*
X107378514Y-115505639D01*
X107378514Y-115505639D02*
X107349942Y-115562782D01*
X107349942Y-115562782D02*
X107292800Y-115591353D01*
X107292800Y-115591353D02*
X107235657Y-115562782D01*
X106921371Y-115048496D02*
X106921371Y-114677068D01*
X106921371Y-114677068D02*
X107149942Y-114877068D01*
X107149942Y-114877068D02*
X107149942Y-114791353D01*
X107149942Y-114791353D02*
X107178514Y-114734211D01*
X107178514Y-114734211D02*
X107207085Y-114705639D01*
X107207085Y-114705639D02*
X107264228Y-114677068D01*
X107264228Y-114677068D02*
X107407085Y-114677068D01*
X107407085Y-114677068D02*
X107464228Y-114705639D01*
X107464228Y-114705639D02*
X107492800Y-114734211D01*
X107492800Y-114734211D02*
X107521371Y-114791353D01*
X107521371Y-114791353D02*
X107521371Y-114962782D01*
X107521371Y-114962782D02*
X107492800Y-115019925D01*
X107492800Y-115019925D02*
X107464228Y-115048496D01*
X107121371Y-114477067D02*
X107521371Y-114334210D01*
X107521371Y-114334210D02*
X107121371Y-114191353D01*
X106921371Y-114019924D02*
X106921371Y-113648496D01*
X106921371Y-113648496D02*
X107149942Y-113848496D01*
X107149942Y-113848496D02*
X107149942Y-113762781D01*
X107149942Y-113762781D02*
X107178514Y-113705639D01*
X107178514Y-113705639D02*
X107207085Y-113677067D01*
X107207085Y-113677067D02*
X107264228Y-113648496D01*
X107264228Y-113648496D02*
X107407085Y-113648496D01*
X107407085Y-113648496D02*
X107464228Y-113677067D01*
X107464228Y-113677067D02*
X107492800Y-113705639D01*
X107492800Y-113705639D02*
X107521371Y-113762781D01*
X107521371Y-113762781D02*
X107521371Y-113934210D01*
X107521371Y-113934210D02*
X107492800Y-113991353D01*
X107492800Y-113991353D02*
X107464228Y-114019924D01*
X107849942Y-75577068D02*
X107821371Y-75634211D01*
X107821371Y-75634211D02*
X107821371Y-75719925D01*
X107821371Y-75719925D02*
X107849942Y-75805639D01*
X107849942Y-75805639D02*
X107907085Y-75862782D01*
X107907085Y-75862782D02*
X107964228Y-75891353D01*
X107964228Y-75891353D02*
X108078514Y-75919925D01*
X108078514Y-75919925D02*
X108164228Y-75919925D01*
X108164228Y-75919925D02*
X108278514Y-75891353D01*
X108278514Y-75891353D02*
X108335657Y-75862782D01*
X108335657Y-75862782D02*
X108392800Y-75805639D01*
X108392800Y-75805639D02*
X108421371Y-75719925D01*
X108421371Y-75719925D02*
X108421371Y-75662782D01*
X108421371Y-75662782D02*
X108392800Y-75577068D01*
X108392800Y-75577068D02*
X108364228Y-75548496D01*
X108364228Y-75548496D02*
X108164228Y-75548496D01*
X108164228Y-75548496D02*
X108164228Y-75662782D01*
X108421371Y-75291353D02*
X107821371Y-75291353D01*
X107821371Y-75291353D02*
X108421371Y-74948496D01*
X108421371Y-74948496D02*
X107821371Y-74948496D01*
X108421371Y-74662782D02*
X107821371Y-74662782D01*
X107821371Y-74662782D02*
X107821371Y-74519925D01*
X107821371Y-74519925D02*
X107849942Y-74434211D01*
X107849942Y-74434211D02*
X107907085Y-74377068D01*
X107907085Y-74377068D02*
X107964228Y-74348497D01*
X107964228Y-74348497D02*
X108078514Y-74319925D01*
X108078514Y-74319925D02*
X108164228Y-74319925D01*
X108164228Y-74319925D02*
X108278514Y-74348497D01*
X108278514Y-74348497D02*
X108335657Y-74377068D01*
X108335657Y-74377068D02*
X108392800Y-74434211D01*
X108392800Y-74434211D02*
X108421371Y-74519925D01*
X108421371Y-74519925D02*
X108421371Y-74662782D01*
X110335657Y-108662782D02*
X110449942Y-108662782D01*
X110449942Y-108634210D02*
X110335657Y-108634210D01*
X110307085Y-108605639D02*
X110478514Y-108605639D01*
X110449942Y-108577068D02*
X110335657Y-108577068D01*
X110335657Y-108548496D02*
X110449942Y-108548496D01*
X110421371Y-108662782D02*
X110478514Y-108605639D01*
X110478514Y-108605639D02*
X110421371Y-108548496D01*
X110364228Y-108662782D02*
X110307085Y-108605639D01*
X110307085Y-108605639D02*
X110364228Y-108548496D01*
X110335657Y-108662782D02*
X110307085Y-108605639D01*
X110307085Y-108605639D02*
X110335657Y-108548496D01*
X110335657Y-108548496D02*
X110392800Y-108519925D01*
X110392800Y-108519925D02*
X110449942Y-108548496D01*
X110449942Y-108548496D02*
X110478514Y-108605639D01*
X110478514Y-108605639D02*
X110449942Y-108662782D01*
X110449942Y-108662782D02*
X110392800Y-108691353D01*
X110392800Y-108691353D02*
X110335657Y-108662782D01*
X110021371Y-108148496D02*
X110021371Y-107777068D01*
X110021371Y-107777068D02*
X110249942Y-107977068D01*
X110249942Y-107977068D02*
X110249942Y-107891353D01*
X110249942Y-107891353D02*
X110278514Y-107834211D01*
X110278514Y-107834211D02*
X110307085Y-107805639D01*
X110307085Y-107805639D02*
X110364228Y-107777068D01*
X110364228Y-107777068D02*
X110507085Y-107777068D01*
X110507085Y-107777068D02*
X110564228Y-107805639D01*
X110564228Y-107805639D02*
X110592800Y-107834211D01*
X110592800Y-107834211D02*
X110621371Y-107891353D01*
X110621371Y-107891353D02*
X110621371Y-108062782D01*
X110621371Y-108062782D02*
X110592800Y-108119925D01*
X110592800Y-108119925D02*
X110564228Y-108148496D01*
X110221371Y-107577067D02*
X110621371Y-107434210D01*
X110621371Y-107434210D02*
X110221371Y-107291353D01*
X110021371Y-107119924D02*
X110021371Y-106748496D01*
X110021371Y-106748496D02*
X110249942Y-106948496D01*
X110249942Y-106948496D02*
X110249942Y-106862781D01*
X110249942Y-106862781D02*
X110278514Y-106805639D01*
X110278514Y-106805639D02*
X110307085Y-106777067D01*
X110307085Y-106777067D02*
X110364228Y-106748496D01*
X110364228Y-106748496D02*
X110507085Y-106748496D01*
X110507085Y-106748496D02*
X110564228Y-106777067D01*
X110564228Y-106777067D02*
X110592800Y-106805639D01*
X110592800Y-106805639D02*
X110621371Y-106862781D01*
X110621371Y-106862781D02*
X110621371Y-107034210D01*
X110621371Y-107034210D02*
X110592800Y-107091353D01*
X110592800Y-107091353D02*
X110564228Y-107119924D01*
X113121371Y-108991353D02*
X112521371Y-108991353D01*
X112521371Y-108991353D02*
X112949942Y-108791353D01*
X112949942Y-108791353D02*
X112521371Y-108591353D01*
X112521371Y-108591353D02*
X113121371Y-108591353D01*
X113121371Y-108305639D02*
X112521371Y-108305639D01*
X113092800Y-108048497D02*
X113121371Y-107962783D01*
X113121371Y-107962783D02*
X113121371Y-107819925D01*
X113121371Y-107819925D02*
X113092800Y-107762783D01*
X113092800Y-107762783D02*
X113064228Y-107734211D01*
X113064228Y-107734211D02*
X113007085Y-107705640D01*
X113007085Y-107705640D02*
X112949942Y-107705640D01*
X112949942Y-107705640D02*
X112892800Y-107734211D01*
X112892800Y-107734211D02*
X112864228Y-107762783D01*
X112864228Y-107762783D02*
X112835657Y-107819925D01*
X112835657Y-107819925D02*
X112807085Y-107934211D01*
X112807085Y-107934211D02*
X112778514Y-107991354D01*
X112778514Y-107991354D02*
X112749942Y-108019925D01*
X112749942Y-108019925D02*
X112692800Y-108048497D01*
X112692800Y-108048497D02*
X112635657Y-108048497D01*
X112635657Y-108048497D02*
X112578514Y-108019925D01*
X112578514Y-108019925D02*
X112549942Y-107991354D01*
X112549942Y-107991354D02*
X112521371Y-107934211D01*
X112521371Y-107934211D02*
X112521371Y-107791354D01*
X112521371Y-107791354D02*
X112549942Y-107705640D01*
X112521371Y-107334211D02*
X112521371Y-107219925D01*
X112521371Y-107219925D02*
X112549942Y-107162782D01*
X112549942Y-107162782D02*
X112607085Y-107105639D01*
X112607085Y-107105639D02*
X112721371Y-107077068D01*
X112721371Y-107077068D02*
X112921371Y-107077068D01*
X112921371Y-107077068D02*
X113035657Y-107105639D01*
X113035657Y-107105639D02*
X113092800Y-107162782D01*
X113092800Y-107162782D02*
X113121371Y-107219925D01*
X113121371Y-107219925D02*
X113121371Y-107334211D01*
X113121371Y-107334211D02*
X113092800Y-107391354D01*
X113092800Y-107391354D02*
X113035657Y-107448496D01*
X113035657Y-107448496D02*
X112921371Y-107477068D01*
X112921371Y-107477068D02*
X112721371Y-107477068D01*
X112721371Y-107477068D02*
X112607085Y-107448496D01*
X112607085Y-107448496D02*
X112549942Y-107391354D01*
X112549942Y-107391354D02*
X112521371Y-107334211D01*
X118992800Y-109019925D02*
X119021371Y-108934211D01*
X119021371Y-108934211D02*
X119021371Y-108791353D01*
X119021371Y-108791353D02*
X118992800Y-108734211D01*
X118992800Y-108734211D02*
X118964228Y-108705639D01*
X118964228Y-108705639D02*
X118907085Y-108677068D01*
X118907085Y-108677068D02*
X118849942Y-108677068D01*
X118849942Y-108677068D02*
X118792800Y-108705639D01*
X118792800Y-108705639D02*
X118764228Y-108734211D01*
X118764228Y-108734211D02*
X118735657Y-108791353D01*
X118735657Y-108791353D02*
X118707085Y-108905639D01*
X118707085Y-108905639D02*
X118678514Y-108962782D01*
X118678514Y-108962782D02*
X118649942Y-108991353D01*
X118649942Y-108991353D02*
X118592800Y-109019925D01*
X118592800Y-109019925D02*
X118535657Y-109019925D01*
X118535657Y-109019925D02*
X118478514Y-108991353D01*
X118478514Y-108991353D02*
X118449942Y-108962782D01*
X118449942Y-108962782D02*
X118421371Y-108905639D01*
X118421371Y-108905639D02*
X118421371Y-108762782D01*
X118421371Y-108762782D02*
X118449942Y-108677068D01*
X118964228Y-108077067D02*
X118992800Y-108105639D01*
X118992800Y-108105639D02*
X119021371Y-108191353D01*
X119021371Y-108191353D02*
X119021371Y-108248496D01*
X119021371Y-108248496D02*
X118992800Y-108334210D01*
X118992800Y-108334210D02*
X118935657Y-108391353D01*
X118935657Y-108391353D02*
X118878514Y-108419924D01*
X118878514Y-108419924D02*
X118764228Y-108448496D01*
X118764228Y-108448496D02*
X118678514Y-108448496D01*
X118678514Y-108448496D02*
X118564228Y-108419924D01*
X118564228Y-108419924D02*
X118507085Y-108391353D01*
X118507085Y-108391353D02*
X118449942Y-108334210D01*
X118449942Y-108334210D02*
X118421371Y-108248496D01*
X118421371Y-108248496D02*
X118421371Y-108191353D01*
X118421371Y-108191353D02*
X118449942Y-108105639D01*
X118449942Y-108105639D02*
X118478514Y-108077067D01*
X119021371Y-107819924D02*
X118421371Y-107819924D01*
X119021371Y-107477067D02*
X118678514Y-107734210D01*
X118421371Y-107477067D02*
X118764228Y-107819924D01*
X121264228Y-108448496D02*
X121292800Y-108477068D01*
X121292800Y-108477068D02*
X121321371Y-108562782D01*
X121321371Y-108562782D02*
X121321371Y-108619925D01*
X121321371Y-108619925D02*
X121292800Y-108705639D01*
X121292800Y-108705639D02*
X121235657Y-108762782D01*
X121235657Y-108762782D02*
X121178514Y-108791353D01*
X121178514Y-108791353D02*
X121064228Y-108819925D01*
X121064228Y-108819925D02*
X120978514Y-108819925D01*
X120978514Y-108819925D02*
X120864228Y-108791353D01*
X120864228Y-108791353D02*
X120807085Y-108762782D01*
X120807085Y-108762782D02*
X120749942Y-108705639D01*
X120749942Y-108705639D02*
X120721371Y-108619925D01*
X120721371Y-108619925D02*
X120721371Y-108562782D01*
X120721371Y-108562782D02*
X120749942Y-108477068D01*
X120749942Y-108477068D02*
X120778514Y-108448496D01*
X121292800Y-108219925D02*
X121321371Y-108134211D01*
X121321371Y-108134211D02*
X121321371Y-107991353D01*
X121321371Y-107991353D02*
X121292800Y-107934211D01*
X121292800Y-107934211D02*
X121264228Y-107905639D01*
X121264228Y-107905639D02*
X121207085Y-107877068D01*
X121207085Y-107877068D02*
X121149942Y-107877068D01*
X121149942Y-107877068D02*
X121092800Y-107905639D01*
X121092800Y-107905639D02*
X121064228Y-107934211D01*
X121064228Y-107934211D02*
X121035657Y-107991353D01*
X121035657Y-107991353D02*
X121007085Y-108105639D01*
X121007085Y-108105639D02*
X120978514Y-108162782D01*
X120978514Y-108162782D02*
X120949942Y-108191353D01*
X120949942Y-108191353D02*
X120892800Y-108219925D01*
X120892800Y-108219925D02*
X120835657Y-108219925D01*
X120835657Y-108219925D02*
X120778514Y-108191353D01*
X120778514Y-108191353D02*
X120749942Y-108162782D01*
X120749942Y-108162782D02*
X120721371Y-108105639D01*
X120721371Y-108105639D02*
X120721371Y-107962782D01*
X120721371Y-107962782D02*
X120749942Y-107877068D01*
X122949942Y-108577068D02*
X122921371Y-108634211D01*
X122921371Y-108634211D02*
X122921371Y-108719925D01*
X122921371Y-108719925D02*
X122949942Y-108805639D01*
X122949942Y-108805639D02*
X123007085Y-108862782D01*
X123007085Y-108862782D02*
X123064228Y-108891353D01*
X123064228Y-108891353D02*
X123178514Y-108919925D01*
X123178514Y-108919925D02*
X123264228Y-108919925D01*
X123264228Y-108919925D02*
X123378514Y-108891353D01*
X123378514Y-108891353D02*
X123435657Y-108862782D01*
X123435657Y-108862782D02*
X123492800Y-108805639D01*
X123492800Y-108805639D02*
X123521371Y-108719925D01*
X123521371Y-108719925D02*
X123521371Y-108662782D01*
X123521371Y-108662782D02*
X123492800Y-108577068D01*
X123492800Y-108577068D02*
X123464228Y-108548496D01*
X123464228Y-108548496D02*
X123264228Y-108548496D01*
X123264228Y-108548496D02*
X123264228Y-108662782D01*
X123521371Y-108291353D02*
X122921371Y-108291353D01*
X122921371Y-108291353D02*
X123521371Y-107948496D01*
X123521371Y-107948496D02*
X122921371Y-107948496D01*
X123521371Y-107662782D02*
X122921371Y-107662782D01*
X122921371Y-107662782D02*
X122921371Y-107519925D01*
X122921371Y-107519925D02*
X122949942Y-107434211D01*
X122949942Y-107434211D02*
X123007085Y-107377068D01*
X123007085Y-107377068D02*
X123064228Y-107348497D01*
X123064228Y-107348497D02*
X123178514Y-107319925D01*
X123178514Y-107319925D02*
X123264228Y-107319925D01*
X123264228Y-107319925D02*
X123378514Y-107348497D01*
X123378514Y-107348497D02*
X123435657Y-107377068D01*
X123435657Y-107377068D02*
X123492800Y-107434211D01*
X123492800Y-107434211D02*
X123521371Y-107519925D01*
X123521371Y-107519925D02*
X123521371Y-107662782D01*
X103532455Y-105809133D02*
X103532455Y-106375800D01*
X103532455Y-106375800D02*
X103565789Y-106442466D01*
X103565789Y-106442466D02*
X103599122Y-106475800D01*
X103599122Y-106475800D02*
X103665789Y-106509133D01*
X103665789Y-106509133D02*
X103799122Y-106509133D01*
X103799122Y-106509133D02*
X103865789Y-106475800D01*
X103865789Y-106475800D02*
X103899122Y-106442466D01*
X103899122Y-106442466D02*
X103932455Y-106375800D01*
X103932455Y-106375800D02*
X103932455Y-105809133D01*
X104232455Y-106475800D02*
X104332455Y-106509133D01*
X104332455Y-106509133D02*
X104499122Y-106509133D01*
X104499122Y-106509133D02*
X104565788Y-106475800D01*
X104565788Y-106475800D02*
X104599122Y-106442466D01*
X104599122Y-106442466D02*
X104632455Y-106375800D01*
X104632455Y-106375800D02*
X104632455Y-106309133D01*
X104632455Y-106309133D02*
X104599122Y-106242466D01*
X104599122Y-106242466D02*
X104565788Y-106209133D01*
X104565788Y-106209133D02*
X104499122Y-106175800D01*
X104499122Y-106175800D02*
X104365788Y-106142466D01*
X104365788Y-106142466D02*
X104299122Y-106109133D01*
X104299122Y-106109133D02*
X104265788Y-106075800D01*
X104265788Y-106075800D02*
X104232455Y-106009133D01*
X104232455Y-106009133D02*
X104232455Y-105942466D01*
X104232455Y-105942466D02*
X104265788Y-105875800D01*
X104265788Y-105875800D02*
X104299122Y-105842466D01*
X104299122Y-105842466D02*
X104365788Y-105809133D01*
X104365788Y-105809133D02*
X104532455Y-105809133D01*
X104532455Y-105809133D02*
X104632455Y-105842466D01*
X104932455Y-106142466D02*
X105165789Y-106142466D01*
X105265789Y-106509133D02*
X104932455Y-106509133D01*
X104932455Y-106509133D02*
X104932455Y-105809133D01*
X104932455Y-105809133D02*
X105265789Y-105809133D01*
X105965788Y-106509133D02*
X105732455Y-106175800D01*
X105565788Y-106509133D02*
X105565788Y-105809133D01*
X105565788Y-105809133D02*
X105832455Y-105809133D01*
X105832455Y-105809133D02*
X105899122Y-105842466D01*
X105899122Y-105842466D02*
X105932455Y-105875800D01*
X105932455Y-105875800D02*
X105965788Y-105942466D01*
X105965788Y-105942466D02*
X105965788Y-106042466D01*
X105965788Y-106042466D02*
X105932455Y-106109133D01*
X105932455Y-106109133D02*
X105899122Y-106142466D01*
X105899122Y-106142466D02*
X105832455Y-106175800D01*
X105832455Y-106175800D02*
X105565788Y-106175800D01*
X107009133Y-112567544D02*
X106309133Y-112567544D01*
X106309133Y-112567544D02*
X106309133Y-112300877D01*
X106309133Y-112300877D02*
X106342466Y-112234211D01*
X106342466Y-112234211D02*
X106375800Y-112200877D01*
X106375800Y-112200877D02*
X106442466Y-112167544D01*
X106442466Y-112167544D02*
X106542466Y-112167544D01*
X106542466Y-112167544D02*
X106609133Y-112200877D01*
X106609133Y-112200877D02*
X106642466Y-112234211D01*
X106642466Y-112234211D02*
X106675800Y-112300877D01*
X106675800Y-112300877D02*
X106675800Y-112567544D01*
X106309133Y-111934211D02*
X107009133Y-111767544D01*
X107009133Y-111767544D02*
X106509133Y-111634211D01*
X106509133Y-111634211D02*
X107009133Y-111500877D01*
X107009133Y-111500877D02*
X106309133Y-111334211D01*
X107009133Y-110667544D02*
X106675800Y-110900877D01*
X107009133Y-111067544D02*
X106309133Y-111067544D01*
X106309133Y-111067544D02*
X106309133Y-110800877D01*
X106309133Y-110800877D02*
X106342466Y-110734211D01*
X106342466Y-110734211D02*
X106375800Y-110700877D01*
X106375800Y-110700877D02*
X106442466Y-110667544D01*
X106442466Y-110667544D02*
X106542466Y-110667544D01*
X106542466Y-110667544D02*
X106609133Y-110700877D01*
X106609133Y-110700877D02*
X106642466Y-110734211D01*
X106642466Y-110734211D02*
X106675800Y-110800877D01*
X106675800Y-110800877D02*
X106675800Y-111067544D01*
X119456265Y-74596895D02*
X119456265Y-75244514D01*
X119456265Y-75244514D02*
X119494360Y-75320704D01*
X119494360Y-75320704D02*
X119532455Y-75358800D01*
X119532455Y-75358800D02*
X119608646Y-75396895D01*
X119608646Y-75396895D02*
X119761027Y-75396895D01*
X119761027Y-75396895D02*
X119837217Y-75358800D01*
X119837217Y-75358800D02*
X119875312Y-75320704D01*
X119875312Y-75320704D02*
X119913408Y-75244514D01*
X119913408Y-75244514D02*
X119913408Y-74596895D01*
X120256264Y-75358800D02*
X120370550Y-75396895D01*
X120370550Y-75396895D02*
X120561026Y-75396895D01*
X120561026Y-75396895D02*
X120637217Y-75358800D01*
X120637217Y-75358800D02*
X120675312Y-75320704D01*
X120675312Y-75320704D02*
X120713407Y-75244514D01*
X120713407Y-75244514D02*
X120713407Y-75168323D01*
X120713407Y-75168323D02*
X120675312Y-75092133D01*
X120675312Y-75092133D02*
X120637217Y-75054038D01*
X120637217Y-75054038D02*
X120561026Y-75015942D01*
X120561026Y-75015942D02*
X120408645Y-74977847D01*
X120408645Y-74977847D02*
X120332455Y-74939752D01*
X120332455Y-74939752D02*
X120294360Y-74901657D01*
X120294360Y-74901657D02*
X120256264Y-74825466D01*
X120256264Y-74825466D02*
X120256264Y-74749276D01*
X120256264Y-74749276D02*
X120294360Y-74673085D01*
X120294360Y-74673085D02*
X120332455Y-74634990D01*
X120332455Y-74634990D02*
X120408645Y-74596895D01*
X120408645Y-74596895D02*
X120599122Y-74596895D01*
X120599122Y-74596895D02*
X120713407Y-74634990D01*
X121056265Y-74977847D02*
X121322931Y-74977847D01*
X121437217Y-75396895D02*
X121056265Y-75396895D01*
X121056265Y-75396895D02*
X121056265Y-74596895D01*
X121056265Y-74596895D02*
X121437217Y-74596895D01*
X122237218Y-75396895D02*
X121970551Y-75015942D01*
X121780075Y-75396895D02*
X121780075Y-74596895D01*
X121780075Y-74596895D02*
X122084837Y-74596895D01*
X122084837Y-74596895D02*
X122161027Y-74634990D01*
X122161027Y-74634990D02*
X122199122Y-74673085D01*
X122199122Y-74673085D02*
X122237218Y-74749276D01*
X122237218Y-74749276D02*
X122237218Y-74863561D01*
X122237218Y-74863561D02*
X122199122Y-74939752D01*
X122199122Y-74939752D02*
X122161027Y-74977847D01*
X122161027Y-74977847D02*
X122084837Y-75015942D01*
X122084837Y-75015942D02*
X121780075Y-75015942D01*
X137396895Y-79286591D02*
X137015942Y-79553258D01*
X137396895Y-79743734D02*
X136596895Y-79743734D01*
X136596895Y-79743734D02*
X136596895Y-79438972D01*
X136596895Y-79438972D02*
X136634990Y-79362782D01*
X136634990Y-79362782D02*
X136673085Y-79324687D01*
X136673085Y-79324687D02*
X136749276Y-79286591D01*
X136749276Y-79286591D02*
X136863561Y-79286591D01*
X136863561Y-79286591D02*
X136939752Y-79324687D01*
X136939752Y-79324687D02*
X136977847Y-79362782D01*
X136977847Y-79362782D02*
X137015942Y-79438972D01*
X137015942Y-79438972D02*
X137015942Y-79743734D01*
X136977847Y-78943734D02*
X136977847Y-78677068D01*
X137396895Y-78562782D02*
X137396895Y-78943734D01*
X137396895Y-78943734D02*
X136596895Y-78943734D01*
X136596895Y-78943734D02*
X136596895Y-78562782D01*
X137358800Y-78258020D02*
X137396895Y-78143734D01*
X137396895Y-78143734D02*
X137396895Y-77953258D01*
X137396895Y-77953258D02*
X137358800Y-77877067D01*
X137358800Y-77877067D02*
X137320704Y-77838972D01*
X137320704Y-77838972D02*
X137244514Y-77800877D01*
X137244514Y-77800877D02*
X137168323Y-77800877D01*
X137168323Y-77800877D02*
X137092133Y-77838972D01*
X137092133Y-77838972D02*
X137054038Y-77877067D01*
X137054038Y-77877067D02*
X137015942Y-77953258D01*
X137015942Y-77953258D02*
X136977847Y-78105639D01*
X136977847Y-78105639D02*
X136939752Y-78181829D01*
X136939752Y-78181829D02*
X136901657Y-78219924D01*
X136901657Y-78219924D02*
X136825466Y-78258020D01*
X136825466Y-78258020D02*
X136749276Y-78258020D01*
X136749276Y-78258020D02*
X136673085Y-78219924D01*
X136673085Y-78219924D02*
X136634990Y-78181829D01*
X136634990Y-78181829D02*
X136596895Y-78105639D01*
X136596895Y-78105639D02*
X136596895Y-77915162D01*
X136596895Y-77915162D02*
X136634990Y-77800877D01*
X136977847Y-77458019D02*
X136977847Y-77191353D01*
X137396895Y-77077067D02*
X137396895Y-77458019D01*
X137396895Y-77458019D02*
X136596895Y-77458019D01*
X136596895Y-77458019D02*
X136596895Y-77077067D01*
X136596895Y-76848495D02*
X136596895Y-76391352D01*
X137396895Y-76619924D02*
X136596895Y-76619924D01*
X113237217Y-91524800D02*
X113365789Y-91572419D01*
X113365789Y-91572419D02*
X113580074Y-91572419D01*
X113580074Y-91572419D02*
X113665789Y-91524800D01*
X113665789Y-91524800D02*
X113708646Y-91477180D01*
X113708646Y-91477180D02*
X113751503Y-91381942D01*
X113751503Y-91381942D02*
X113751503Y-91286704D01*
X113751503Y-91286704D02*
X113708646Y-91191466D01*
X113708646Y-91191466D02*
X113665789Y-91143847D01*
X113665789Y-91143847D02*
X113580074Y-91096228D01*
X113580074Y-91096228D02*
X113408646Y-91048609D01*
X113408646Y-91048609D02*
X113322931Y-91000990D01*
X113322931Y-91000990D02*
X113280074Y-90953371D01*
X113280074Y-90953371D02*
X113237217Y-90858133D01*
X113237217Y-90858133D02*
X113237217Y-90762895D01*
X113237217Y-90762895D02*
X113280074Y-90667657D01*
X113280074Y-90667657D02*
X113322931Y-90620038D01*
X113322931Y-90620038D02*
X113408646Y-90572419D01*
X113408646Y-90572419D02*
X113622931Y-90572419D01*
X113622931Y-90572419D02*
X113751503Y-90620038D01*
X114008646Y-90572419D02*
X114522932Y-90572419D01*
X114265789Y-91572419D02*
X114265789Y-90572419D01*
X114822931Y-91572419D02*
X114822931Y-90572419D01*
X114822931Y-90572419D02*
X115122931Y-91286704D01*
X115122931Y-91286704D02*
X115422931Y-90572419D01*
X115422931Y-90572419D02*
X115422931Y-91572419D01*
X115765788Y-90572419D02*
X116322931Y-90572419D01*
X116322931Y-90572419D02*
X116022931Y-90953371D01*
X116022931Y-90953371D02*
X116151502Y-90953371D01*
X116151502Y-90953371D02*
X116237217Y-91000990D01*
X116237217Y-91000990D02*
X116280074Y-91048609D01*
X116280074Y-91048609D02*
X116322931Y-91143847D01*
X116322931Y-91143847D02*
X116322931Y-91381942D01*
X116322931Y-91381942D02*
X116280074Y-91477180D01*
X116280074Y-91477180D02*
X116237217Y-91524800D01*
X116237217Y-91524800D02*
X116151502Y-91572419D01*
X116151502Y-91572419D02*
X115894359Y-91572419D01*
X115894359Y-91572419D02*
X115808645Y-91524800D01*
X115808645Y-91524800D02*
X115765788Y-91477180D01*
X116665788Y-90667657D02*
X116708645Y-90620038D01*
X116708645Y-90620038D02*
X116794360Y-90572419D01*
X116794360Y-90572419D02*
X117008645Y-90572419D01*
X117008645Y-90572419D02*
X117094360Y-90620038D01*
X117094360Y-90620038D02*
X117137217Y-90667657D01*
X117137217Y-90667657D02*
X117180074Y-90762895D01*
X117180074Y-90762895D02*
X117180074Y-90858133D01*
X117180074Y-90858133D02*
X117137217Y-91000990D01*
X117137217Y-91000990D02*
X116622931Y-91572419D01*
X116622931Y-91572419D02*
X117180074Y-91572419D01*
X117865788Y-91048609D02*
X117565788Y-91048609D01*
X117565788Y-91572419D02*
X117565788Y-90572419D01*
X117565788Y-90572419D02*
X117994360Y-90572419D01*
X118722932Y-90905752D02*
X118722932Y-91572419D01*
X118508646Y-90524800D02*
X118294360Y-91239085D01*
X118294360Y-91239085D02*
X118851503Y-91239085D01*
X119365789Y-90572419D02*
X119451503Y-90572419D01*
X119451503Y-90572419D02*
X119537217Y-90620038D01*
X119537217Y-90620038D02*
X119580075Y-90667657D01*
X119580075Y-90667657D02*
X119622932Y-90762895D01*
X119622932Y-90762895D02*
X119665789Y-90953371D01*
X119665789Y-90953371D02*
X119665789Y-91191466D01*
X119665789Y-91191466D02*
X119622932Y-91381942D01*
X119622932Y-91381942D02*
X119580075Y-91477180D01*
X119580075Y-91477180D02*
X119537217Y-91524800D01*
X119537217Y-91524800D02*
X119451503Y-91572419D01*
X119451503Y-91572419D02*
X119365789Y-91572419D01*
X119365789Y-91572419D02*
X119280075Y-91524800D01*
X119280075Y-91524800D02*
X119237217Y-91477180D01*
X119237217Y-91477180D02*
X119194360Y-91381942D01*
X119194360Y-91381942D02*
X119151503Y-91191466D01*
X119151503Y-91191466D02*
X119151503Y-90953371D01*
X119151503Y-90953371D02*
X119194360Y-90762895D01*
X119194360Y-90762895D02*
X119237217Y-90667657D01*
X119237217Y-90667657D02*
X119280075Y-90620038D01*
X119280075Y-90620038D02*
X119365789Y-90572419D01*
X120522932Y-91572419D02*
X120008646Y-91572419D01*
X120265789Y-91572419D02*
X120265789Y-90572419D01*
X120265789Y-90572419D02*
X120180075Y-90715276D01*
X120180075Y-90715276D02*
X120094360Y-90810514D01*
X120094360Y-90810514D02*
X120008646Y-90858133D01*
X121422932Y-91572419D02*
X121122932Y-91096228D01*
X120908646Y-91572419D02*
X120908646Y-90572419D01*
X120908646Y-90572419D02*
X121251503Y-90572419D01*
X121251503Y-90572419D02*
X121337218Y-90620038D01*
X121337218Y-90620038D02*
X121380075Y-90667657D01*
X121380075Y-90667657D02*
X121422932Y-90762895D01*
X121422932Y-90762895D02*
X121422932Y-90905752D01*
X121422932Y-90905752D02*
X121380075Y-91000990D01*
X121380075Y-91000990D02*
X121337218Y-91048609D01*
X121337218Y-91048609D02*
X121251503Y-91096228D01*
X121251503Y-91096228D02*
X120908646Y-91096228D01*
X121808646Y-91048609D02*
X122108646Y-91048609D01*
X122237218Y-91572419D02*
X121808646Y-91572419D01*
X121808646Y-91572419D02*
X121808646Y-90572419D01*
X121808646Y-90572419D02*
X122237218Y-90572419D01*
X96590800Y-100715163D02*
X96647942Y-100550877D01*
X96647942Y-100550877D02*
X96647942Y-100277068D01*
X96647942Y-100277068D02*
X96590800Y-100167544D01*
X96590800Y-100167544D02*
X96533657Y-100112782D01*
X96533657Y-100112782D02*
X96419371Y-100058020D01*
X96419371Y-100058020D02*
X96305085Y-100058020D01*
X96305085Y-100058020D02*
X96190800Y-100112782D01*
X96190800Y-100112782D02*
X96133657Y-100167544D01*
X96133657Y-100167544D02*
X96076514Y-100277068D01*
X96076514Y-100277068D02*
X96019371Y-100496115D01*
X96019371Y-100496115D02*
X95962228Y-100605639D01*
X95962228Y-100605639D02*
X95905085Y-100660401D01*
X95905085Y-100660401D02*
X95790800Y-100715163D01*
X95790800Y-100715163D02*
X95676514Y-100715163D01*
X95676514Y-100715163D02*
X95562228Y-100660401D01*
X95562228Y-100660401D02*
X95505085Y-100605639D01*
X95505085Y-100605639D02*
X95447942Y-100496115D01*
X95447942Y-100496115D02*
X95447942Y-100222306D01*
X95447942Y-100222306D02*
X95505085Y-100058020D01*
X95447942Y-99729449D02*
X95447942Y-99072306D01*
X96647942Y-99400877D02*
X95447942Y-99400877D01*
X96647942Y-98688973D02*
X95447942Y-98688973D01*
X95447942Y-98688973D02*
X96305085Y-98305640D01*
X96305085Y-98305640D02*
X95447942Y-97922306D01*
X95447942Y-97922306D02*
X96647942Y-97922306D01*
X95447942Y-97484211D02*
X95447942Y-96772306D01*
X95447942Y-96772306D02*
X95905085Y-97155639D01*
X95905085Y-97155639D02*
X95905085Y-96991354D01*
X95905085Y-96991354D02*
X95962228Y-96881830D01*
X95962228Y-96881830D02*
X96019371Y-96827068D01*
X96019371Y-96827068D02*
X96133657Y-96772306D01*
X96133657Y-96772306D02*
X96419371Y-96772306D01*
X96419371Y-96772306D02*
X96533657Y-96827068D01*
X96533657Y-96827068D02*
X96590800Y-96881830D01*
X96590800Y-96881830D02*
X96647942Y-96991354D01*
X96647942Y-96991354D02*
X96647942Y-97319925D01*
X96647942Y-97319925D02*
X96590800Y-97429449D01*
X96590800Y-97429449D02*
X96533657Y-97484211D01*
X95562228Y-96334211D02*
X95505085Y-96279449D01*
X95505085Y-96279449D02*
X95447942Y-96169925D01*
X95447942Y-96169925D02*
X95447942Y-95896116D01*
X95447942Y-95896116D02*
X95505085Y-95786592D01*
X95505085Y-95786592D02*
X95562228Y-95731830D01*
X95562228Y-95731830D02*
X95676514Y-95677068D01*
X95676514Y-95677068D02*
X95790800Y-95677068D01*
X95790800Y-95677068D02*
X95962228Y-95731830D01*
X95962228Y-95731830D02*
X96647942Y-96388973D01*
X96647942Y-96388973D02*
X96647942Y-95677068D01*
X96305085Y-95238973D02*
X96305085Y-94691354D01*
X96647942Y-95348497D02*
X95447942Y-94965163D01*
X95447942Y-94965163D02*
X96647942Y-94581830D01*
X96647942Y-94308021D02*
X95847942Y-93705640D01*
X95847942Y-94308021D02*
X96647942Y-93705640D01*
X96647942Y-93267545D02*
X95847942Y-93267545D01*
X95447942Y-93267545D02*
X95505085Y-93322307D01*
X95505085Y-93322307D02*
X95562228Y-93267545D01*
X95562228Y-93267545D02*
X95505085Y-93212783D01*
X95505085Y-93212783D02*
X95447942Y-93267545D01*
X95447942Y-93267545D02*
X95562228Y-93267545D01*
X96590800Y-92774688D02*
X96647942Y-92665164D01*
X96647942Y-92665164D02*
X96647942Y-92446116D01*
X96647942Y-92446116D02*
X96590800Y-92336593D01*
X96590800Y-92336593D02*
X96476514Y-92281831D01*
X96476514Y-92281831D02*
X96419371Y-92281831D01*
X96419371Y-92281831D02*
X96305085Y-92336593D01*
X96305085Y-92336593D02*
X96247942Y-92446116D01*
X96247942Y-92446116D02*
X96247942Y-92610402D01*
X96247942Y-92610402D02*
X96190800Y-92719926D01*
X96190800Y-92719926D02*
X96076514Y-92774688D01*
X96076514Y-92774688D02*
X96019371Y-92774688D01*
X96019371Y-92774688D02*
X95905085Y-92719926D01*
X95905085Y-92719926D02*
X95847942Y-92610402D01*
X95847942Y-92610402D02*
X95847942Y-92446116D01*
X95847942Y-92446116D02*
X95905085Y-92336593D01*
X96647942Y-90912784D02*
X95447942Y-90912784D01*
X95447942Y-90912784D02*
X95447942Y-90638974D01*
X95447942Y-90638974D02*
X95505085Y-90474689D01*
X95505085Y-90474689D02*
X95619371Y-90365165D01*
X95619371Y-90365165D02*
X95733657Y-90310403D01*
X95733657Y-90310403D02*
X95962228Y-90255641D01*
X95962228Y-90255641D02*
X96133657Y-90255641D01*
X96133657Y-90255641D02*
X96362228Y-90310403D01*
X96362228Y-90310403D02*
X96476514Y-90365165D01*
X96476514Y-90365165D02*
X96590800Y-90474689D01*
X96590800Y-90474689D02*
X96647942Y-90638974D01*
X96647942Y-90638974D02*
X96647942Y-90912784D01*
X96019371Y-89762784D02*
X96019371Y-89379451D01*
X96647942Y-89215165D02*
X96647942Y-89762784D01*
X96647942Y-89762784D02*
X95447942Y-89762784D01*
X95447942Y-89762784D02*
X95447942Y-89215165D01*
X95447942Y-88886594D02*
X96647942Y-88503260D01*
X96647942Y-88503260D02*
X95447942Y-88119927D01*
X96019371Y-86477071D02*
X96076514Y-86312785D01*
X96076514Y-86312785D02*
X96133657Y-86258023D01*
X96133657Y-86258023D02*
X96247942Y-86203261D01*
X96247942Y-86203261D02*
X96419371Y-86203261D01*
X96419371Y-86203261D02*
X96533657Y-86258023D01*
X96533657Y-86258023D02*
X96590800Y-86312785D01*
X96590800Y-86312785D02*
X96647942Y-86422309D01*
X96647942Y-86422309D02*
X96647942Y-86860404D01*
X96647942Y-86860404D02*
X95447942Y-86860404D01*
X95447942Y-86860404D02*
X95447942Y-86477071D01*
X95447942Y-86477071D02*
X95505085Y-86367547D01*
X95505085Y-86367547D02*
X95562228Y-86312785D01*
X95562228Y-86312785D02*
X95676514Y-86258023D01*
X95676514Y-86258023D02*
X95790800Y-86258023D01*
X95790800Y-86258023D02*
X95905085Y-86312785D01*
X95905085Y-86312785D02*
X95962228Y-86367547D01*
X95962228Y-86367547D02*
X96019371Y-86477071D01*
X96019371Y-86477071D02*
X96019371Y-86860404D01*
X95447942Y-85491356D02*
X95447942Y-85272309D01*
X95447942Y-85272309D02*
X95505085Y-85162785D01*
X95505085Y-85162785D02*
X95619371Y-85053261D01*
X95619371Y-85053261D02*
X95847942Y-84998499D01*
X95847942Y-84998499D02*
X96247942Y-84998499D01*
X96247942Y-84998499D02*
X96476514Y-85053261D01*
X96476514Y-85053261D02*
X96590800Y-85162785D01*
X96590800Y-85162785D02*
X96647942Y-85272309D01*
X96647942Y-85272309D02*
X96647942Y-85491356D01*
X96647942Y-85491356D02*
X96590800Y-85600880D01*
X96590800Y-85600880D02*
X96476514Y-85710404D01*
X96476514Y-85710404D02*
X96247942Y-85765166D01*
X96247942Y-85765166D02*
X95847942Y-85765166D01*
X95847942Y-85765166D02*
X95619371Y-85710404D01*
X95619371Y-85710404D02*
X95505085Y-85600880D01*
X95505085Y-85600880D02*
X95447942Y-85491356D01*
X96305085Y-84560404D02*
X96305085Y-84012785D01*
X96647942Y-84669928D02*
X95447942Y-84286594D01*
X95447942Y-84286594D02*
X96647942Y-83903261D01*
X96647942Y-82862785D02*
X96076514Y-83246118D01*
X96647942Y-83519928D02*
X95447942Y-83519928D01*
X95447942Y-83519928D02*
X95447942Y-83081833D01*
X95447942Y-83081833D02*
X95505085Y-82972309D01*
X95505085Y-82972309D02*
X95562228Y-82917547D01*
X95562228Y-82917547D02*
X95676514Y-82862785D01*
X95676514Y-82862785D02*
X95847942Y-82862785D01*
X95847942Y-82862785D02*
X95962228Y-82917547D01*
X95962228Y-82917547D02*
X96019371Y-82972309D01*
X96019371Y-82972309D02*
X96076514Y-83081833D01*
X96076514Y-83081833D02*
X96076514Y-83519928D01*
X96647942Y-82369928D02*
X95447942Y-82369928D01*
X95447942Y-82369928D02*
X95447942Y-82096118D01*
X95447942Y-82096118D02*
X95505085Y-81931833D01*
X95505085Y-81931833D02*
X95619371Y-81822309D01*
X95619371Y-81822309D02*
X95733657Y-81767547D01*
X95733657Y-81767547D02*
X95962228Y-81712785D01*
X95962228Y-81712785D02*
X96133657Y-81712785D01*
X96133657Y-81712785D02*
X96362228Y-81767547D01*
X96362228Y-81767547D02*
X96476514Y-81822309D01*
X96476514Y-81822309D02*
X96590800Y-81931833D01*
X96590800Y-81931833D02*
X96647942Y-82096118D01*
X96647942Y-82096118D02*
X96647942Y-82369928D01*
D12*
X117366667Y-105186104D02*
X117328571Y-105224200D01*
X117328571Y-105224200D02*
X117214286Y-105262295D01*
X117214286Y-105262295D02*
X117138095Y-105262295D01*
X117138095Y-105262295D02*
X117023809Y-105224200D01*
X117023809Y-105224200D02*
X116947619Y-105148009D01*
X116947619Y-105148009D02*
X116909524Y-105071819D01*
X116909524Y-105071819D02*
X116871428Y-104919438D01*
X116871428Y-104919438D02*
X116871428Y-104805152D01*
X116871428Y-104805152D02*
X116909524Y-104652771D01*
X116909524Y-104652771D02*
X116947619Y-104576580D01*
X116947619Y-104576580D02*
X117023809Y-104500390D01*
X117023809Y-104500390D02*
X117138095Y-104462295D01*
X117138095Y-104462295D02*
X117214286Y-104462295D01*
X117214286Y-104462295D02*
X117328571Y-104500390D01*
X117328571Y-104500390D02*
X117366667Y-104538485D01*
X118090476Y-104462295D02*
X117709524Y-104462295D01*
X117709524Y-104462295D02*
X117671428Y-104843247D01*
X117671428Y-104843247D02*
X117709524Y-104805152D01*
X117709524Y-104805152D02*
X117785714Y-104767057D01*
X117785714Y-104767057D02*
X117976190Y-104767057D01*
X117976190Y-104767057D02*
X118052381Y-104805152D01*
X118052381Y-104805152D02*
X118090476Y-104843247D01*
X118090476Y-104843247D02*
X118128571Y-104919438D01*
X118128571Y-104919438D02*
X118128571Y-105109914D01*
X118128571Y-105109914D02*
X118090476Y-105186104D01*
X118090476Y-105186104D02*
X118052381Y-105224200D01*
X118052381Y-105224200D02*
X117976190Y-105262295D01*
X117976190Y-105262295D02*
X117785714Y-105262295D01*
X117785714Y-105262295D02*
X117709524Y-105224200D01*
X117709524Y-105224200D02*
X117671428Y-105186104D01*
X133586104Y-102033332D02*
X133624200Y-102071428D01*
X133624200Y-102071428D02*
X133662295Y-102185713D01*
X133662295Y-102185713D02*
X133662295Y-102261904D01*
X133662295Y-102261904D02*
X133624200Y-102376190D01*
X133624200Y-102376190D02*
X133548009Y-102452380D01*
X133548009Y-102452380D02*
X133471819Y-102490475D01*
X133471819Y-102490475D02*
X133319438Y-102528571D01*
X133319438Y-102528571D02*
X133205152Y-102528571D01*
X133205152Y-102528571D02*
X133052771Y-102490475D01*
X133052771Y-102490475D02*
X132976580Y-102452380D01*
X132976580Y-102452380D02*
X132900390Y-102376190D01*
X132900390Y-102376190D02*
X132862295Y-102261904D01*
X132862295Y-102261904D02*
X132862295Y-102185713D01*
X132862295Y-102185713D02*
X132900390Y-102071428D01*
X132900390Y-102071428D02*
X132938485Y-102033332D01*
X133662295Y-101271428D02*
X133662295Y-101728571D01*
X133662295Y-101499999D02*
X132862295Y-101499999D01*
X132862295Y-101499999D02*
X132976580Y-101576190D01*
X132976580Y-101576190D02*
X133052771Y-101652380D01*
X133052771Y-101652380D02*
X133090866Y-101728571D01*
X116486104Y-85914285D02*
X116524200Y-85952381D01*
X116524200Y-85952381D02*
X116562295Y-86066666D01*
X116562295Y-86066666D02*
X116562295Y-86142857D01*
X116562295Y-86142857D02*
X116524200Y-86257143D01*
X116524200Y-86257143D02*
X116448009Y-86333333D01*
X116448009Y-86333333D02*
X116371819Y-86371428D01*
X116371819Y-86371428D02*
X116219438Y-86409524D01*
X116219438Y-86409524D02*
X116105152Y-86409524D01*
X116105152Y-86409524D02*
X115952771Y-86371428D01*
X115952771Y-86371428D02*
X115876580Y-86333333D01*
X115876580Y-86333333D02*
X115800390Y-86257143D01*
X115800390Y-86257143D02*
X115762295Y-86142857D01*
X115762295Y-86142857D02*
X115762295Y-86066666D01*
X115762295Y-86066666D02*
X115800390Y-85952381D01*
X115800390Y-85952381D02*
X115838485Y-85914285D01*
X116562295Y-85152381D02*
X116562295Y-85609524D01*
X116562295Y-85380952D02*
X115762295Y-85380952D01*
X115762295Y-85380952D02*
X115876580Y-85457143D01*
X115876580Y-85457143D02*
X115952771Y-85533333D01*
X115952771Y-85533333D02*
X115990866Y-85609524D01*
X115762295Y-84657142D02*
X115762295Y-84580952D01*
X115762295Y-84580952D02*
X115800390Y-84504761D01*
X115800390Y-84504761D02*
X115838485Y-84466666D01*
X115838485Y-84466666D02*
X115914676Y-84428571D01*
X115914676Y-84428571D02*
X116067057Y-84390476D01*
X116067057Y-84390476D02*
X116257533Y-84390476D01*
X116257533Y-84390476D02*
X116409914Y-84428571D01*
X116409914Y-84428571D02*
X116486104Y-84466666D01*
X116486104Y-84466666D02*
X116524200Y-84504761D01*
X116524200Y-84504761D02*
X116562295Y-84580952D01*
X116562295Y-84580952D02*
X116562295Y-84657142D01*
X116562295Y-84657142D02*
X116524200Y-84733333D01*
X116524200Y-84733333D02*
X116486104Y-84771428D01*
X116486104Y-84771428D02*
X116409914Y-84809523D01*
X116409914Y-84809523D02*
X116257533Y-84847619D01*
X116257533Y-84847619D02*
X116067057Y-84847619D01*
X116067057Y-84847619D02*
X115914676Y-84809523D01*
X115914676Y-84809523D02*
X115838485Y-84771428D01*
X115838485Y-84771428D02*
X115800390Y-84733333D01*
X115800390Y-84733333D02*
X115762295Y-84657142D01*
X136216667Y-100786104D02*
X136178571Y-100824200D01*
X136178571Y-100824200D02*
X136064286Y-100862295D01*
X136064286Y-100862295D02*
X135988095Y-100862295D01*
X135988095Y-100862295D02*
X135873809Y-100824200D01*
X135873809Y-100824200D02*
X135797619Y-100748009D01*
X135797619Y-100748009D02*
X135759524Y-100671819D01*
X135759524Y-100671819D02*
X135721428Y-100519438D01*
X135721428Y-100519438D02*
X135721428Y-100405152D01*
X135721428Y-100405152D02*
X135759524Y-100252771D01*
X135759524Y-100252771D02*
X135797619Y-100176580D01*
X135797619Y-100176580D02*
X135873809Y-100100390D01*
X135873809Y-100100390D02*
X135988095Y-100062295D01*
X135988095Y-100062295D02*
X136064286Y-100062295D01*
X136064286Y-100062295D02*
X136178571Y-100100390D01*
X136178571Y-100100390D02*
X136216667Y-100138485D01*
X136521428Y-100138485D02*
X136559524Y-100100390D01*
X136559524Y-100100390D02*
X136635714Y-100062295D01*
X136635714Y-100062295D02*
X136826190Y-100062295D01*
X136826190Y-100062295D02*
X136902381Y-100100390D01*
X136902381Y-100100390D02*
X136940476Y-100138485D01*
X136940476Y-100138485D02*
X136978571Y-100214676D01*
X136978571Y-100214676D02*
X136978571Y-100290866D01*
X136978571Y-100290866D02*
X136940476Y-100405152D01*
X136940476Y-100405152D02*
X136483333Y-100862295D01*
X136483333Y-100862295D02*
X136978571Y-100862295D01*
X124890476Y-93862295D02*
X124890476Y-94509914D01*
X124890476Y-94509914D02*
X124928571Y-94586104D01*
X124928571Y-94586104D02*
X124966666Y-94624200D01*
X124966666Y-94624200D02*
X125042857Y-94662295D01*
X125042857Y-94662295D02*
X125195238Y-94662295D01*
X125195238Y-94662295D02*
X125271428Y-94624200D01*
X125271428Y-94624200D02*
X125309523Y-94586104D01*
X125309523Y-94586104D02*
X125347619Y-94509914D01*
X125347619Y-94509914D02*
X125347619Y-93862295D01*
X126147618Y-94662295D02*
X125690475Y-94662295D01*
X125919047Y-94662295D02*
X125919047Y-93862295D01*
X125919047Y-93862295D02*
X125842856Y-93976580D01*
X125842856Y-93976580D02*
X125766666Y-94052771D01*
X125766666Y-94052771D02*
X125690475Y-94090866D01*
X119885714Y-104486104D02*
X119847618Y-104524200D01*
X119847618Y-104524200D02*
X119733333Y-104562295D01*
X119733333Y-104562295D02*
X119657142Y-104562295D01*
X119657142Y-104562295D02*
X119542856Y-104524200D01*
X119542856Y-104524200D02*
X119466666Y-104448009D01*
X119466666Y-104448009D02*
X119428571Y-104371819D01*
X119428571Y-104371819D02*
X119390475Y-104219438D01*
X119390475Y-104219438D02*
X119390475Y-104105152D01*
X119390475Y-104105152D02*
X119428571Y-103952771D01*
X119428571Y-103952771D02*
X119466666Y-103876580D01*
X119466666Y-103876580D02*
X119542856Y-103800390D01*
X119542856Y-103800390D02*
X119657142Y-103762295D01*
X119657142Y-103762295D02*
X119733333Y-103762295D01*
X119733333Y-103762295D02*
X119847618Y-103800390D01*
X119847618Y-103800390D02*
X119885714Y-103838485D01*
X120647618Y-104562295D02*
X120190475Y-104562295D01*
X120419047Y-104562295D02*
X120419047Y-103762295D01*
X120419047Y-103762295D02*
X120342856Y-103876580D01*
X120342856Y-103876580D02*
X120266666Y-103952771D01*
X120266666Y-103952771D02*
X120190475Y-103990866D01*
X121409523Y-104562295D02*
X120952380Y-104562295D01*
X121180952Y-104562295D02*
X121180952Y-103762295D01*
X121180952Y-103762295D02*
X121104761Y-103876580D01*
X121104761Y-103876580D02*
X121028571Y-103952771D01*
X121028571Y-103952771D02*
X120952380Y-103990866D01*
X126086104Y-99933332D02*
X126124200Y-99971428D01*
X126124200Y-99971428D02*
X126162295Y-100085713D01*
X126162295Y-100085713D02*
X126162295Y-100161904D01*
X126162295Y-100161904D02*
X126124200Y-100276190D01*
X126124200Y-100276190D02*
X126048009Y-100352380D01*
X126048009Y-100352380D02*
X125971819Y-100390475D01*
X125971819Y-100390475D02*
X125819438Y-100428571D01*
X125819438Y-100428571D02*
X125705152Y-100428571D01*
X125705152Y-100428571D02*
X125552771Y-100390475D01*
X125552771Y-100390475D02*
X125476580Y-100352380D01*
X125476580Y-100352380D02*
X125400390Y-100276190D01*
X125400390Y-100276190D02*
X125362295Y-100161904D01*
X125362295Y-100161904D02*
X125362295Y-100085713D01*
X125362295Y-100085713D02*
X125400390Y-99971428D01*
X125400390Y-99971428D02*
X125438485Y-99933332D01*
X125362295Y-99666666D02*
X125362295Y-99133332D01*
X125362295Y-99133332D02*
X126162295Y-99476190D01*
X124790476Y-107162295D02*
X124790476Y-107809914D01*
X124790476Y-107809914D02*
X124828571Y-107886104D01*
X124828571Y-107886104D02*
X124866666Y-107924200D01*
X124866666Y-107924200D02*
X124942857Y-107962295D01*
X124942857Y-107962295D02*
X125095238Y-107962295D01*
X125095238Y-107962295D02*
X125171428Y-107924200D01*
X125171428Y-107924200D02*
X125209523Y-107886104D01*
X125209523Y-107886104D02*
X125247619Y-107809914D01*
X125247619Y-107809914D02*
X125247619Y-107162295D01*
X125590475Y-107238485D02*
X125628571Y-107200390D01*
X125628571Y-107200390D02*
X125704761Y-107162295D01*
X125704761Y-107162295D02*
X125895237Y-107162295D01*
X125895237Y-107162295D02*
X125971428Y-107200390D01*
X125971428Y-107200390D02*
X126009523Y-107238485D01*
X126009523Y-107238485D02*
X126047618Y-107314676D01*
X126047618Y-107314676D02*
X126047618Y-107390866D01*
X126047618Y-107390866D02*
X126009523Y-107505152D01*
X126009523Y-107505152D02*
X125552380Y-107962295D01*
X125552380Y-107962295D02*
X126047618Y-107962295D01*
X130554167Y-85062295D02*
X130287500Y-84681342D01*
X130097024Y-85062295D02*
X130097024Y-84262295D01*
X130097024Y-84262295D02*
X130401786Y-84262295D01*
X130401786Y-84262295D02*
X130477976Y-84300390D01*
X130477976Y-84300390D02*
X130516071Y-84338485D01*
X130516071Y-84338485D02*
X130554167Y-84414676D01*
X130554167Y-84414676D02*
X130554167Y-84528961D01*
X130554167Y-84528961D02*
X130516071Y-84605152D01*
X130516071Y-84605152D02*
X130477976Y-84643247D01*
X130477976Y-84643247D02*
X130401786Y-84681342D01*
X130401786Y-84681342D02*
X130097024Y-84681342D01*
X131316071Y-85062295D02*
X130858928Y-85062295D01*
X131087500Y-85062295D02*
X131087500Y-84262295D01*
X131087500Y-84262295D02*
X131011309Y-84376580D01*
X131011309Y-84376580D02*
X130935119Y-84452771D01*
X130935119Y-84452771D02*
X130858928Y-84490866D01*
X107435714Y-101286104D02*
X107397618Y-101324200D01*
X107397618Y-101324200D02*
X107283333Y-101362295D01*
X107283333Y-101362295D02*
X107207142Y-101362295D01*
X107207142Y-101362295D02*
X107092856Y-101324200D01*
X107092856Y-101324200D02*
X107016666Y-101248009D01*
X107016666Y-101248009D02*
X106978571Y-101171819D01*
X106978571Y-101171819D02*
X106940475Y-101019438D01*
X106940475Y-101019438D02*
X106940475Y-100905152D01*
X106940475Y-100905152D02*
X106978571Y-100752771D01*
X106978571Y-100752771D02*
X107016666Y-100676580D01*
X107016666Y-100676580D02*
X107092856Y-100600390D01*
X107092856Y-100600390D02*
X107207142Y-100562295D01*
X107207142Y-100562295D02*
X107283333Y-100562295D01*
X107283333Y-100562295D02*
X107397618Y-100600390D01*
X107397618Y-100600390D02*
X107435714Y-100638485D01*
X108197618Y-101362295D02*
X107740475Y-101362295D01*
X107969047Y-101362295D02*
X107969047Y-100562295D01*
X107969047Y-100562295D02*
X107892856Y-100676580D01*
X107892856Y-100676580D02*
X107816666Y-100752771D01*
X107816666Y-100752771D02*
X107740475Y-100790866D01*
X108464285Y-100562295D02*
X108959523Y-100562295D01*
X108959523Y-100562295D02*
X108692857Y-100867057D01*
X108692857Y-100867057D02*
X108807142Y-100867057D01*
X108807142Y-100867057D02*
X108883333Y-100905152D01*
X108883333Y-100905152D02*
X108921428Y-100943247D01*
X108921428Y-100943247D02*
X108959523Y-101019438D01*
X108959523Y-101019438D02*
X108959523Y-101209914D01*
X108959523Y-101209914D02*
X108921428Y-101286104D01*
X108921428Y-101286104D02*
X108883333Y-101324200D01*
X108883333Y-101324200D02*
X108807142Y-101362295D01*
X108807142Y-101362295D02*
X108578571Y-101362295D01*
X108578571Y-101362295D02*
X108502380Y-101324200D01*
X108502380Y-101324200D02*
X108464285Y-101286104D01*
X129043247Y-94166666D02*
X129043247Y-94433332D01*
X129462295Y-94433332D02*
X128662295Y-94433332D01*
X128662295Y-94433332D02*
X128662295Y-94052380D01*
X129462295Y-93328571D02*
X129462295Y-93785714D01*
X129462295Y-93557142D02*
X128662295Y-93557142D01*
X128662295Y-93557142D02*
X128776580Y-93633333D01*
X128776580Y-93633333D02*
X128852771Y-93709523D01*
X128852771Y-93709523D02*
X128890866Y-93785714D01*
X132588152Y-118728571D02*
X133397676Y-118728571D01*
X133397676Y-118728571D02*
X133492914Y-118776190D01*
X133492914Y-118776190D02*
X133540533Y-118823809D01*
X133540533Y-118823809D02*
X133588152Y-118919047D01*
X133588152Y-118919047D02*
X133588152Y-119061904D01*
X133588152Y-119061904D02*
X133540533Y-119157142D01*
X133207200Y-118728571D02*
X133254819Y-118823809D01*
X133254819Y-118823809D02*
X133254819Y-119014285D01*
X133254819Y-119014285D02*
X133207200Y-119109523D01*
X133207200Y-119109523D02*
X133159580Y-119157142D01*
X133159580Y-119157142D02*
X133064342Y-119204761D01*
X133064342Y-119204761D02*
X132778628Y-119204761D01*
X132778628Y-119204761D02*
X132683390Y-119157142D01*
X132683390Y-119157142D02*
X132635771Y-119109523D01*
X132635771Y-119109523D02*
X132588152Y-119014285D01*
X132588152Y-119014285D02*
X132588152Y-118823809D01*
X132588152Y-118823809D02*
X132635771Y-118728571D01*
X132588152Y-118252380D02*
X133588152Y-118252380D01*
X132635771Y-118252380D02*
X132588152Y-118157142D01*
X132588152Y-118157142D02*
X132588152Y-117966666D01*
X132588152Y-117966666D02*
X132635771Y-117871428D01*
X132635771Y-117871428D02*
X132683390Y-117823809D01*
X132683390Y-117823809D02*
X132778628Y-117776190D01*
X132778628Y-117776190D02*
X133064342Y-117776190D01*
X133064342Y-117776190D02*
X133159580Y-117823809D01*
X133159580Y-117823809D02*
X133207200Y-117871428D01*
X133207200Y-117871428D02*
X133254819Y-117966666D01*
X133254819Y-117966666D02*
X133254819Y-118157142D01*
X133254819Y-118157142D02*
X133207200Y-118252380D01*
X133254819Y-117347618D02*
X132588152Y-117347618D01*
X132254819Y-117347618D02*
X132302438Y-117395237D01*
X132302438Y-117395237D02*
X132350057Y-117347618D01*
X132350057Y-117347618D02*
X132302438Y-117299999D01*
X132302438Y-117299999D02*
X132254819Y-117347618D01*
X132254819Y-117347618D02*
X132350057Y-117347618D01*
X133254819Y-116728571D02*
X133207200Y-116823809D01*
X133207200Y-116823809D02*
X133159580Y-116871428D01*
X133159580Y-116871428D02*
X133064342Y-116919047D01*
X133064342Y-116919047D02*
X132778628Y-116919047D01*
X132778628Y-116919047D02*
X132683390Y-116871428D01*
X132683390Y-116871428D02*
X132635771Y-116823809D01*
X132635771Y-116823809D02*
X132588152Y-116728571D01*
X132588152Y-116728571D02*
X132588152Y-116585714D01*
X132588152Y-116585714D02*
X132635771Y-116490476D01*
X132635771Y-116490476D02*
X132683390Y-116442857D01*
X132683390Y-116442857D02*
X132778628Y-116395238D01*
X132778628Y-116395238D02*
X133064342Y-116395238D01*
X133064342Y-116395238D02*
X133159580Y-116442857D01*
X133159580Y-116442857D02*
X133207200Y-116490476D01*
X133207200Y-116490476D02*
X133254819Y-116585714D01*
X133254819Y-116585714D02*
X133254819Y-116728571D01*
X107686104Y-87214285D02*
X107724200Y-87252381D01*
X107724200Y-87252381D02*
X107762295Y-87366666D01*
X107762295Y-87366666D02*
X107762295Y-87442857D01*
X107762295Y-87442857D02*
X107724200Y-87557143D01*
X107724200Y-87557143D02*
X107648009Y-87633333D01*
X107648009Y-87633333D02*
X107571819Y-87671428D01*
X107571819Y-87671428D02*
X107419438Y-87709524D01*
X107419438Y-87709524D02*
X107305152Y-87709524D01*
X107305152Y-87709524D02*
X107152771Y-87671428D01*
X107152771Y-87671428D02*
X107076580Y-87633333D01*
X107076580Y-87633333D02*
X107000390Y-87557143D01*
X107000390Y-87557143D02*
X106962295Y-87442857D01*
X106962295Y-87442857D02*
X106962295Y-87366666D01*
X106962295Y-87366666D02*
X107000390Y-87252381D01*
X107000390Y-87252381D02*
X107038485Y-87214285D01*
X107762295Y-86452381D02*
X107762295Y-86909524D01*
X107762295Y-86680952D02*
X106962295Y-86680952D01*
X106962295Y-86680952D02*
X107076580Y-86757143D01*
X107076580Y-86757143D02*
X107152771Y-86833333D01*
X107152771Y-86833333D02*
X107190866Y-86909524D01*
X107228961Y-85766666D02*
X107762295Y-85766666D01*
X106924200Y-85957142D02*
X107495628Y-86147619D01*
X107495628Y-86147619D02*
X107495628Y-85652380D01*
X108266667Y-90786104D02*
X108228571Y-90824200D01*
X108228571Y-90824200D02*
X108114286Y-90862295D01*
X108114286Y-90862295D02*
X108038095Y-90862295D01*
X108038095Y-90862295D02*
X107923809Y-90824200D01*
X107923809Y-90824200D02*
X107847619Y-90748009D01*
X107847619Y-90748009D02*
X107809524Y-90671819D01*
X107809524Y-90671819D02*
X107771428Y-90519438D01*
X107771428Y-90519438D02*
X107771428Y-90405152D01*
X107771428Y-90405152D02*
X107809524Y-90252771D01*
X107809524Y-90252771D02*
X107847619Y-90176580D01*
X107847619Y-90176580D02*
X107923809Y-90100390D01*
X107923809Y-90100390D02*
X108038095Y-90062295D01*
X108038095Y-90062295D02*
X108114286Y-90062295D01*
X108114286Y-90062295D02*
X108228571Y-90100390D01*
X108228571Y-90100390D02*
X108266667Y-90138485D01*
X108533333Y-90062295D02*
X109028571Y-90062295D01*
X109028571Y-90062295D02*
X108761905Y-90367057D01*
X108761905Y-90367057D02*
X108876190Y-90367057D01*
X108876190Y-90367057D02*
X108952381Y-90405152D01*
X108952381Y-90405152D02*
X108990476Y-90443247D01*
X108990476Y-90443247D02*
X109028571Y-90519438D01*
X109028571Y-90519438D02*
X109028571Y-90709914D01*
X109028571Y-90709914D02*
X108990476Y-90786104D01*
X108990476Y-90786104D02*
X108952381Y-90824200D01*
X108952381Y-90824200D02*
X108876190Y-90862295D01*
X108876190Y-90862295D02*
X108647619Y-90862295D01*
X108647619Y-90862295D02*
X108571428Y-90824200D01*
X108571428Y-90824200D02*
X108533333Y-90786104D01*
X107286104Y-95983332D02*
X107324200Y-96021428D01*
X107324200Y-96021428D02*
X107362295Y-96135713D01*
X107362295Y-96135713D02*
X107362295Y-96211904D01*
X107362295Y-96211904D02*
X107324200Y-96326190D01*
X107324200Y-96326190D02*
X107248009Y-96402380D01*
X107248009Y-96402380D02*
X107171819Y-96440475D01*
X107171819Y-96440475D02*
X107019438Y-96478571D01*
X107019438Y-96478571D02*
X106905152Y-96478571D01*
X106905152Y-96478571D02*
X106752771Y-96440475D01*
X106752771Y-96440475D02*
X106676580Y-96402380D01*
X106676580Y-96402380D02*
X106600390Y-96326190D01*
X106600390Y-96326190D02*
X106562295Y-96211904D01*
X106562295Y-96211904D02*
X106562295Y-96135713D01*
X106562295Y-96135713D02*
X106600390Y-96021428D01*
X106600390Y-96021428D02*
X106638485Y-95983332D01*
X106828961Y-95297618D02*
X107362295Y-95297618D01*
X106524200Y-95488094D02*
X107095628Y-95678571D01*
X107095628Y-95678571D02*
X107095628Y-95183332D01*
X101062295Y-117033332D02*
X100681342Y-117299999D01*
X101062295Y-117490475D02*
X100262295Y-117490475D01*
X100262295Y-117490475D02*
X100262295Y-117185713D01*
X100262295Y-117185713D02*
X100300390Y-117109523D01*
X100300390Y-117109523D02*
X100338485Y-117071428D01*
X100338485Y-117071428D02*
X100414676Y-117033332D01*
X100414676Y-117033332D02*
X100528961Y-117033332D01*
X100528961Y-117033332D02*
X100605152Y-117071428D01*
X100605152Y-117071428D02*
X100643247Y-117109523D01*
X100643247Y-117109523D02*
X100681342Y-117185713D01*
X100681342Y-117185713D02*
X100681342Y-117490475D01*
X100528961Y-116347618D02*
X101062295Y-116347618D01*
X100224200Y-116538094D02*
X100795628Y-116728571D01*
X100795628Y-116728571D02*
X100795628Y-116233332D01*
X106509524Y-108162295D02*
X106509524Y-107362295D01*
X106509524Y-107362295D02*
X106700000Y-107362295D01*
X106700000Y-107362295D02*
X106814286Y-107400390D01*
X106814286Y-107400390D02*
X106890476Y-107476580D01*
X106890476Y-107476580D02*
X106928571Y-107552771D01*
X106928571Y-107552771D02*
X106966667Y-107705152D01*
X106966667Y-107705152D02*
X106966667Y-107819438D01*
X106966667Y-107819438D02*
X106928571Y-107971819D01*
X106928571Y-107971819D02*
X106890476Y-108048009D01*
X106890476Y-108048009D02*
X106814286Y-108124200D01*
X106814286Y-108124200D02*
X106700000Y-108162295D01*
X106700000Y-108162295D02*
X106509524Y-108162295D01*
X107271428Y-107438485D02*
X107309524Y-107400390D01*
X107309524Y-107400390D02*
X107385714Y-107362295D01*
X107385714Y-107362295D02*
X107576190Y-107362295D01*
X107576190Y-107362295D02*
X107652381Y-107400390D01*
X107652381Y-107400390D02*
X107690476Y-107438485D01*
X107690476Y-107438485D02*
X107728571Y-107514676D01*
X107728571Y-107514676D02*
X107728571Y-107590866D01*
X107728571Y-107590866D02*
X107690476Y-107705152D01*
X107690476Y-107705152D02*
X107233333Y-108162295D01*
X107233333Y-108162295D02*
X107728571Y-108162295D01*
X135442857Y-117307200D02*
X135585714Y-117354819D01*
X135585714Y-117354819D02*
X135823809Y-117354819D01*
X135823809Y-117354819D02*
X135919047Y-117307200D01*
X135919047Y-117307200D02*
X135966666Y-117259580D01*
X135966666Y-117259580D02*
X136014285Y-117164342D01*
X136014285Y-117164342D02*
X136014285Y-117069104D01*
X136014285Y-117069104D02*
X135966666Y-116973866D01*
X135966666Y-116973866D02*
X135919047Y-116926247D01*
X135919047Y-116926247D02*
X135823809Y-116878628D01*
X135823809Y-116878628D02*
X135633333Y-116831009D01*
X135633333Y-116831009D02*
X135538095Y-116783390D01*
X135538095Y-116783390D02*
X135490476Y-116735771D01*
X135490476Y-116735771D02*
X135442857Y-116640533D01*
X135442857Y-116640533D02*
X135442857Y-116545295D01*
X135442857Y-116545295D02*
X135490476Y-116450057D01*
X135490476Y-116450057D02*
X135538095Y-116402438D01*
X135538095Y-116402438D02*
X135633333Y-116354819D01*
X135633333Y-116354819D02*
X135871428Y-116354819D01*
X135871428Y-116354819D02*
X136014285Y-116402438D01*
X136347619Y-116354819D02*
X136585714Y-117354819D01*
X136585714Y-117354819D02*
X136776190Y-116640533D01*
X136776190Y-116640533D02*
X136966666Y-117354819D01*
X136966666Y-117354819D02*
X137204762Y-116354819D01*
X137585714Y-117354819D02*
X137585714Y-116354819D01*
X137585714Y-116354819D02*
X137823809Y-116354819D01*
X137823809Y-116354819D02*
X137966666Y-116402438D01*
X137966666Y-116402438D02*
X138061904Y-116497676D01*
X138061904Y-116497676D02*
X138109523Y-116592914D01*
X138109523Y-116592914D02*
X138157142Y-116783390D01*
X138157142Y-116783390D02*
X138157142Y-116926247D01*
X138157142Y-116926247D02*
X138109523Y-117116723D01*
X138109523Y-117116723D02*
X138061904Y-117211961D01*
X138061904Y-117211961D02*
X137966666Y-117307200D01*
X137966666Y-117307200D02*
X137823809Y-117354819D01*
X137823809Y-117354819D02*
X137585714Y-117354819D01*
X102462295Y-83733332D02*
X102081342Y-83999999D01*
X102462295Y-84190475D02*
X101662295Y-84190475D01*
X101662295Y-84190475D02*
X101662295Y-83885713D01*
X101662295Y-83885713D02*
X101700390Y-83809523D01*
X101700390Y-83809523D02*
X101738485Y-83771428D01*
X101738485Y-83771428D02*
X101814676Y-83733332D01*
X101814676Y-83733332D02*
X101928961Y-83733332D01*
X101928961Y-83733332D02*
X102005152Y-83771428D01*
X102005152Y-83771428D02*
X102043247Y-83809523D01*
X102043247Y-83809523D02*
X102081342Y-83885713D01*
X102081342Y-83885713D02*
X102081342Y-84190475D01*
X101662295Y-83466666D02*
X101662295Y-82933332D01*
X101662295Y-82933332D02*
X102462295Y-83276190D01*
X109866667Y-84762295D02*
X109600000Y-84381342D01*
X109409524Y-84762295D02*
X109409524Y-83962295D01*
X109409524Y-83962295D02*
X109714286Y-83962295D01*
X109714286Y-83962295D02*
X109790476Y-84000390D01*
X109790476Y-84000390D02*
X109828571Y-84038485D01*
X109828571Y-84038485D02*
X109866667Y-84114676D01*
X109866667Y-84114676D02*
X109866667Y-84228961D01*
X109866667Y-84228961D02*
X109828571Y-84305152D01*
X109828571Y-84305152D02*
X109790476Y-84343247D01*
X109790476Y-84343247D02*
X109714286Y-84381342D01*
X109714286Y-84381342D02*
X109409524Y-84381342D01*
X110590476Y-83962295D02*
X110209524Y-83962295D01*
X110209524Y-83962295D02*
X110171428Y-84343247D01*
X110171428Y-84343247D02*
X110209524Y-84305152D01*
X110209524Y-84305152D02*
X110285714Y-84267057D01*
X110285714Y-84267057D02*
X110476190Y-84267057D01*
X110476190Y-84267057D02*
X110552381Y-84305152D01*
X110552381Y-84305152D02*
X110590476Y-84343247D01*
X110590476Y-84343247D02*
X110628571Y-84419438D01*
X110628571Y-84419438D02*
X110628571Y-84609914D01*
X110628571Y-84609914D02*
X110590476Y-84686104D01*
X110590476Y-84686104D02*
X110552381Y-84724200D01*
X110552381Y-84724200D02*
X110476190Y-84762295D01*
X110476190Y-84762295D02*
X110285714Y-84762295D01*
X110285714Y-84762295D02*
X110209524Y-84724200D01*
X110209524Y-84724200D02*
X110171428Y-84686104D01*
X123866667Y-89686104D02*
X123828571Y-89724200D01*
X123828571Y-89724200D02*
X123714286Y-89762295D01*
X123714286Y-89762295D02*
X123638095Y-89762295D01*
X123638095Y-89762295D02*
X123523809Y-89724200D01*
X123523809Y-89724200D02*
X123447619Y-89648009D01*
X123447619Y-89648009D02*
X123409524Y-89571819D01*
X123409524Y-89571819D02*
X123371428Y-89419438D01*
X123371428Y-89419438D02*
X123371428Y-89305152D01*
X123371428Y-89305152D02*
X123409524Y-89152771D01*
X123409524Y-89152771D02*
X123447619Y-89076580D01*
X123447619Y-89076580D02*
X123523809Y-89000390D01*
X123523809Y-89000390D02*
X123638095Y-88962295D01*
X123638095Y-88962295D02*
X123714286Y-88962295D01*
X123714286Y-88962295D02*
X123828571Y-89000390D01*
X123828571Y-89000390D02*
X123866667Y-89038485D01*
X124323809Y-89305152D02*
X124247619Y-89267057D01*
X124247619Y-89267057D02*
X124209524Y-89228961D01*
X124209524Y-89228961D02*
X124171428Y-89152771D01*
X124171428Y-89152771D02*
X124171428Y-89114676D01*
X124171428Y-89114676D02*
X124209524Y-89038485D01*
X124209524Y-89038485D02*
X124247619Y-89000390D01*
X124247619Y-89000390D02*
X124323809Y-88962295D01*
X124323809Y-88962295D02*
X124476190Y-88962295D01*
X124476190Y-88962295D02*
X124552381Y-89000390D01*
X124552381Y-89000390D02*
X124590476Y-89038485D01*
X124590476Y-89038485D02*
X124628571Y-89114676D01*
X124628571Y-89114676D02*
X124628571Y-89152771D01*
X124628571Y-89152771D02*
X124590476Y-89228961D01*
X124590476Y-89228961D02*
X124552381Y-89267057D01*
X124552381Y-89267057D02*
X124476190Y-89305152D01*
X124476190Y-89305152D02*
X124323809Y-89305152D01*
X124323809Y-89305152D02*
X124247619Y-89343247D01*
X124247619Y-89343247D02*
X124209524Y-89381342D01*
X124209524Y-89381342D02*
X124171428Y-89457533D01*
X124171428Y-89457533D02*
X124171428Y-89609914D01*
X124171428Y-89609914D02*
X124209524Y-89686104D01*
X124209524Y-89686104D02*
X124247619Y-89724200D01*
X124247619Y-89724200D02*
X124323809Y-89762295D01*
X124323809Y-89762295D02*
X124476190Y-89762295D01*
X124476190Y-89762295D02*
X124552381Y-89724200D01*
X124552381Y-89724200D02*
X124590476Y-89686104D01*
X124590476Y-89686104D02*
X124628571Y-89609914D01*
X124628571Y-89609914D02*
X124628571Y-89457533D01*
X124628571Y-89457533D02*
X124590476Y-89381342D01*
X124590476Y-89381342D02*
X124552381Y-89343247D01*
X124552381Y-89343247D02*
X124476190Y-89305152D01*
X116699200Y-79666667D02*
X116737295Y-79552381D01*
X116737295Y-79552381D02*
X116737295Y-79361905D01*
X116737295Y-79361905D02*
X116699200Y-79285714D01*
X116699200Y-79285714D02*
X116661104Y-79247619D01*
X116661104Y-79247619D02*
X116584914Y-79209524D01*
X116584914Y-79209524D02*
X116508723Y-79209524D01*
X116508723Y-79209524D02*
X116432533Y-79247619D01*
X116432533Y-79247619D02*
X116394438Y-79285714D01*
X116394438Y-79285714D02*
X116356342Y-79361905D01*
X116356342Y-79361905D02*
X116318247Y-79514286D01*
X116318247Y-79514286D02*
X116280152Y-79590476D01*
X116280152Y-79590476D02*
X116242057Y-79628571D01*
X116242057Y-79628571D02*
X116165866Y-79666667D01*
X116165866Y-79666667D02*
X116089676Y-79666667D01*
X116089676Y-79666667D02*
X116013485Y-79628571D01*
X116013485Y-79628571D02*
X115975390Y-79590476D01*
X115975390Y-79590476D02*
X115937295Y-79514286D01*
X115937295Y-79514286D02*
X115937295Y-79323809D01*
X115937295Y-79323809D02*
X115975390Y-79209524D01*
X115937295Y-78942857D02*
X116737295Y-78752381D01*
X116737295Y-78752381D02*
X116165866Y-78600000D01*
X116165866Y-78600000D02*
X116737295Y-78447619D01*
X116737295Y-78447619D02*
X115937295Y-78257143D01*
X116013485Y-77990476D02*
X115975390Y-77952380D01*
X115975390Y-77952380D02*
X115937295Y-77876190D01*
X115937295Y-77876190D02*
X115937295Y-77685714D01*
X115937295Y-77685714D02*
X115975390Y-77609523D01*
X115975390Y-77609523D02*
X116013485Y-77571428D01*
X116013485Y-77571428D02*
X116089676Y-77533333D01*
X116089676Y-77533333D02*
X116165866Y-77533333D01*
X116165866Y-77533333D02*
X116280152Y-77571428D01*
X116280152Y-77571428D02*
X116737295Y-78028571D01*
X116737295Y-78028571D02*
X116737295Y-77533333D01*
X111812295Y-78833332D02*
X111431342Y-79099999D01*
X111812295Y-79290475D02*
X111012295Y-79290475D01*
X111012295Y-79290475D02*
X111012295Y-78985713D01*
X111012295Y-78985713D02*
X111050390Y-78909523D01*
X111050390Y-78909523D02*
X111088485Y-78871428D01*
X111088485Y-78871428D02*
X111164676Y-78833332D01*
X111164676Y-78833332D02*
X111278961Y-78833332D01*
X111278961Y-78833332D02*
X111355152Y-78871428D01*
X111355152Y-78871428D02*
X111393247Y-78909523D01*
X111393247Y-78909523D02*
X111431342Y-78985713D01*
X111431342Y-78985713D02*
X111431342Y-79290475D01*
X111088485Y-78528571D02*
X111050390Y-78490475D01*
X111050390Y-78490475D02*
X111012295Y-78414285D01*
X111012295Y-78414285D02*
X111012295Y-78223809D01*
X111012295Y-78223809D02*
X111050390Y-78147618D01*
X111050390Y-78147618D02*
X111088485Y-78109523D01*
X111088485Y-78109523D02*
X111164676Y-78071428D01*
X111164676Y-78071428D02*
X111240866Y-78071428D01*
X111240866Y-78071428D02*
X111355152Y-78109523D01*
X111355152Y-78109523D02*
X111812295Y-78566666D01*
X111812295Y-78566666D02*
X111812295Y-78071428D01*
X128486104Y-87533332D02*
X128524200Y-87571428D01*
X128524200Y-87571428D02*
X128562295Y-87685713D01*
X128562295Y-87685713D02*
X128562295Y-87761904D01*
X128562295Y-87761904D02*
X128524200Y-87876190D01*
X128524200Y-87876190D02*
X128448009Y-87952380D01*
X128448009Y-87952380D02*
X128371819Y-87990475D01*
X128371819Y-87990475D02*
X128219438Y-88028571D01*
X128219438Y-88028571D02*
X128105152Y-88028571D01*
X128105152Y-88028571D02*
X127952771Y-87990475D01*
X127952771Y-87990475D02*
X127876580Y-87952380D01*
X127876580Y-87952380D02*
X127800390Y-87876190D01*
X127800390Y-87876190D02*
X127762295Y-87761904D01*
X127762295Y-87761904D02*
X127762295Y-87685713D01*
X127762295Y-87685713D02*
X127800390Y-87571428D01*
X127800390Y-87571428D02*
X127838485Y-87533332D01*
X128562295Y-87152380D02*
X128562295Y-86999999D01*
X128562295Y-86999999D02*
X128524200Y-86923809D01*
X128524200Y-86923809D02*
X128486104Y-86885713D01*
X128486104Y-86885713D02*
X128371819Y-86809523D01*
X128371819Y-86809523D02*
X128219438Y-86771428D01*
X128219438Y-86771428D02*
X127914676Y-86771428D01*
X127914676Y-86771428D02*
X127838485Y-86809523D01*
X127838485Y-86809523D02*
X127800390Y-86847618D01*
X127800390Y-86847618D02*
X127762295Y-86923809D01*
X127762295Y-86923809D02*
X127762295Y-87076190D01*
X127762295Y-87076190D02*
X127800390Y-87152380D01*
X127800390Y-87152380D02*
X127838485Y-87190475D01*
X127838485Y-87190475D02*
X127914676Y-87228571D01*
X127914676Y-87228571D02*
X128105152Y-87228571D01*
X128105152Y-87228571D02*
X128181342Y-87190475D01*
X128181342Y-87190475D02*
X128219438Y-87152380D01*
X128219438Y-87152380D02*
X128257533Y-87076190D01*
X128257533Y-87076190D02*
X128257533Y-86923809D01*
X128257533Y-86923809D02*
X128219438Y-86847618D01*
X128219438Y-86847618D02*
X128181342Y-86809523D01*
X128181342Y-86809523D02*
X128105152Y-86771428D01*
X127824200Y-79466667D02*
X127862295Y-79352381D01*
X127862295Y-79352381D02*
X127862295Y-79161905D01*
X127862295Y-79161905D02*
X127824200Y-79085714D01*
X127824200Y-79085714D02*
X127786104Y-79047619D01*
X127786104Y-79047619D02*
X127709914Y-79009524D01*
X127709914Y-79009524D02*
X127633723Y-79009524D01*
X127633723Y-79009524D02*
X127557533Y-79047619D01*
X127557533Y-79047619D02*
X127519438Y-79085714D01*
X127519438Y-79085714D02*
X127481342Y-79161905D01*
X127481342Y-79161905D02*
X127443247Y-79314286D01*
X127443247Y-79314286D02*
X127405152Y-79390476D01*
X127405152Y-79390476D02*
X127367057Y-79428571D01*
X127367057Y-79428571D02*
X127290866Y-79466667D01*
X127290866Y-79466667D02*
X127214676Y-79466667D01*
X127214676Y-79466667D02*
X127138485Y-79428571D01*
X127138485Y-79428571D02*
X127100390Y-79390476D01*
X127100390Y-79390476D02*
X127062295Y-79314286D01*
X127062295Y-79314286D02*
X127062295Y-79123809D01*
X127062295Y-79123809D02*
X127100390Y-79009524D01*
X127062295Y-78742857D02*
X127862295Y-78552381D01*
X127862295Y-78552381D02*
X127290866Y-78400000D01*
X127290866Y-78400000D02*
X127862295Y-78247619D01*
X127862295Y-78247619D02*
X127062295Y-78057143D01*
X127862295Y-77333333D02*
X127862295Y-77790476D01*
X127862295Y-77561904D02*
X127062295Y-77561904D01*
X127062295Y-77561904D02*
X127176580Y-77638095D01*
X127176580Y-77638095D02*
X127252771Y-77714285D01*
X127252771Y-77714285D02*
X127290866Y-77790476D01*
X136438095Y-83454819D02*
X136438095Y-84264342D01*
X136438095Y-84264342D02*
X136485714Y-84359580D01*
X136485714Y-84359580D02*
X136533333Y-84407200D01*
X136533333Y-84407200D02*
X136628571Y-84454819D01*
X136628571Y-84454819D02*
X136819047Y-84454819D01*
X136819047Y-84454819D02*
X136914285Y-84407200D01*
X136914285Y-84407200D02*
X136961904Y-84359580D01*
X136961904Y-84359580D02*
X137009523Y-84264342D01*
X137009523Y-84264342D02*
X137009523Y-83454819D01*
X137438095Y-84407200D02*
X137580952Y-84454819D01*
X137580952Y-84454819D02*
X137819047Y-84454819D01*
X137819047Y-84454819D02*
X137914285Y-84407200D01*
X137914285Y-84407200D02*
X137961904Y-84359580D01*
X137961904Y-84359580D02*
X138009523Y-84264342D01*
X138009523Y-84264342D02*
X138009523Y-84169104D01*
X138009523Y-84169104D02*
X137961904Y-84073866D01*
X137961904Y-84073866D02*
X137914285Y-84026247D01*
X137914285Y-84026247D02*
X137819047Y-83978628D01*
X137819047Y-83978628D02*
X137628571Y-83931009D01*
X137628571Y-83931009D02*
X137533333Y-83883390D01*
X137533333Y-83883390D02*
X137485714Y-83835771D01*
X137485714Y-83835771D02*
X137438095Y-83740533D01*
X137438095Y-83740533D02*
X137438095Y-83645295D01*
X137438095Y-83645295D02*
X137485714Y-83550057D01*
X137485714Y-83550057D02*
X137533333Y-83502438D01*
X137533333Y-83502438D02*
X137628571Y-83454819D01*
X137628571Y-83454819D02*
X137866666Y-83454819D01*
X137866666Y-83454819D02*
X138009523Y-83502438D01*
X138771428Y-83931009D02*
X138914285Y-83978628D01*
X138914285Y-83978628D02*
X138961904Y-84026247D01*
X138961904Y-84026247D02*
X139009523Y-84121485D01*
X139009523Y-84121485D02*
X139009523Y-84264342D01*
X139009523Y-84264342D02*
X138961904Y-84359580D01*
X138961904Y-84359580D02*
X138914285Y-84407200D01*
X138914285Y-84407200D02*
X138819047Y-84454819D01*
X138819047Y-84454819D02*
X138438095Y-84454819D01*
X138438095Y-84454819D02*
X138438095Y-83454819D01*
X138438095Y-83454819D02*
X138771428Y-83454819D01*
X138771428Y-83454819D02*
X138866666Y-83502438D01*
X138866666Y-83502438D02*
X138914285Y-83550057D01*
X138914285Y-83550057D02*
X138961904Y-83645295D01*
X138961904Y-83645295D02*
X138961904Y-83740533D01*
X138961904Y-83740533D02*
X138914285Y-83835771D01*
X138914285Y-83835771D02*
X138866666Y-83883390D01*
X138866666Y-83883390D02*
X138771428Y-83931009D01*
X138771428Y-83931009D02*
X138438095Y-83931009D01*
X104766667Y-102362295D02*
X104500000Y-101981342D01*
X104309524Y-102362295D02*
X104309524Y-101562295D01*
X104309524Y-101562295D02*
X104614286Y-101562295D01*
X104614286Y-101562295D02*
X104690476Y-101600390D01*
X104690476Y-101600390D02*
X104728571Y-101638485D01*
X104728571Y-101638485D02*
X104766667Y-101714676D01*
X104766667Y-101714676D02*
X104766667Y-101828961D01*
X104766667Y-101828961D02*
X104728571Y-101905152D01*
X104728571Y-101905152D02*
X104690476Y-101943247D01*
X104690476Y-101943247D02*
X104614286Y-101981342D01*
X104614286Y-101981342D02*
X104309524Y-101981342D01*
X105033333Y-101562295D02*
X105528571Y-101562295D01*
X105528571Y-101562295D02*
X105261905Y-101867057D01*
X105261905Y-101867057D02*
X105376190Y-101867057D01*
X105376190Y-101867057D02*
X105452381Y-101905152D01*
X105452381Y-101905152D02*
X105490476Y-101943247D01*
X105490476Y-101943247D02*
X105528571Y-102019438D01*
X105528571Y-102019438D02*
X105528571Y-102209914D01*
X105528571Y-102209914D02*
X105490476Y-102286104D01*
X105490476Y-102286104D02*
X105452381Y-102324200D01*
X105452381Y-102324200D02*
X105376190Y-102362295D01*
X105376190Y-102362295D02*
X105147619Y-102362295D01*
X105147619Y-102362295D02*
X105071428Y-102324200D01*
X105071428Y-102324200D02*
X105033333Y-102286104D01*
X103909524Y-110662295D02*
X103909524Y-109862295D01*
X103909524Y-109862295D02*
X104100000Y-109862295D01*
X104100000Y-109862295D02*
X104214286Y-109900390D01*
X104214286Y-109900390D02*
X104290476Y-109976580D01*
X104290476Y-109976580D02*
X104328571Y-110052771D01*
X104328571Y-110052771D02*
X104366667Y-110205152D01*
X104366667Y-110205152D02*
X104366667Y-110319438D01*
X104366667Y-110319438D02*
X104328571Y-110471819D01*
X104328571Y-110471819D02*
X104290476Y-110548009D01*
X104290476Y-110548009D02*
X104214286Y-110624200D01*
X104214286Y-110624200D02*
X104100000Y-110662295D01*
X104100000Y-110662295D02*
X103909524Y-110662295D01*
X105128571Y-110662295D02*
X104671428Y-110662295D01*
X104900000Y-110662295D02*
X104900000Y-109862295D01*
X104900000Y-109862295D02*
X104823809Y-109976580D01*
X104823809Y-109976580D02*
X104747619Y-110052771D01*
X104747619Y-110052771D02*
X104671428Y-110090866D01*
X104554167Y-84412295D02*
X104287500Y-84031342D01*
X104097024Y-84412295D02*
X104097024Y-83612295D01*
X104097024Y-83612295D02*
X104401786Y-83612295D01*
X104401786Y-83612295D02*
X104477976Y-83650390D01*
X104477976Y-83650390D02*
X104516071Y-83688485D01*
X104516071Y-83688485D02*
X104554167Y-83764676D01*
X104554167Y-83764676D02*
X104554167Y-83878961D01*
X104554167Y-83878961D02*
X104516071Y-83955152D01*
X104516071Y-83955152D02*
X104477976Y-83993247D01*
X104477976Y-83993247D02*
X104401786Y-84031342D01*
X104401786Y-84031342D02*
X104097024Y-84031342D01*
X105239881Y-83612295D02*
X105087500Y-83612295D01*
X105087500Y-83612295D02*
X105011309Y-83650390D01*
X105011309Y-83650390D02*
X104973214Y-83688485D01*
X104973214Y-83688485D02*
X104897024Y-83802771D01*
X104897024Y-83802771D02*
X104858928Y-83955152D01*
X104858928Y-83955152D02*
X104858928Y-84259914D01*
X104858928Y-84259914D02*
X104897024Y-84336104D01*
X104897024Y-84336104D02*
X104935119Y-84374200D01*
X104935119Y-84374200D02*
X105011309Y-84412295D01*
X105011309Y-84412295D02*
X105163690Y-84412295D01*
X105163690Y-84412295D02*
X105239881Y-84374200D01*
X105239881Y-84374200D02*
X105277976Y-84336104D01*
X105277976Y-84336104D02*
X105316071Y-84259914D01*
X105316071Y-84259914D02*
X105316071Y-84069438D01*
X105316071Y-84069438D02*
X105277976Y-83993247D01*
X105277976Y-83993247D02*
X105239881Y-83955152D01*
X105239881Y-83955152D02*
X105163690Y-83917057D01*
X105163690Y-83917057D02*
X105011309Y-83917057D01*
X105011309Y-83917057D02*
X104935119Y-83955152D01*
X104935119Y-83955152D02*
X104897024Y-83993247D01*
X104897024Y-83993247D02*
X104858928Y-84069438D01*
X97854819Y-78676189D02*
X96854819Y-78676189D01*
X96950057Y-78247618D02*
X96902438Y-78199999D01*
X96902438Y-78199999D02*
X96854819Y-78104761D01*
X96854819Y-78104761D02*
X96854819Y-77866666D01*
X96854819Y-77866666D02*
X96902438Y-77771428D01*
X96902438Y-77771428D02*
X96950057Y-77723809D01*
X96950057Y-77723809D02*
X97045295Y-77676190D01*
X97045295Y-77676190D02*
X97140533Y-77676190D01*
X97140533Y-77676190D02*
X97283390Y-77723809D01*
X97283390Y-77723809D02*
X97854819Y-78295237D01*
X97854819Y-78295237D02*
X97854819Y-77676190D01*
X97759580Y-76676190D02*
X97807200Y-76723809D01*
X97807200Y-76723809D02*
X97854819Y-76866666D01*
X97854819Y-76866666D02*
X97854819Y-76961904D01*
X97854819Y-76961904D02*
X97807200Y-77104761D01*
X97807200Y-77104761D02*
X97711961Y-77199999D01*
X97711961Y-77199999D02*
X97616723Y-77247618D01*
X97616723Y-77247618D02*
X97426247Y-77295237D01*
X97426247Y-77295237D02*
X97283390Y-77295237D01*
X97283390Y-77295237D02*
X97092914Y-77247618D01*
X97092914Y-77247618D02*
X96997676Y-77199999D01*
X96997676Y-77199999D02*
X96902438Y-77104761D01*
X96902438Y-77104761D02*
X96854819Y-76961904D01*
X96854819Y-76961904D02*
X96854819Y-76866666D01*
X96854819Y-76866666D02*
X96902438Y-76723809D01*
X96902438Y-76723809D02*
X96950057Y-76676190D01*
X110886104Y-104333332D02*
X110924200Y-104371428D01*
X110924200Y-104371428D02*
X110962295Y-104485713D01*
X110962295Y-104485713D02*
X110962295Y-104561904D01*
X110962295Y-104561904D02*
X110924200Y-104676190D01*
X110924200Y-104676190D02*
X110848009Y-104752380D01*
X110848009Y-104752380D02*
X110771819Y-104790475D01*
X110771819Y-104790475D02*
X110619438Y-104828571D01*
X110619438Y-104828571D02*
X110505152Y-104828571D01*
X110505152Y-104828571D02*
X110352771Y-104790475D01*
X110352771Y-104790475D02*
X110276580Y-104752380D01*
X110276580Y-104752380D02*
X110200390Y-104676190D01*
X110200390Y-104676190D02*
X110162295Y-104561904D01*
X110162295Y-104561904D02*
X110162295Y-104485713D01*
X110162295Y-104485713D02*
X110200390Y-104371428D01*
X110200390Y-104371428D02*
X110238485Y-104333332D01*
X110162295Y-103647618D02*
X110162295Y-103799999D01*
X110162295Y-103799999D02*
X110200390Y-103876190D01*
X110200390Y-103876190D02*
X110238485Y-103914285D01*
X110238485Y-103914285D02*
X110352771Y-103990475D01*
X110352771Y-103990475D02*
X110505152Y-104028571D01*
X110505152Y-104028571D02*
X110809914Y-104028571D01*
X110809914Y-104028571D02*
X110886104Y-103990475D01*
X110886104Y-103990475D02*
X110924200Y-103952380D01*
X110924200Y-103952380D02*
X110962295Y-103876190D01*
X110962295Y-103876190D02*
X110962295Y-103723809D01*
X110962295Y-103723809D02*
X110924200Y-103647618D01*
X110924200Y-103647618D02*
X110886104Y-103609523D01*
X110886104Y-103609523D02*
X110809914Y-103571428D01*
X110809914Y-103571428D02*
X110619438Y-103571428D01*
X110619438Y-103571428D02*
X110543247Y-103609523D01*
X110543247Y-103609523D02*
X110505152Y-103647618D01*
X110505152Y-103647618D02*
X110467057Y-103723809D01*
X110467057Y-103723809D02*
X110467057Y-103876190D01*
X110467057Y-103876190D02*
X110505152Y-103952380D01*
X110505152Y-103952380D02*
X110543247Y-103990475D01*
X110543247Y-103990475D02*
X110619438Y-104028571D01*
X99481342Y-95666666D02*
X99862295Y-95666666D01*
X99062295Y-95933333D02*
X99481342Y-95666666D01*
X99481342Y-95666666D02*
X99062295Y-95400000D01*
X99862295Y-94714286D02*
X99862295Y-95171429D01*
X99862295Y-94942857D02*
X99062295Y-94942857D01*
X99062295Y-94942857D02*
X99176580Y-95019048D01*
X99176580Y-95019048D02*
X99252771Y-95095238D01*
X99252771Y-95095238D02*
X99290866Y-95171429D01*
X99405152Y-93647619D02*
X99367057Y-93723809D01*
X99367057Y-93723809D02*
X99328961Y-93761904D01*
X99328961Y-93761904D02*
X99252771Y-93800000D01*
X99252771Y-93800000D02*
X99214676Y-93800000D01*
X99214676Y-93800000D02*
X99138485Y-93761904D01*
X99138485Y-93761904D02*
X99100390Y-93723809D01*
X99100390Y-93723809D02*
X99062295Y-93647619D01*
X99062295Y-93647619D02*
X99062295Y-93495238D01*
X99062295Y-93495238D02*
X99100390Y-93419047D01*
X99100390Y-93419047D02*
X99138485Y-93380952D01*
X99138485Y-93380952D02*
X99214676Y-93342857D01*
X99214676Y-93342857D02*
X99252771Y-93342857D01*
X99252771Y-93342857D02*
X99328961Y-93380952D01*
X99328961Y-93380952D02*
X99367057Y-93419047D01*
X99367057Y-93419047D02*
X99405152Y-93495238D01*
X99405152Y-93495238D02*
X99405152Y-93647619D01*
X99405152Y-93647619D02*
X99443247Y-93723809D01*
X99443247Y-93723809D02*
X99481342Y-93761904D01*
X99481342Y-93761904D02*
X99557533Y-93800000D01*
X99557533Y-93800000D02*
X99709914Y-93800000D01*
X99709914Y-93800000D02*
X99786104Y-93761904D01*
X99786104Y-93761904D02*
X99824200Y-93723809D01*
X99824200Y-93723809D02*
X99862295Y-93647619D01*
X99862295Y-93647619D02*
X99862295Y-93495238D01*
X99862295Y-93495238D02*
X99824200Y-93419047D01*
X99824200Y-93419047D02*
X99786104Y-93380952D01*
X99786104Y-93380952D02*
X99709914Y-93342857D01*
X99709914Y-93342857D02*
X99557533Y-93342857D01*
X99557533Y-93342857D02*
X99481342Y-93380952D01*
X99481342Y-93380952D02*
X99443247Y-93419047D01*
X99443247Y-93419047D02*
X99405152Y-93495238D01*
X99862295Y-92999999D02*
X99062295Y-92999999D01*
X99062295Y-92999999D02*
X99633723Y-92733333D01*
X99633723Y-92733333D02*
X99062295Y-92466666D01*
X99062295Y-92466666D02*
X99862295Y-92466666D01*
X99862295Y-92085713D02*
X99062295Y-92085713D01*
X99443247Y-92085713D02*
X99443247Y-91628570D01*
X99862295Y-91628570D02*
X99062295Y-91628570D01*
X99328961Y-91323809D02*
X99328961Y-90904761D01*
X99328961Y-90904761D02*
X99862295Y-91323809D01*
X99862295Y-91323809D02*
X99862295Y-90904761D01*
X116076191Y-114307200D02*
X116219048Y-114354819D01*
X116219048Y-114354819D02*
X116457143Y-114354819D01*
X116457143Y-114354819D02*
X116552381Y-114307200D01*
X116552381Y-114307200D02*
X116600000Y-114259580D01*
X116600000Y-114259580D02*
X116647619Y-114164342D01*
X116647619Y-114164342D02*
X116647619Y-114069104D01*
X116647619Y-114069104D02*
X116600000Y-113973866D01*
X116600000Y-113973866D02*
X116552381Y-113926247D01*
X116552381Y-113926247D02*
X116457143Y-113878628D01*
X116457143Y-113878628D02*
X116266667Y-113831009D01*
X116266667Y-113831009D02*
X116171429Y-113783390D01*
X116171429Y-113783390D02*
X116123810Y-113735771D01*
X116123810Y-113735771D02*
X116076191Y-113640533D01*
X116076191Y-113640533D02*
X116076191Y-113545295D01*
X116076191Y-113545295D02*
X116123810Y-113450057D01*
X116123810Y-113450057D02*
X116171429Y-113402438D01*
X116171429Y-113402438D02*
X116266667Y-113354819D01*
X116266667Y-113354819D02*
X116504762Y-113354819D01*
X116504762Y-113354819D02*
X116647619Y-113402438D01*
X117076191Y-114354819D02*
X117076191Y-113354819D01*
X117076191Y-113354819D02*
X117457143Y-113354819D01*
X117457143Y-113354819D02*
X117552381Y-113402438D01*
X117552381Y-113402438D02*
X117600000Y-113450057D01*
X117600000Y-113450057D02*
X117647619Y-113545295D01*
X117647619Y-113545295D02*
X117647619Y-113688152D01*
X117647619Y-113688152D02*
X117600000Y-113783390D01*
X117600000Y-113783390D02*
X117552381Y-113831009D01*
X117552381Y-113831009D02*
X117457143Y-113878628D01*
X117457143Y-113878628D02*
X117076191Y-113878628D01*
X118076191Y-114354819D02*
X118076191Y-113354819D01*
X119786104Y-85614285D02*
X119824200Y-85652381D01*
X119824200Y-85652381D02*
X119862295Y-85766666D01*
X119862295Y-85766666D02*
X119862295Y-85842857D01*
X119862295Y-85842857D02*
X119824200Y-85957143D01*
X119824200Y-85957143D02*
X119748009Y-86033333D01*
X119748009Y-86033333D02*
X119671819Y-86071428D01*
X119671819Y-86071428D02*
X119519438Y-86109524D01*
X119519438Y-86109524D02*
X119405152Y-86109524D01*
X119405152Y-86109524D02*
X119252771Y-86071428D01*
X119252771Y-86071428D02*
X119176580Y-86033333D01*
X119176580Y-86033333D02*
X119100390Y-85957143D01*
X119100390Y-85957143D02*
X119062295Y-85842857D01*
X119062295Y-85842857D02*
X119062295Y-85766666D01*
X119062295Y-85766666D02*
X119100390Y-85652381D01*
X119100390Y-85652381D02*
X119138485Y-85614285D01*
X119862295Y-84852381D02*
X119862295Y-85309524D01*
X119862295Y-85080952D02*
X119062295Y-85080952D01*
X119062295Y-85080952D02*
X119176580Y-85157143D01*
X119176580Y-85157143D02*
X119252771Y-85233333D01*
X119252771Y-85233333D02*
X119290866Y-85309524D01*
X119138485Y-84547619D02*
X119100390Y-84509523D01*
X119100390Y-84509523D02*
X119062295Y-84433333D01*
X119062295Y-84433333D02*
X119062295Y-84242857D01*
X119062295Y-84242857D02*
X119100390Y-84166666D01*
X119100390Y-84166666D02*
X119138485Y-84128571D01*
X119138485Y-84128571D02*
X119214676Y-84090476D01*
X119214676Y-84090476D02*
X119290866Y-84090476D01*
X119290866Y-84090476D02*
X119405152Y-84128571D01*
X119405152Y-84128571D02*
X119862295Y-84585714D01*
X119862295Y-84585714D02*
X119862295Y-84090476D01*
X96804762Y-113754819D02*
X96804762Y-114564342D01*
X96804762Y-114564342D02*
X96852381Y-114659580D01*
X96852381Y-114659580D02*
X96900000Y-114707200D01*
X96900000Y-114707200D02*
X96995238Y-114754819D01*
X96995238Y-114754819D02*
X97185714Y-114754819D01*
X97185714Y-114754819D02*
X97280952Y-114707200D01*
X97280952Y-114707200D02*
X97328571Y-114659580D01*
X97328571Y-114659580D02*
X97376190Y-114564342D01*
X97376190Y-114564342D02*
X97376190Y-113754819D01*
X97804762Y-114469104D02*
X98280952Y-114469104D01*
X97709524Y-114754819D02*
X98042857Y-113754819D01*
X98042857Y-113754819D02*
X98376190Y-114754819D01*
X99280952Y-114754819D02*
X98947619Y-114278628D01*
X98709524Y-114754819D02*
X98709524Y-113754819D01*
X98709524Y-113754819D02*
X99090476Y-113754819D01*
X99090476Y-113754819D02*
X99185714Y-113802438D01*
X99185714Y-113802438D02*
X99233333Y-113850057D01*
X99233333Y-113850057D02*
X99280952Y-113945295D01*
X99280952Y-113945295D02*
X99280952Y-114088152D01*
X99280952Y-114088152D02*
X99233333Y-114183390D01*
X99233333Y-114183390D02*
X99185714Y-114231009D01*
X99185714Y-114231009D02*
X99090476Y-114278628D01*
X99090476Y-114278628D02*
X98709524Y-114278628D01*
X99566667Y-113754819D02*
X100138095Y-113754819D01*
X99852381Y-114754819D02*
X99852381Y-113754819D01*
%TO.C,C5*%
D13*
X114765000Y-103688748D02*
X114765000Y-104211252D01*
X116235000Y-103688748D02*
X116235000Y-104211252D01*
%TO.C,C1*%
X130488748Y-101265000D02*
X131011252Y-101265000D01*
X130488748Y-102735000D02*
X131011252Y-102735000D01*
%TO.C,C10*%
X113338748Y-84865000D02*
X113861252Y-84865000D01*
X113338748Y-86335000D02*
X113861252Y-86335000D01*
%TO.C,C2*%
X136611252Y-98065000D02*
X136088748Y-98065000D01*
X136611252Y-99535000D02*
X136088748Y-99535000D01*
%TO.C,U1*%
X112690000Y-89265000D02*
X113640000Y-89265000D01*
X112690000Y-90215000D02*
X112690000Y-89265000D01*
X112690000Y-99485000D02*
X112690000Y-98535000D01*
X113640000Y-99485000D02*
X112690000Y-99485000D01*
X121960000Y-89265000D02*
X122910000Y-89265000D01*
X122910000Y-89265000D02*
X122910000Y-90215000D01*
X122910000Y-98535000D02*
X122910000Y-99485000D01*
X122910000Y-99485000D02*
X121960000Y-99485000D01*
X112050000Y-90215000D02*
X111710000Y-89745000D01*
X112390000Y-89745000D01*
X112050000Y-90215000D01*
G36*
X112050000Y-90215000D02*
G01*
X111710000Y-89745000D01*
X112390000Y-89745000D01*
X112050000Y-90215000D01*
G37*
%TO.C,C11*%
X120411252Y-101665000D02*
X119888748Y-101665000D01*
X120411252Y-103135000D02*
X119888748Y-103135000D01*
%TO.C,C7*%
X123465000Y-102461252D02*
X123465000Y-101938748D01*
X124935000Y-102461252D02*
X124935000Y-101938748D01*
%TO.C,U2*%
X126890000Y-107550000D02*
X126890000Y-111310000D01*
X126890000Y-111310000D02*
X128150000Y-111310000D01*
X133710000Y-107550000D02*
X133710000Y-111310000D01*
X133710000Y-111310000D02*
X132450000Y-111310000D01*
X133610000Y-106270000D02*
X133940000Y-106030000D01*
X133940000Y-106510000D01*
X133610000Y-106270000D01*
G36*
X133940000Y-106510000D02*
G01*
X133610000Y-106270000D01*
X133940000Y-106030000D01*
X133940000Y-106510000D01*
G37*
%TO.C,R1*%
X131114564Y-82165000D02*
X130660436Y-82165000D01*
X131114564Y-83635000D02*
X130660436Y-83635000D01*
%TO.C,C13*%
X108261252Y-98265000D02*
X107738748Y-98265000D01*
X108261252Y-99735000D02*
X107738748Y-99735000D01*
%TO.C,F1*%
X128390000Y-96697936D02*
X128390000Y-97902064D01*
X130210000Y-96697936D02*
X130210000Y-97902064D01*
%TO.C,gpio*%
X105610000Y-116270000D02*
X106940000Y-116270000D01*
X105610000Y-117600000D02*
X105610000Y-116270000D01*
X108210000Y-116270000D02*
X131130000Y-116270000D01*
X108210000Y-118930000D02*
X108210000Y-116270000D01*
X108210000Y-118930000D02*
X131130000Y-118930000D01*
X131130000Y-118930000D02*
X131130000Y-116270000D01*
%TO.C,C14*%
X110111252Y-86365000D02*
X109588748Y-86365000D01*
X110111252Y-87835000D02*
X109588748Y-87835000D01*
%TO.C,C3*%
X108188748Y-91765000D02*
X108711252Y-91765000D01*
X108188748Y-93235000D02*
X108711252Y-93235000D01*
%TO.C,C4*%
X108065000Y-95188748D02*
X108065000Y-95711252D01*
X109535000Y-95188748D02*
X109535000Y-95711252D01*
%TO.C,R4*%
X101665000Y-116139564D02*
X101665000Y-115685436D01*
X103135000Y-116139564D02*
X103135000Y-115685436D01*
%TO.C,D2*%
X103300000Y-108960000D02*
X105985000Y-108960000D01*
X105985000Y-107040000D02*
X103300000Y-107040000D01*
X105985000Y-108960000D02*
X105985000Y-107040000D01*
%TO.C,SWD*%
X135370000Y-105030000D02*
X135370000Y-115250000D01*
X135370000Y-105030000D02*
X138030000Y-105030000D01*
X135370000Y-115250000D02*
X138030000Y-115250000D01*
X136700000Y-102430000D02*
X138030000Y-102430000D01*
X138030000Y-102430000D02*
X138030000Y-103760000D01*
X138030000Y-105030000D02*
X138030000Y-115250000D01*
%TO.C,R7*%
X99465000Y-83239564D02*
X99465000Y-82785436D01*
X100935000Y-83239564D02*
X100935000Y-82785436D01*
%TO.C,R5*%
X109772936Y-81665000D02*
X110227064Y-81665000D01*
X109772936Y-83135000D02*
X110227064Y-83135000D01*
%TO.C,C8*%
X126588748Y-89065000D02*
X127111252Y-89065000D01*
X126588748Y-90535000D02*
X127111252Y-90535000D01*
%TO.C,SW2*%
X118425000Y-76150000D02*
X118425000Y-76200000D01*
X118425000Y-79350000D02*
X118425000Y-77850000D01*
X118425000Y-81050000D02*
X118425000Y-81000000D01*
X123325000Y-76150000D02*
X118425000Y-76150000D01*
X123325000Y-76150000D02*
X123325000Y-76200000D01*
X123325000Y-79350000D02*
X123325000Y-77850000D01*
X123325000Y-81050000D02*
X118425000Y-81050000D01*
X123325000Y-81050000D02*
X123325000Y-81000000D01*
%TO.C,R2*%
X112365000Y-78927064D02*
X112365000Y-78472936D01*
X113835000Y-78927064D02*
X113835000Y-78472936D01*
%TO.C,C9*%
X125488748Y-86665000D02*
X126011252Y-86665000D01*
X125488748Y-88135000D02*
X126011252Y-88135000D01*
%TO.C,SW1*%
X129750000Y-76150000D02*
X129750000Y-76200000D01*
X129750000Y-76150000D02*
X134650000Y-76150000D01*
X129750000Y-77850000D02*
X129750000Y-79350000D01*
X129750000Y-81050000D02*
X129750000Y-81000000D01*
X129750000Y-81050000D02*
X134650000Y-81050000D01*
X134650000Y-76150000D02*
X134650000Y-76200000D01*
X134650000Y-77850000D02*
X134650000Y-79350000D01*
X134650000Y-81050000D02*
X134650000Y-81000000D01*
%TO.C,USB*%
D14*
X134622500Y-86900000D02*
X140452500Y-86900000D01*
X134622500Y-89060000D02*
X134622500Y-86900000D01*
X134622500Y-94900000D02*
X134622500Y-92740000D01*
X134622500Y-94900000D02*
X140452500Y-94900000D01*
D15*
X133502500Y-92200000D02*
G75*
G02*
X133302500Y-92200000I-100000J0D01*
G01*
X133302500Y-92200000D02*
G75*
G02*
X133502500Y-92200000I100000J0D01*
G01*
%TO.C,R3*%
D13*
X104160436Y-103065000D02*
X104614564Y-103065000D01*
X104160436Y-104535000D02*
X104614564Y-104535000D01*
%TO.C,D1*%
X103262500Y-112960000D02*
X105947500Y-112960000D01*
X105947500Y-111040000D02*
X103262500Y-111040000D01*
X105947500Y-112960000D02*
X105947500Y-111040000D01*
%TO.C,R6*%
X104914564Y-81665000D02*
X104460436Y-81665000D01*
X104914564Y-83135000D02*
X104460436Y-83135000D01*
%TO.C,I2C*%
X99050000Y-76570000D02*
X100380000Y-76570000D01*
X99050000Y-77900000D02*
X99050000Y-76570000D01*
X101650000Y-76570000D02*
X109330000Y-76570000D01*
X101650000Y-79230000D02*
X101650000Y-76570000D01*
X101650000Y-79230000D02*
X109330000Y-79230000D01*
X109330000Y-79230000D02*
X109330000Y-76570000D01*
%TO.C,C6*%
X111765000Y-103688748D02*
X111765000Y-104211252D01*
X113235000Y-103688748D02*
X113235000Y-104211252D01*
%TO.C,Y1 8MHz*%
X100490000Y-86940000D02*
X100490000Y-99660000D01*
X100490000Y-99660000D02*
X105710000Y-99660000D01*
X105710000Y-99660000D02*
X105710000Y-86940000D01*
%TO.C,SPI*%
X109110000Y-109970000D02*
X110440000Y-109970000D01*
X109110000Y-111300000D02*
X109110000Y-109970000D01*
X111710000Y-109970000D02*
X124470000Y-109970000D01*
X111710000Y-112630000D02*
X111710000Y-109970000D01*
X111710000Y-112630000D02*
X124470000Y-112630000D01*
X124470000Y-112630000D02*
X124470000Y-109970000D01*
%TO.C,C12*%
X121788748Y-84865000D02*
X122311252Y-84865000D01*
X121788748Y-86335000D02*
X122311252Y-86335000D01*
%TO.C,UART*%
X98270000Y-109850000D02*
X98270000Y-102170000D01*
X98270000Y-112450000D02*
X98270000Y-111120000D01*
X99600000Y-112450000D02*
X98270000Y-112450000D01*
X100930000Y-102170000D02*
X98270000Y-102170000D01*
X100930000Y-109850000D02*
X98270000Y-109850000D01*
X100930000Y-109850000D02*
X100930000Y-102170000D01*
%TD*%
M02*
