%TF.GenerationSoftware,KiCad,Pcbnew,10.0.5*%
%TF.CreationDate,2026-09-15T23:29:13+05:30*%
%TF.ProjectId,comp pcb1,636f6d70-2070-4636-9231-2e6b69636164,rev?*%
%TF.SameCoordinates,Original*%
%TF.FileFunction,Copper,L1,Top*%
%TF.FilePolarity,Positive*%
%FSLAX46Y46*%
G04 Gerber Fmt 4.6, Leading zero omitted, Abs format (unit mm)*
G04 Created by KiCad (PCBNEW 10.0.5) date 2026-09-15 23:29:13*
%MOMM*%
%LPD*%
G01*
G04 APERTURE LIST*
G04 Aperture macros list*
%AMRoundRect*
0 Rectangle with rounded corners*
0 $1 Rounding radius*
0 $2 $3 $4 $5 $6 $7 $8 $9 X,Y pos of 4 corners*
0 Add a 4 corners polygon primitive as box body*
4,1,4,$2,$3,$4,$5,$6,$7,$8,$9,$2,$3,0*
0 Add four circle primitives for the rounded corners*
1,1,$1+$1,$2,$3*
1,1,$1+$1,$4,$5*
1,1,$1+$1,$6,$7*
1,1,$1+$1,$8,$9*
0 Add four rect primitives between the rounded corners*
20,1,$1+$1,$2,$3,$4,$5,0*
20,1,$1+$1,$4,$5,$6,$7,0*
20,1,$1+$1,$6,$7,$8,$9,0*
20,1,$1+$1,$8,$9,$2,$3,0*%
G04 Aperture macros list end*
%TA.AperFunction,SMDPad,CuDef*%
%ADD10RoundRect,0.250000X-0.475000X0.250000X-0.475000X-0.250000X0.475000X-0.250000X0.475000X0.250000X0*%
%TD*%
%TA.AperFunction,SMDPad,CuDef*%
%ADD11RoundRect,0.250000X-0.250000X-0.475000X0.250000X-0.475000X0.250000X0.475000X-0.250000X0.475000X0*%
%TD*%
%TA.AperFunction,SMDPad,CuDef*%
%ADD12RoundRect,0.250000X0.250000X0.475000X-0.250000X0.475000X-0.250000X-0.475000X0.250000X-0.475000X0*%
%TD*%
%TA.AperFunction,SMDPad,CuDef*%
%ADD13RoundRect,0.075000X-0.700000X-0.075000X0.700000X-0.075000X0.700000X0.075000X-0.700000X0.075000X0*%
%TD*%
%TA.AperFunction,SMDPad,CuDef*%
%ADD14RoundRect,0.075000X-0.075000X-0.700000X0.075000X-0.700000X0.075000X0.700000X-0.075000X0.700000X0*%
%TD*%
%TA.AperFunction,SMDPad,CuDef*%
%ADD15RoundRect,0.250000X0.475000X-0.250000X0.475000X0.250000X-0.475000X0.250000X-0.475000X-0.250000X0*%
%TD*%
%TA.AperFunction,SMDPad,CuDef*%
%ADD16RoundRect,0.375000X-0.375000X0.625000X-0.375000X-0.625000X0.375000X-0.625000X0.375000X0.625000X0*%
%TD*%
%TA.AperFunction,SMDPad,CuDef*%
%ADD17RoundRect,0.500000X-1.400000X0.500000X-1.400000X-0.500000X1.400000X-0.500000X1.400000X0.500000X0*%
%TD*%
%TA.AperFunction,SMDPad,CuDef*%
%ADD18RoundRect,0.250000X0.262500X0.450000X-0.262500X0.450000X-0.262500X-0.450000X0.262500X-0.450000X0*%
%TD*%
%TA.AperFunction,SMDPad,CuDef*%
%ADD19RoundRect,0.250000X-0.625000X0.375000X-0.625000X-0.375000X0.625000X-0.375000X0.625000X0.375000X0*%
%TD*%
%TA.AperFunction,ComponentPad*%
%ADD20R,1.700000X1.700000*%
%TD*%
%TA.AperFunction,ComponentPad*%
%ADD21C,1.700000*%
%TD*%
%TA.AperFunction,SMDPad,CuDef*%
%ADD22RoundRect,0.250000X0.450000X-0.262500X0.450000X0.262500X-0.450000X0.262500X-0.450000X-0.262500X0*%
%TD*%
%TA.AperFunction,SMDPad,CuDef*%
%ADD23RoundRect,0.243750X0.243750X0.456250X-0.243750X0.456250X-0.243750X-0.456250X0.243750X-0.456250X0*%
%TD*%
%TA.AperFunction,SMDPad,CuDef*%
%ADD24RoundRect,0.250000X-0.262500X-0.450000X0.262500X-0.450000X0.262500X0.450000X-0.262500X0.450000X0*%
%TD*%
%TA.AperFunction,SMDPad,CuDef*%
%ADD25RoundRect,0.250000X0.525000X0.250000X-0.525000X0.250000X-0.525000X-0.250000X0.525000X-0.250000X0*%
%TD*%
%TA.AperFunction,SMDPad,CuDef*%
%ADD26RoundRect,0.250000X-0.525000X-0.250000X0.525000X-0.250000X0.525000X0.250000X-0.525000X0.250000X0*%
%TD*%
%TA.AperFunction,SMDPad,CuDef*%
%ADD27R,1.100000X0.450000*%
%TD*%
%TA.AperFunction,ComponentPad*%
%ADD28O,2.400000X1.200000*%
%TD*%
%TA.AperFunction,SMDPad,CuDef*%
%ADD29RoundRect,0.250000X0.750000X-2.000000X0.750000X2.000000X-0.750000X2.000000X-0.750000X-2.000000X0*%
%TD*%
%TA.AperFunction,ViaPad*%
%ADD30C,0.600000*%
%TD*%
%TA.AperFunction,Conductor*%
%ADD31C,0.200000*%
%TD*%
G04 APERTURE END LIST*
D10*
%TO.P,C5,1*%
%TO.N,/Vreg*%
X115500000Y-103000000D03*
%TO.P,C5,2*%
%TO.N,GND*%
X115500000Y-104900000D03*
%TD*%
D11*
%TO.P,C1,1*%
%TO.N,Net-(U2-VI)*%
X129800000Y-102000000D03*
%TO.P,C1,2*%
%TO.N,GND*%
X131700000Y-102000000D03*
%TD*%
%TO.P,C10,1*%
%TO.N,/Vreg*%
X112650000Y-85600000D03*
%TO.P,C10,2*%
%TO.N,GND*%
X114550000Y-85600000D03*
%TD*%
D12*
%TO.P,C2,1*%
%TO.N,/Vreg*%
X137300000Y-98800000D03*
%TO.P,C2,2*%
%TO.N,GND*%
X135400000Y-98800000D03*
%TD*%
D13*
%TO.P,U1,1,VBAT_1*%
%TO.N,/Vreg*%
X112125000Y-90625000D03*
%TO.P,U1,2,PC13_2*%
%TO.N,unconnected-(U1-PC13-Pad2)*%
X112125000Y-91125000D03*
%TO.P,U1,3,PC14_3*%
%TO.N,unconnected-(U1-PC14-Pad3)*%
X112125000Y-91625000D03*
%TO.P,U1,4,PC15_4*%
%TO.N,unconnected-(U1-PC15-Pad4)*%
X112125000Y-92125000D03*
%TO.P,U1,5,PH0_5*%
%TO.N,Net-(U1-PH0)*%
X112125000Y-92625000D03*
%TO.P,U1,6,PH1_6*%
%TO.N,Net-(U1-PH1)*%
X112125000Y-93125000D03*
%TO.P,U1,7,NRST_7*%
%TO.N,/O1*%
X112125000Y-93625000D03*
%TO.P,U1,8,PC0_8*%
%TO.N,/O3*%
X112125000Y-94125000D03*
%TO.P,U1,9,PC1_9*%
%TO.N,unconnected-(U1-PC1-Pad9)*%
X112125000Y-94625000D03*
%TO.P,U1,10,PC2_10*%
%TO.N,/G1*%
X112125000Y-95125000D03*
%TO.P,U1,11,PC3_11*%
%TO.N,/G2*%
X112125000Y-95625000D03*
%TO.P,U1,12,VSSA_12*%
%TO.N,GND*%
X112125000Y-96125000D03*
%TO.P,U1,13,VREF+_13*%
%TO.N,/Vreg*%
X112125000Y-96625000D03*
%TO.P,U1,14,PA0_14*%
%TO.N,unconnected-(U1-PA0-Pad14)*%
X112125000Y-97125000D03*
%TO.P,U1,15,PA1_15*%
%TO.N,unconnected-(U1-PA1-Pad15)*%
X112125000Y-97625000D03*
%TO.P,U1,16,PA2_16*%
%TO.N,/TX*%
X112125000Y-98125000D03*
D14*
%TO.P,U1,17,PA3_17*%
%TO.N,/RX*%
X114050000Y-100050000D03*
%TO.P,U1,18,VSS_18*%
%TO.N,GND*%
X114550000Y-100050000D03*
%TO.P,U1,19,VDD_19*%
%TO.N,/Vreg*%
X115050000Y-100050000D03*
%TO.P,U1,20,PA4_20*%
%TO.N,/CS*%
X115550000Y-100050000D03*
%TO.P,U1,21,PA5_21*%
%TO.N,/SCK*%
X116050000Y-100050000D03*
%TO.P,U1,22,PA6_22*%
%TO.N,/MISO*%
X116550000Y-100050000D03*
%TO.P,U1,23,PA7_23*%
%TO.N,/MOSI*%
X117050000Y-100050000D03*
%TO.P,U1,24,PC4_24*%
%TO.N,/G3*%
X117550000Y-100050000D03*
%TO.P,U1,25,PC5_25*%
%TO.N,/G4*%
X118050000Y-100050000D03*
%TO.P,U1,26,PB0_26*%
%TO.N,unconnected-(U1-PB0-Pad26)*%
X118550000Y-100050000D03*
%TO.P,U1,27,PB1_27*%
%TO.N,unconnected-(U1-PB1-Pad27)*%
X119050000Y-100050000D03*
%TO.P,U1,28,PB2_28*%
%TO.N,unconnected-(U1-PB2-Pad28)*%
X119550000Y-100050000D03*
%TO.P,U1,29,PB10_29*%
%TO.N,unconnected-(U1-PB10-Pad29)*%
X120050000Y-100050000D03*
%TO.P,U1,30,VCAP1_30*%
%TO.N,Net-(U1-VCAP1)*%
X120550000Y-100050000D03*
%TO.P,U1,31,VSS_31*%
%TO.N,GND*%
X121050000Y-100050000D03*
%TO.P,U1,32,VDD_32*%
%TO.N,/Vreg*%
X121550000Y-100050000D03*
D13*
%TO.P,U1,33,PB12_33*%
%TO.N,unconnected-(U1-PB12-Pad33)*%
X123475000Y-98125000D03*
%TO.P,U1,34,PB13_34*%
%TO.N,unconnected-(U1-PB13-Pad34)*%
X123475000Y-97625000D03*
%TO.P,U1,35,PB14_35*%
%TO.N,unconnected-(U1-PB14-Pad35)*%
X123475000Y-97125000D03*
%TO.P,U1,36,PB15_36*%
%TO.N,unconnected-(U1-PB15-Pad36)*%
X123475000Y-96625000D03*
%TO.P,U1,37,PC6_37*%
%TO.N,/G5*%
X123475000Y-96125000D03*
%TO.P,U1,38,PC7_38*%
%TO.N,/G6*%
X123475000Y-95625000D03*
%TO.P,U1,39,PC8_39*%
%TO.N,/G7*%
X123475000Y-95125000D03*
%TO.P,U1,40,PC9_40*%
%TO.N,/G8*%
X123475000Y-94625000D03*
%TO.P,U1,41,PA8_41*%
%TO.N,unconnected-(U1-PA8-Pad41)*%
X123475000Y-94125000D03*
%TO.P,U1,42,PA9_42*%
%TO.N,unconnected-(U1-PA9-Pad42)*%
X123475000Y-93625000D03*
%TO.P,U1,43,PA10_43*%
%TO.N,unconnected-(U1-PA10-Pad43)*%
X123475000Y-93125000D03*
%TO.P,U1,44,PA11_44*%
%TO.N,/D-*%
X123475000Y-92625000D03*
%TO.P,U1,45,PA12_45*%
%TO.N,/D+*%
X123475000Y-92125000D03*
%TO.P,U1,46,PA13_46*%
%TO.N,/SWDIO*%
X123475000Y-91625000D03*
%TO.P,U1,47,VSS_47*%
%TO.N,GND*%
X123475000Y-91125000D03*
%TO.P,U1,48,VDD_48*%
%TO.N,/Vreg*%
X123475000Y-90625000D03*
D14*
%TO.P,U1,49,PA14_49*%
%TO.N,/SWCLK*%
X121550000Y-88700000D03*
%TO.P,U1,50,PA15_50*%
%TO.N,unconnected-(U1-PA15-Pad50)*%
X121050000Y-88700000D03*
%TO.P,U1,51,PC10_51*%
%TO.N,unconnected-(U1-PC10-Pad51)*%
X120550000Y-88700000D03*
%TO.P,U1,52,PC11_52*%
%TO.N,unconnected-(U1-PC11-Pad52)*%
X120050000Y-88700000D03*
%TO.P,U1,53,PC12_53*%
%TO.N,unconnected-(U1-PC12-Pad53)*%
X119550000Y-88700000D03*
%TO.P,U1,54,PD2_54*%
%TO.N,/O2*%
X119050000Y-88700000D03*
%TO.P,U1,55,PB3_55*%
%TO.N,unconnected-(U1-PB3-Pad55)*%
X118550000Y-88700000D03*
%TO.P,U1,56,PB4_56*%
%TO.N,unconnected-(U1-PB4-Pad56)*%
X118050000Y-88700000D03*
%TO.P,U1,57,PB5_57*%
%TO.N,unconnected-(U1-PB5-Pad57)*%
X117550000Y-88700000D03*
%TO.P,U1,58,PB6_58*%
%TO.N,/SCL*%
X117050000Y-88700000D03*
%TO.P,U1,59,PB7_59*%
%TO.N,/SDA*%
X116550000Y-88700000D03*
%TO.P,U1,60,BOOT0_60*%
%TO.N,Net-(U1-BOOT0)*%
X116050000Y-88700000D03*
%TO.P,U1,61,PB8_61*%
%TO.N,unconnected-(U1-PB8-Pad61)*%
X115550000Y-88700000D03*
%TO.P,U1,62,PB9_62*%
%TO.N,unconnected-(U1-PB9-Pad62)*%
X115050000Y-88700000D03*
%TO.P,U1,63,VSS_63*%
%TO.N,GND*%
X114550000Y-88700000D03*
%TO.P,U1,64,VDD_64*%
%TO.N,/Vreg*%
X114050000Y-88700000D03*
%TD*%
D12*
%TO.P,C11,1*%
%TO.N,GND*%
X121100000Y-102400000D03*
%TO.P,C11,2*%
%TO.N,Net-(U1-VCAP1)*%
X119200000Y-102400000D03*
%TD*%
D15*
%TO.P,C7,1*%
%TO.N,/Vreg*%
X124200000Y-103150000D03*
%TO.P,C7,2*%
%TO.N,GND*%
X124200000Y-101250000D03*
%TD*%
D16*
%TO.P,U2,1,GND_1*%
%TO.N,GND*%
X132600000Y-106250000D03*
%TO.P,U2,2,VO_2*%
%TO.N,/Vreg*%
X130300000Y-106250000D03*
%TO.P,U2,3,VI_3*%
%TO.N,Net-(U2-VI)*%
X128000000Y-106250000D03*
D17*
%TO.P,U2,4*%
%TO.N,N/C*%
X130300000Y-112550000D03*
%TD*%
D18*
%TO.P,R1,1*%
%TO.N,/Vreg*%
X131800000Y-82900000D03*
%TO.P,R1,2*%
%TO.N,/O1*%
X129975000Y-82900000D03*
%TD*%
D12*
%TO.P,C13,1*%
%TO.N,/Vreg*%
X108950000Y-99000000D03*
%TO.P,C13,2*%
%TO.N,GND*%
X107050000Y-99000000D03*
%TD*%
D19*
%TO.P,F1,1*%
%TO.N,Net-(J1A-VBUS)*%
X129300000Y-95900000D03*
%TO.P,F1,2*%
%TO.N,Net-(U2-VI)*%
X129300000Y-98700000D03*
%TD*%
D20*
%TO.P,gpio,1,Pin_1_1*%
%TO.N,/Vreg*%
X106940000Y-117600000D03*
D21*
%TO.P,gpio,2,Pin_2_2*%
%TO.N,/G1*%
X109480000Y-117600000D03*
%TO.P,gpio,3,Pin_3_3*%
%TO.N,/G2*%
X112020000Y-117600000D03*
%TO.P,gpio,4,Pin_4_4*%
%TO.N,/G3*%
X114560000Y-117600000D03*
%TO.P,gpio,5,Pin_5_5*%
%TO.N,/G4*%
X117100000Y-117600000D03*
%TO.P,gpio,6,Pin_6_6*%
%TO.N,/G5*%
X119640000Y-117600000D03*
%TO.P,gpio,7,Pin_7_7*%
%TO.N,/G6*%
X122180000Y-117600000D03*
%TO.P,gpio,8,Pin_8_8*%
%TO.N,/G7*%
X124720000Y-117600000D03*
%TO.P,gpio,9,Pin_9_9*%
%TO.N,/G8*%
X127260000Y-117600000D03*
%TO.P,gpio,10,Pin_10_10*%
%TO.N,GND*%
X129800000Y-117600000D03*
%TD*%
D12*
%TO.P,C14,1*%
%TO.N,/Vreg*%
X110800000Y-87100000D03*
%TO.P,C14,2*%
%TO.N,GND*%
X108900000Y-87100000D03*
%TD*%
D11*
%TO.P,C3,1*%
%TO.N,GND*%
X107500000Y-92500000D03*
%TO.P,C3,2*%
%TO.N,Net-(U1-PH0)*%
X109400000Y-92500000D03*
%TD*%
D10*
%TO.P,C4,1*%
%TO.N,Net-(U1-PH1)*%
X108800000Y-94500000D03*
%TO.P,C4,2*%
%TO.N,GND*%
X108800000Y-96400000D03*
%TD*%
D22*
%TO.P,R4,1*%
%TO.N,/Vreg*%
X102400000Y-116825000D03*
%TO.P,R4,2*%
%TO.N,Net-(D1-K)*%
X102400000Y-115000000D03*
%TD*%
D23*
%TO.P,D2,1,K_1*%
%TO.N,Net-(D2-K)*%
X105237500Y-108000000D03*
%TO.P,D2,2,A_2*%
%TO.N,GND*%
X103362500Y-108000000D03*
%TD*%
D20*
%TO.P,SWD,1,Pin_1_1*%
%TO.N,/Vreg*%
X136700000Y-103760000D03*
D21*
%TO.P,SWD,2,Pin_2_2*%
%TO.N,/SWCLK*%
X136700000Y-106300000D03*
%TO.P,SWD,3,Pin_3_3*%
%TO.N,/SWDIO*%
X136700000Y-108840000D03*
%TO.P,SWD,4,Pin_4_4*%
%TO.N,/O1*%
X136700000Y-111380000D03*
%TO.P,SWD,5,Pin_5_5*%
%TO.N,GND*%
X136700000Y-113920000D03*
%TD*%
D22*
%TO.P,R7,1*%
%TO.N,/SDA*%
X100200000Y-83925000D03*
%TO.P,R7,2*%
%TO.N,/Vreg*%
X100200000Y-82100000D03*
%TD*%
D24*
%TO.P,R5,1*%
%TO.N,GND*%
X109087500Y-82400000D03*
%TO.P,R5,2*%
%TO.N,Net-(U1-BOOT0)*%
X110912500Y-82400000D03*
%TD*%
D11*
%TO.P,C8,1*%
%TO.N,/Vreg*%
X125900000Y-89800000D03*
%TO.P,C8,2*%
%TO.N,GND*%
X127800000Y-89800000D03*
%TD*%
D25*
%TO.P,SW2,1,1_1*%
%TO.N,/O2*%
X123500000Y-80200000D03*
X118250000Y-80200000D03*
%TO.P,SW2,2,2_2*%
%TO.N,GND*%
X123500000Y-77000000D03*
X118250000Y-77000000D03*
%TD*%
D22*
%TO.P,R2,1*%
%TO.N,/Vreg*%
X113100000Y-79612500D03*
%TO.P,R2,2*%
%TO.N,/O2*%
X113100000Y-77787500D03*
%TD*%
D11*
%TO.P,C9,1*%
%TO.N,/Vreg*%
X124800000Y-87400000D03*
%TO.P,C9,2*%
%TO.N,GND*%
X126700000Y-87400000D03*
%TD*%
D26*
%TO.P,SW1,1,1_1*%
%TO.N,/O1*%
X129575000Y-77000000D03*
X134825000Y-77000000D03*
%TO.P,SW1,2,2_2*%
%TO.N,GND*%
X129575000Y-80200000D03*
X134825000Y-80200000D03*
%TD*%
D27*
%TO.P,USB,1,VBUS_1*%
%TO.N,Net-(J1A-VBUS)*%
X134652500Y-92200000D03*
%TO.P,USB,2,D-_2*%
%TO.N,/D-*%
X134652500Y-91550000D03*
%TO.P,USB,3,D+_3*%
%TO.N,/D+*%
X134652500Y-90900000D03*
%TO.P,USB,4,ID_4*%
%TO.N,unconnected-(J1A-ID-Pad4)*%
X134652500Y-90250000D03*
%TO.P,USB,5,GND_5*%
%TO.N,GND*%
X134652500Y-89600000D03*
D28*
%TO.P,USB,S1*%
X135172500Y-95850000D03*
%TO.P,USB,S2*%
X139172500Y-95850000D03*
%TO.P,USB,S3*%
X139172500Y-85950000D03*
%TO.P,USB,S4*%
X135172500Y-85950000D03*
%TD*%
D24*
%TO.P,R3,1*%
%TO.N,/O3*%
X103475000Y-103800000D03*
%TO.P,R3,2*%
%TO.N,Net-(D2-K)*%
X105300000Y-103800000D03*
%TD*%
D23*
%TO.P,D1,1,K_1*%
%TO.N,Net-(D1-K)*%
X105200000Y-112000000D03*
%TO.P,D1,2,A_2*%
%TO.N,GND*%
X103325000Y-112000000D03*
%TD*%
D18*
%TO.P,R6,1*%
%TO.N,/SCL*%
X105600000Y-82400000D03*
%TO.P,R6,2*%
%TO.N,/Vreg*%
X103775000Y-82400000D03*
%TD*%
D20*
%TO.P,I2C,1,Pin_1_1*%
%TO.N,/Vreg*%
X100380000Y-77900000D03*
D21*
%TO.P,I2C,2,Pin_2_2*%
%TO.N,/SDA*%
X102920000Y-77900000D03*
%TO.P,I2C,3,Pin_3_3*%
%TO.N,/SCL*%
X105460000Y-77900000D03*
%TO.P,I2C,4,Pin_4_4*%
%TO.N,GND*%
X108000000Y-77900000D03*
%TD*%
D10*
%TO.P,C6,1*%
%TO.N,/Vreg*%
X112500000Y-103000000D03*
%TO.P,C6,2*%
%TO.N,GND*%
X112500000Y-104900000D03*
%TD*%
D29*
%TO.P,Y1 8MHz,1,1_1*%
%TO.N,Net-(U1-PH1)*%
X103100000Y-97150000D03*
%TO.P,Y1 8MHz,2,2_2*%
%TO.N,Net-(U1-PH0)*%
X103100000Y-88650000D03*
%TD*%
D20*
%TO.P,SPI,1,Pin_1_1*%
%TO.N,/Vreg*%
X110440000Y-111300000D03*
D21*
%TO.P,SPI,2,Pin_2_2*%
%TO.N,/MISO*%
X112980000Y-111300000D03*
%TO.P,SPI,3,Pin_3_3*%
%TO.N,/MOSI*%
X115520000Y-111300000D03*
%TO.P,SPI,4,Pin_4_4*%
%TO.N,/SCK*%
X118060000Y-111300000D03*
%TO.P,SPI,5,Pin_5_5*%
%TO.N,/CS*%
X120600000Y-111300000D03*
%TO.P,SPI,6,Pin_6_6*%
%TO.N,GND*%
X123140000Y-111300000D03*
%TD*%
D11*
%TO.P,C12,1*%
%TO.N,/Vreg*%
X121100000Y-85600000D03*
%TO.P,C12,2*%
%TO.N,GND*%
X123000000Y-85600000D03*
%TD*%
D20*
%TO.P,UART,1,Pin_1_1*%
%TO.N,/Vreg*%
X99600000Y-111120000D03*
D21*
%TO.P,UART,2,Pin_2_2*%
%TO.N,/TX*%
X99600000Y-108580000D03*
%TO.P,UART,3,Pin_3_3*%
%TO.N,/RX*%
X99600000Y-106040000D03*
%TO.P,UART,4,Pin_4_4*%
%TO.N,GND*%
X99600000Y-103500000D03*
%TD*%
D30*
%TO.N,/Vreg*%
X111285000Y-84515200D03*
X112383400Y-89321400D03*
%TO.N,GND*%
X106459400Y-92608900D03*
%TO.N,/O1*%
X129075900Y-83799100D03*
X115179000Y-93575500D03*
X132217500Y-77000000D03*
%TO.N,/O3*%
X103475000Y-102584100D03*
X110166000Y-95121100D03*
%TO.N,/G1*%
X113700600Y-94802700D03*
%TO.N,/G2*%
X113757700Y-95625000D03*
%TO.N,/TX*%
X112125000Y-98796100D03*
%TO.N,/RX*%
X112930900Y-100050000D03*
%TO.N,/CS*%
X115200000Y-98769100D03*
X114940500Y-109188600D03*
%TO.N,/SCK*%
X116063700Y-98770400D03*
%TO.N,/MISO*%
X116266700Y-107212400D03*
X116379200Y-101831300D03*
%TO.N,/MOSI*%
X117020800Y-101332600D03*
%TO.N,/G3*%
X117162900Y-98769800D03*
%TO.N,/G4*%
X118066300Y-108465900D03*
X118066300Y-98770800D03*
%TO.N,/G5*%
X120711400Y-96533300D03*
%TO.N,/G6*%
X121772400Y-95625000D03*
%TO.N,/G7*%
X125100000Y-95100000D03*
%TO.N,/G8*%
X121454100Y-94769200D03*
X127580300Y-114699500D03*
%TO.N,/SWDIO*%
X122188100Y-92026100D03*
%TO.N,/SWCLK*%
X122214000Y-88700000D03*
%TO.N,/O2*%
X119050000Y-87405600D03*
X118050500Y-81203200D03*
%TO.N,/SCL*%
X117050000Y-87404700D03*
%TO.N,/SDA*%
X99306100Y-83031100D03*
X116151500Y-87410900D03*
%TO.N,Net-(U1-BOOT0)*%
X116050000Y-89986100D03*
X111803000Y-83290500D03*
%TD*%
%TO.N,/Vreg*%
D31*
X114600000Y-103000000D02*
X115050000Y-102550000D01*
X122900000Y-87400000D02*
X124800000Y-87400000D01*
X112500000Y-103000000D02*
X114600000Y-103000000D01*
X112650000Y-85600000D02*
X112650000Y-84515200D01*
X115500000Y-103000000D02*
X115050000Y-102550000D01*
X130300000Y-106250000D02*
X132790000Y-103760000D01*
X112383400Y-90366600D02*
X112125000Y-90625000D01*
X106940000Y-117600000D02*
X103175000Y-117600000D01*
X136700000Y-103760000D02*
X136700000Y-99400000D01*
X113100000Y-84513500D02*
X120013500Y-84513500D01*
X112075500Y-96674500D02*
X112125000Y-96625000D01*
X124300000Y-89800000D02*
X123475000Y-90625000D01*
X123650000Y-103150000D02*
X124200000Y-103150000D01*
X121550000Y-101050000D02*
X123650000Y-103150000D01*
X110800000Y-87100000D02*
X112450000Y-87100000D01*
X100380000Y-77900000D02*
X100380000Y-81920000D01*
X112450000Y-87100000D02*
X114050000Y-88700000D01*
X121550000Y-100050000D02*
X121550000Y-101050000D01*
X113098300Y-84515200D02*
X113100000Y-84513500D01*
X136700000Y-99400000D02*
X137300000Y-98800000D01*
X110440000Y-111300000D02*
X110803700Y-111300000D01*
X120013500Y-84513500D02*
X121100000Y-85600000D01*
X100200000Y-82100000D02*
X103475000Y-82100000D01*
X108950000Y-98203800D02*
X110528800Y-96625000D01*
X114050000Y-88700000D02*
X113428600Y-89321400D01*
X113428600Y-89321400D02*
X112383400Y-89321400D01*
X115050000Y-102550000D02*
X115050000Y-100050000D01*
X125100000Y-105700000D02*
X125100000Y-104050000D01*
X112650000Y-84515200D02*
X113098300Y-84515200D01*
X121100000Y-105700000D02*
X118200000Y-105700000D01*
X112383400Y-89321400D02*
X109604600Y-89321400D01*
X110803700Y-111300000D02*
X116403700Y-105700000D01*
X129000000Y-107550000D02*
X126950000Y-107550000D01*
X109604600Y-89321400D02*
X103775000Y-83491800D01*
X122127700Y-84572300D02*
X121100000Y-85600000D01*
X123650000Y-103150000D02*
X121100000Y-105700000D01*
X113100000Y-84513500D02*
X113100000Y-79612500D01*
X103175000Y-117600000D02*
X102400000Y-116825000D01*
X121100000Y-85600000D02*
X122900000Y-87400000D01*
X130300000Y-106250000D02*
X129000000Y-107550000D01*
X110528800Y-96625000D02*
X112125000Y-96625000D01*
X111285000Y-84515200D02*
X112650000Y-84515200D01*
X100380000Y-81920000D02*
X100200000Y-82100000D01*
X132790000Y-103760000D02*
X136700000Y-103760000D01*
X125100000Y-104050000D02*
X124200000Y-103150000D01*
X116403700Y-105700000D02*
X118200000Y-105700000D01*
X124800000Y-87400000D02*
X124800000Y-89800000D01*
X112500000Y-103000000D02*
X108950000Y-99450000D01*
X126950000Y-107550000D02*
X125100000Y-105700000D01*
X131800000Y-82900000D02*
X130127700Y-84572300D01*
X103775000Y-83491800D02*
X103775000Y-82400000D01*
X112383400Y-89321400D02*
X112383400Y-90366600D01*
X108950000Y-99450000D02*
X108950000Y-99000000D01*
X124600000Y-103150000D02*
X123650000Y-103150000D01*
X125900000Y-89800000D02*
X124300000Y-89800000D01*
X103475000Y-82100000D02*
X103775000Y-82400000D01*
X108950000Y-99000000D02*
X108950000Y-98203800D01*
X118200000Y-105700000D02*
X115500000Y-103000000D01*
X124500000Y-103050000D02*
X124600000Y-103150000D01*
X130127700Y-84572300D02*
X122127700Y-84572300D01*
%TO.N,GND*%
X133672500Y-85950000D02*
X128150000Y-85950000D01*
X135400000Y-98800000D02*
X135174200Y-98800000D01*
X108559600Y-100959600D02*
X107100000Y-100959600D01*
X133672500Y-81352500D02*
X133672500Y-85950000D01*
X118250000Y-77000000D02*
X123500000Y-77000000D01*
X103362500Y-111962500D02*
X103362500Y-108000000D01*
X107391100Y-92608900D02*
X107500000Y-92500000D01*
X108800000Y-96400000D02*
X109075000Y-96125000D01*
X114550000Y-86631100D02*
X112096200Y-86631100D01*
X114550000Y-98116500D02*
X114550000Y-100050000D01*
X112500000Y-104900000D02*
X108559600Y-100959600D01*
X132600000Y-106250000D02*
X134600000Y-108250000D01*
X112075500Y-96174500D02*
X112125000Y-96125000D01*
X118163300Y-76913300D02*
X118250000Y-77000000D01*
X121050000Y-99194000D02*
X119972500Y-98116500D01*
X127800000Y-89600000D02*
X127800000Y-89800000D01*
X119972500Y-98116500D02*
X114550000Y-98116500D01*
X107050000Y-99000000D02*
X107050000Y-100909600D01*
X135174200Y-95850000D02*
X135174200Y-97768700D01*
X121100000Y-102400000D02*
X121100000Y-100100000D01*
X108800000Y-96400000D02*
X108800000Y-96174500D01*
X109087500Y-86025700D02*
X109087500Y-86912500D01*
X135174200Y-97768700D02*
X135174200Y-98800000D01*
X114550000Y-97734900D02*
X114550000Y-98116500D01*
X114550000Y-89590300D02*
X116084700Y-91125000D01*
X123140000Y-110800000D02*
X123140000Y-111300000D01*
X126700000Y-87400000D02*
X126700000Y-88700000D01*
X112125000Y-96125000D02*
X112940100Y-96125000D01*
X107050000Y-98150000D02*
X108800000Y-96400000D01*
X134600000Y-108250000D02*
X134600000Y-111820000D01*
X109087500Y-82400000D02*
X109087500Y-78987500D01*
X123140000Y-111300000D02*
X127550000Y-111300000D01*
X121050000Y-100050000D02*
X121050000Y-99194000D01*
X134900000Y-98800000D02*
X131700000Y-102000000D01*
X116084700Y-91125000D02*
X123475000Y-91125000D01*
X134652500Y-89600000D02*
X127800000Y-89600000D01*
X135174200Y-98800000D02*
X134900000Y-98800000D01*
X134600000Y-111820000D02*
X136700000Y-113920000D01*
X123500000Y-77000000D02*
X126375000Y-77000000D01*
X126700000Y-87400000D02*
X124900000Y-85600000D01*
X107050000Y-100959600D02*
X102140400Y-100959600D01*
X112500000Y-104900000D02*
X115500000Y-104900000D01*
X126700000Y-88700000D02*
X127800000Y-89800000D01*
X112096200Y-86631100D02*
X111490800Y-86025700D01*
X124006500Y-98901600D02*
X121298400Y-98901600D01*
X106459400Y-92608900D02*
X107391100Y-92608900D01*
X103325000Y-112000000D02*
X103362500Y-111962500D01*
X121000000Y-102400000D02*
X120750000Y-102150000D01*
X109075000Y-96125000D02*
X112125000Y-96125000D01*
X127550000Y-111300000D02*
X132600000Y-106250000D01*
X126375000Y-77000000D02*
X129575000Y-80200000D01*
X124006500Y-101056500D02*
X124006500Y-98901600D01*
X109087500Y-86912500D02*
X108900000Y-87100000D01*
X124200000Y-101250000D02*
X124006500Y-101056500D01*
X134825000Y-80200000D02*
X133672500Y-81352500D01*
X99600000Y-103500000D02*
X103362500Y-107262500D01*
X139172500Y-95850000D02*
X135174200Y-95850000D01*
X107100000Y-100959600D02*
X107050000Y-100959600D01*
X112940100Y-96125000D02*
X114550000Y-97734900D01*
X109087500Y-78987500D02*
X108000000Y-77900000D01*
X121100000Y-100100000D02*
X121050000Y-100050000D01*
X102140400Y-100959600D02*
X99600000Y-103500000D01*
X128150000Y-85950000D02*
X126700000Y-87400000D01*
X135400000Y-95624200D02*
X135174200Y-95850000D01*
X111490800Y-86025700D02*
X109087500Y-86025700D01*
X121298400Y-98901600D02*
X121028000Y-99172000D01*
X133672500Y-85950000D02*
X139172500Y-85950000D01*
X103362500Y-107262500D02*
X103362500Y-108000000D01*
X107050000Y-99000000D02*
X107050000Y-98150000D01*
X124900000Y-85600000D02*
X123000000Y-85600000D01*
X134825000Y-80200000D02*
X129575000Y-80200000D01*
X107050000Y-100909600D02*
X107100000Y-100959600D01*
X114550000Y-88700000D02*
X114550000Y-89590300D01*
X114550000Y-86631100D02*
X114550000Y-88700000D01*
X109087500Y-82400000D02*
X109087500Y-86025700D01*
X114550000Y-85600000D02*
X114550000Y-86631100D01*
%TO.N,Net-(U2-VI)*%
X129300000Y-101500000D02*
X129800000Y-102000000D01*
X128000000Y-106250000D02*
X128000000Y-103800000D01*
X128000000Y-103800000D02*
X129800000Y-102000000D01*
X129300000Y-98700000D02*
X129300000Y-101500000D01*
%TO.N,Net-(U1-PH0)*%
X109525000Y-92625000D02*
X112125000Y-92625000D01*
X109400000Y-92500000D02*
X105550000Y-88650000D01*
X109400000Y-92500000D02*
X109650000Y-92750000D01*
X109400000Y-92500000D02*
X109525000Y-92625000D01*
X105550000Y-88650000D02*
X103100000Y-88650000D01*
%TO.N,Net-(U1-PH1)*%
X112016000Y-93125000D02*
X112125000Y-93125000D01*
X111991000Y-93150000D02*
X112016000Y-93125000D01*
X109943000Y-94500000D02*
X111318000Y-93125000D01*
X105750000Y-94500000D02*
X103100000Y-97150000D01*
X111318000Y-93125000D02*
X112125000Y-93125000D01*
X108800000Y-94500000D02*
X109943000Y-94500000D01*
X108800000Y-94500000D02*
X105750000Y-94500000D01*
%TO.N,/O1*%
X112125000Y-93625000D02*
X112174500Y-93575500D01*
X132217500Y-77000000D02*
X129575000Y-77000000D01*
X129075900Y-83799100D02*
X129975000Y-82900000D01*
X112174500Y-93575500D02*
X115179000Y-93575500D01*
X134825000Y-77000000D02*
X132217500Y-77000000D01*
%TO.N,/O3*%
X110166000Y-95121100D02*
X111162100Y-94125000D01*
X111162100Y-94125000D02*
X112125000Y-94125000D01*
X112075500Y-94174500D02*
X112125000Y-94125000D01*
X103475000Y-103800000D02*
X103475000Y-102584100D01*
%TO.N,/G1*%
X113378300Y-95125000D02*
X112125000Y-95125000D01*
X113700600Y-94802700D02*
X113378300Y-95125000D01*
%TO.N,/G2*%
X112125000Y-95625000D02*
X113757700Y-95625000D01*
%TO.N,/TX*%
X112125000Y-98125000D02*
X112125000Y-98796100D01*
%TO.N,/RX*%
X114050000Y-100050000D02*
X112930900Y-100050000D01*
%TO.N,/CS*%
X120600000Y-110800000D02*
X120600000Y-111300000D01*
X118988600Y-109188600D02*
X120600000Y-110800000D01*
X114940500Y-109188600D02*
X118988600Y-109188600D01*
X115550000Y-99119100D02*
X115550000Y-100050000D01*
X115200000Y-98769100D02*
X115550000Y-99119100D01*
%TO.N,/SCK*%
X116050000Y-98784100D02*
X116063700Y-98770400D01*
X116050000Y-100050000D02*
X116050000Y-98784100D01*
%TO.N,/MISO*%
X112980000Y-110298000D02*
X116065600Y-107212400D01*
X116550000Y-100952300D02*
X116550000Y-100050000D01*
X116379200Y-101831300D02*
X116379200Y-101123100D01*
X112980000Y-111300000D02*
X112980000Y-110298000D01*
X116379200Y-101123100D02*
X116550000Y-100952300D01*
X116065600Y-107212400D02*
X116266700Y-107212400D01*
%TO.N,/MOSI*%
X117050000Y-101303400D02*
X117020800Y-101332600D01*
X117050000Y-100050000D02*
X117050000Y-101303400D01*
%TO.N,/G3*%
X117162900Y-98769800D02*
X117550000Y-99156900D01*
X117550000Y-99156900D02*
X117550000Y-100050000D01*
%TO.N,/G4*%
X118050000Y-100050000D02*
X118050000Y-98787100D01*
X121773000Y-112927000D02*
X121773000Y-110316400D01*
X118050000Y-98787100D02*
X118066300Y-98770800D01*
X121773000Y-110316400D02*
X119922500Y-108465900D01*
X119922500Y-108465900D02*
X118066300Y-108465900D01*
X117100000Y-117600000D02*
X121773000Y-112927000D01*
%TO.N,Net-(U1-VCAP1)*%
X120550000Y-101050000D02*
X120550000Y-100050000D01*
X119200000Y-102400000D02*
X120550000Y-101050000D01*
%TO.N,/G5*%
X121786600Y-96533300D02*
X122194900Y-96125000D01*
X120711400Y-96533300D02*
X121786600Y-96533300D01*
X122194900Y-96125000D02*
X123475000Y-96125000D01*
%TO.N,/G6*%
X121772400Y-95625000D02*
X123475000Y-95625000D01*
%TO.N,/G7*%
X125100000Y-95100000D02*
X123500000Y-95100000D01*
X123500000Y-95100000D02*
X123475000Y-95125000D01*
%TO.N,/G8*%
X123475000Y-94625000D02*
X121598300Y-94625000D01*
X121598300Y-94625000D02*
X121454100Y-94769200D01*
X127260000Y-117600000D02*
X127580300Y-117279700D01*
X127580300Y-117279700D02*
X127580300Y-114699500D01*
%TO.N,/D-*%
X125423000Y-91550000D02*
X124348000Y-92625000D01*
X134652500Y-91550000D02*
X125423000Y-91550000D01*
X124348000Y-92625000D02*
X123475000Y-92625000D01*
%TO.N,/D+*%
X125507000Y-90900000D02*
X124282000Y-92125000D01*
X124282000Y-92125000D02*
X123475000Y-92125000D01*
X134652500Y-90900000D02*
X125507000Y-90900000D01*
%TO.N,/SWDIO*%
X123475000Y-91625000D02*
X122589200Y-91625000D01*
X122589200Y-91625000D02*
X122188100Y-92026100D01*
%TO.N,/SWCLK*%
X122214000Y-88700000D02*
X121550000Y-88700000D01*
%TO.N,/O2*%
X113100000Y-77787500D02*
X115638000Y-77787500D01*
X118050500Y-81203200D02*
X118050500Y-80200000D01*
X118250000Y-80200000D02*
X123500000Y-80200000D01*
X119050000Y-88700000D02*
X119050000Y-87405600D01*
X118050500Y-80200000D02*
X118250000Y-80200000D01*
X115638000Y-77787500D02*
X118050500Y-80200000D01*
%TO.N,/SCL*%
X117050000Y-88700000D02*
X117050000Y-87404700D01*
X105460000Y-77900000D02*
X105460000Y-82260000D01*
X105460000Y-82260000D02*
X105600000Y-82400000D01*
%TO.N,/SDA*%
X116550000Y-87809400D02*
X116151500Y-87410900D01*
X99306100Y-83031100D02*
X100200000Y-83925000D01*
X116550000Y-88700000D02*
X116550000Y-87809400D01*
%TO.N,Net-(U1-BOOT0)*%
X116050000Y-88700000D02*
X116050000Y-89986100D01*
X110912500Y-82400000D02*
X111803000Y-83290500D01*
%TO.N,Net-(J1A-VBUS)*%
X134652500Y-92200000D02*
X132300800Y-92200000D01*
X129300000Y-95200800D02*
X129300000Y-95900000D01*
X132300800Y-92200000D02*
X129300000Y-95200800D01*
%TO.N,Net-(D1-K)*%
X105200000Y-112000000D02*
X105200000Y-112200000D01*
X105200000Y-112200000D02*
X102400000Y-115000000D01*
%TO.N,Net-(D2-K)*%
X105237500Y-108000000D02*
X105300000Y-107937500D01*
X105300000Y-107937500D02*
X105300000Y-103800000D01*
%TD*%
M02*
