M48
; DRILL file KiCad 10.0.5 date 2026-09-15T23:30:36
; FORMAT={-:-/ absolute / metric / decimal}
; #@! TF.CreationDate,2026-09-15T23:30:36+05:30
; #@! TF.GenerationSoftware,Kicad,Pcbnew,10.0.5
; #@! TF.FileFunction,Plated,1,2,PTH
FMAT,2
METRIC
; #@! TA.AperFunction,Plated,PTH,ViaDrill
T1C0.300
; #@! TA.AperFunction,Plated,PTH,ComponentDrill
T2C0.600
; #@! TA.AperFunction,Plated,PTH,ComponentDrill
T3C1.000
%
G90
G05
T1
X99.306Y-83.031
X103.475Y-102.584
X106.459Y-92.609
X110.166Y-95.121
X111.285Y-84.515
X111.803Y-83.29
X112.125Y-98.796
X112.383Y-89.321
X112.931Y-100.05
X113.701Y-94.803
X113.758Y-95.625
X114.941Y-109.189
X115.179Y-93.575
X115.2Y-98.769
X116.05Y-89.986
X116.064Y-98.77
X116.151Y-87.411
X116.267Y-107.212
X116.379Y-101.831
X117.021Y-101.333
X117.05Y-87.405
X117.163Y-98.77
X118.05Y-81.203
X118.066Y-98.771
X118.066Y-108.466
X119.05Y-87.406
X120.711Y-96.533
X121.454Y-94.769
X121.772Y-95.625
X122.188Y-92.026
X122.214Y-88.7
X125.1Y-95.1
X127.58Y-114.7
X129.076Y-83.799
X132.218Y-77.0
T3
X99.6Y-103.5
X99.6Y-106.04
X99.6Y-108.58
X99.6Y-111.12
X100.38Y-77.9
X102.92Y-77.9
X105.46Y-77.9
X106.94Y-117.6
X108.0Y-77.9
X109.48Y-117.6
X110.44Y-111.3
X112.02Y-117.6
X112.98Y-111.3
X114.56Y-117.6
X115.52Y-111.3
X117.1Y-117.6
X118.06Y-111.3
X119.64Y-117.6
X120.6Y-111.3
X122.18Y-117.6
X123.14Y-111.3
X124.72Y-117.6
X127.26Y-117.6
X129.8Y-117.6
X136.7Y-103.76
X136.7Y-106.3
X136.7Y-108.84
X136.7Y-111.38
X136.7Y-113.92
T2
G00X134.722Y-85.95
M15
G01X135.623Y-85.95
M16
G05
G00X134.722Y-95.85
M15
G01X135.623Y-95.85
M16
G05
G00X138.572Y-85.95
M15
G01X139.772Y-85.95
M16
G05
G00X138.572Y-95.85
M15
G01X139.772Y-95.85
M16
G05
M30
