%TF.GenerationSoftware,KiCad,Pcbnew,10.0.5*%
%TF.CreationDate,2026-09-15T23:29:13+05:30*%
%TF.ProjectId,comp pcb1,636f6d70-2070-4636-9231-2e6b69636164,rev?*%
%TF.SameCoordinates,Original*%
%TF.FileFunction,Copper,L2,Bot*%
%TF.FilePolarity,Positive*%
%FSLAX46Y46*%
G04 Gerber Fmt 4.6, Leading zero omitted, Abs format (unit mm)*
G04 Created by KiCad (PCBNEW 10.0.5) date 2026-09-15 23:29:13*
%MOMM*%
%LPD*%
G01*
G04 APERTURE LIST*
%TA.AperFunction,ComponentPad*%
%ADD10R,1.700000X1.700000*%
%TD*%
%TA.AperFunction,ComponentPad*%
%ADD11C,1.700000*%
%TD*%
%TA.AperFunction,ComponentPad*%
%ADD12O,2.400000X1.200000*%
%TD*%
%TA.AperFunction,ViaPad*%
%ADD13C,0.600000*%
%TD*%
%TA.AperFunction,Conductor*%
%ADD14C,0.200000*%
%TD*%
G04 APERTURE END LIST*
D10*
%TO.P,gpio,1,Pin_1_1*%
%TO.N,/Vreg*%
X106940000Y-117600000D03*
D11*
%TO.P,gpio,2,Pin_2_2*%
%TO.N,/G1*%
X109480000Y-117600000D03*
%TO.P,gpio,3,Pin_3_3*%
%TO.N,/G2*%
X112020000Y-117600000D03*
%TO.P,gpio,4,Pin_4_4*%
%TO.N,/G3*%
X114560000Y-117600000D03*
%TO.P,gpio,5,Pin_5_5*%
%TO.N,/G4*%
X117100000Y-117600000D03*
%TO.P,gpio,6,Pin_6_6*%
%TO.N,/G5*%
X119640000Y-117600000D03*
%TO.P,gpio,7,Pin_7_7*%
%TO.N,/G6*%
X122180000Y-117600000D03*
%TO.P,gpio,8,Pin_8_8*%
%TO.N,/G7*%
X124720000Y-117600000D03*
%TO.P,gpio,9,Pin_9_9*%
%TO.N,/G8*%
X127260000Y-117600000D03*
%TO.P,gpio,10,Pin_10_10*%
%TO.N,GND*%
X129800000Y-117600000D03*
%TD*%
D10*
%TO.P,SWD,1,Pin_1_1*%
%TO.N,/Vreg*%
X136700000Y-103760000D03*
D11*
%TO.P,SWD,2,Pin_2_2*%
%TO.N,/SWCLK*%
X136700000Y-106300000D03*
%TO.P,SWD,3,Pin_3_3*%
%TO.N,/SWDIO*%
X136700000Y-108840000D03*
%TO.P,SWD,4,Pin_4_4*%
%TO.N,/O1*%
X136700000Y-111380000D03*
%TO.P,SWD,5,Pin_5_5*%
%TO.N,GND*%
X136700000Y-113920000D03*
%TD*%
D12*
%TO.P,USB,S1*%
%TO.N,GND*%
X135172500Y-95850000D03*
%TO.P,USB,S2*%
X139172500Y-95850000D03*
%TO.P,USB,S3*%
X139172500Y-85950000D03*
%TO.P,USB,S4*%
X135172500Y-85950000D03*
%TD*%
D10*
%TO.P,I2C,1,Pin_1_1*%
%TO.N,/Vreg*%
X100380000Y-77900000D03*
D11*
%TO.P,I2C,2,Pin_2_2*%
%TO.N,/SDA*%
X102920000Y-77900000D03*
%TO.P,I2C,3,Pin_3_3*%
%TO.N,/SCL*%
X105460000Y-77900000D03*
%TO.P,I2C,4,Pin_4_4*%
%TO.N,GND*%
X108000000Y-77900000D03*
%TD*%
D10*
%TO.P,SPI,1,Pin_1_1*%
%TO.N,/Vreg*%
X110440000Y-111300000D03*
D11*
%TO.P,SPI,2,Pin_2_2*%
%TO.N,/MISO*%
X112980000Y-111300000D03*
%TO.P,SPI,3,Pin_3_3*%
%TO.N,/MOSI*%
X115520000Y-111300000D03*
%TO.P,SPI,4,Pin_4_4*%
%TO.N,/SCK*%
X118060000Y-111300000D03*
%TO.P,SPI,5,Pin_5_5*%
%TO.N,/CS*%
X120600000Y-111300000D03*
%TO.P,SPI,6,Pin_6_6*%
%TO.N,GND*%
X123140000Y-111300000D03*
%TD*%
D10*
%TO.P,UART,1,Pin_1_1*%
%TO.N,/Vreg*%
X99600000Y-111120000D03*
D11*
%TO.P,UART,2,Pin_2_2*%
%TO.N,/TX*%
X99600000Y-108580000D03*
%TO.P,UART,3,Pin_3_3*%
%TO.N,/RX*%
X99600000Y-106040000D03*
%TO.P,UART,4,Pin_4_4*%
%TO.N,GND*%
X99600000Y-103500000D03*
%TD*%
D13*
%TO.N,/Vreg*%
X111285000Y-84515200D03*
X112383400Y-89321400D03*
%TO.N,GND*%
X106459400Y-92608900D03*
%TO.N,/O1*%
X129075900Y-83799100D03*
X115179000Y-93575500D03*
X132217500Y-77000000D03*
%TO.N,/O3*%
X103475000Y-102584100D03*
X110166000Y-95121100D03*
%TO.N,/G1*%
X113700600Y-94802700D03*
%TO.N,/G2*%
X113757700Y-95625000D03*
%TO.N,/TX*%
X112125000Y-98796100D03*
%TO.N,/RX*%
X112930900Y-100050000D03*
%TO.N,/CS*%
X115200000Y-98769100D03*
X114940500Y-109188600D03*
%TO.N,/SCK*%
X116063700Y-98770400D03*
%TO.N,/MISO*%
X116266700Y-107212400D03*
X116379200Y-101831300D03*
%TO.N,/MOSI*%
X117020800Y-101332600D03*
%TO.N,/G3*%
X117162900Y-98769800D03*
%TO.N,/G4*%
X118066300Y-108465900D03*
X118066300Y-98770800D03*
%TO.N,/G5*%
X120711400Y-96533300D03*
%TO.N,/G6*%
X121772400Y-95625000D03*
%TO.N,/G7*%
X125100000Y-95100000D03*
%TO.N,/G8*%
X121454100Y-94769200D03*
X127580300Y-114699500D03*
%TO.N,/SWDIO*%
X122188100Y-92026100D03*
%TO.N,/SWCLK*%
X122214000Y-88700000D03*
%TO.N,/O2*%
X119050000Y-87405600D03*
X118050500Y-81203200D03*
%TO.N,/SCL*%
X117050000Y-87404700D03*
%TO.N,/SDA*%
X99306100Y-83031100D03*
X116151500Y-87410900D03*
%TO.N,Net-(U1-BOOT0)*%
X116050000Y-89986100D03*
X111803000Y-83290500D03*
%TD*%
%TO.N,/Vreg*%
D14*
X100751700Y-111120000D02*
X106080000Y-116448300D01*
X110440000Y-110800000D02*
X110440000Y-111951700D01*
X112383400Y-89321400D02*
X111285000Y-88223000D01*
X112383400Y-89321400D02*
X112383400Y-98062300D01*
X111285000Y-88223000D02*
X111285000Y-84515200D01*
X113622300Y-99301200D02*
X113622300Y-100216500D01*
X106080000Y-116448300D02*
X106940000Y-116448300D01*
X110440000Y-111951700D02*
X106940000Y-115451700D01*
X106940000Y-115451700D02*
X106940000Y-117600000D01*
X113622300Y-100216500D02*
X110440000Y-103398800D01*
X110440000Y-103398800D02*
X110440000Y-110800000D01*
X99600000Y-111120000D02*
X100751700Y-111120000D01*
X112383400Y-98062300D02*
X113622300Y-99301200D01*
%TO.N,GND*%
X99600000Y-103500000D02*
X106459400Y-96640600D01*
X106459400Y-96640600D02*
X106459400Y-92608900D01*
X129800000Y-117460000D02*
X129800000Y-117600000D01*
X129490000Y-117460000D02*
X129800000Y-117460000D01*
X123140000Y-110800000D02*
X123140000Y-111110000D01*
%TO.N,/O1*%
X119601900Y-90398100D02*
X119601900Y-92026900D01*
X132217500Y-77000000D02*
X129075900Y-80141600D01*
X116727600Y-92026900D02*
X115179000Y-93575500D01*
X136700000Y-111380000D02*
X123339000Y-98019000D01*
X129075900Y-80141600D02*
X129075900Y-83799100D01*
X119601900Y-92026900D02*
X116727600Y-92026900D01*
X126200900Y-83799100D02*
X119601900Y-90398100D01*
X123339000Y-98019000D02*
X123339000Y-95764000D01*
X123339000Y-95764000D02*
X119601900Y-92026900D01*
X129075900Y-83799100D02*
X126200900Y-83799100D01*
%TO.N,/O3*%
X103475000Y-101812100D02*
X110166000Y-95121100D01*
X103475000Y-102584100D02*
X103475000Y-101812100D01*
%TO.N,/G1*%
X113806800Y-100600000D02*
X114024000Y-100382800D01*
X114024000Y-96751700D02*
X113109600Y-95837300D01*
X113804486Y-100600000D02*
X113806800Y-100600000D01*
X114024000Y-100382800D02*
X114024000Y-96751700D01*
X111650000Y-103039400D02*
X113500000Y-101189400D01*
X113500000Y-100904486D02*
X113804486Y-100600000D01*
X109480000Y-117600000D02*
X111650000Y-115430000D01*
X113500000Y-101189400D02*
X113500000Y-100904486D01*
X111650000Y-115430000D02*
X111650000Y-103039400D01*
X113109600Y-95837300D02*
X113109600Y-95393700D01*
X113109600Y-95393700D02*
X113700600Y-94802700D01*
%TO.N,/G2*%
X114467300Y-100565400D02*
X114337600Y-100695100D01*
X113757700Y-95625000D02*
X114467300Y-96334600D01*
X114337600Y-115282400D02*
X112020000Y-117600000D01*
X114337600Y-100695100D02*
X114337600Y-115282400D01*
X114467300Y-96334600D02*
X114467300Y-100565400D01*
%TO.N,/TX*%
X99600000Y-108580000D02*
X98416500Y-107396500D01*
X98416500Y-105533700D02*
X99180200Y-104770000D01*
X98416500Y-107396500D02*
X98416500Y-105533700D01*
X99180200Y-104770000D02*
X106151100Y-104770000D01*
X106151100Y-104770000D02*
X112125000Y-98796100D01*
%TO.N,/RX*%
X99600000Y-106040000D02*
X106940900Y-106040000D01*
X106940900Y-106040000D02*
X112930900Y-100050000D01*
%TO.N,/CS*%
X115200000Y-98769100D02*
X114940500Y-99028600D01*
X114940500Y-99028600D02*
X114940500Y-109188600D01*
%TO.N,/SCK*%
X118331900Y-98127400D02*
X116706700Y-98127400D01*
X116706700Y-98127400D02*
X116063700Y-98770400D01*
X118683200Y-98478700D02*
X118331900Y-98127400D01*
X118060000Y-110800000D02*
X118683200Y-110176800D01*
X118060000Y-111300000D02*
X118060000Y-110800000D01*
X118683200Y-110176800D02*
X118683200Y-98478700D01*
%TO.N,/MISO*%
X116379200Y-101831300D02*
X116379200Y-107099900D01*
X116379200Y-107099900D02*
X116266700Y-107212400D01*
%TO.N,/MOSI*%
X116214900Y-101138400D02*
X116826600Y-101138400D01*
X115520000Y-111300000D02*
X115542200Y-111277800D01*
X116826600Y-101138400D02*
X117020800Y-101332600D01*
X115542200Y-111277800D02*
X115542200Y-101811100D01*
X115520000Y-110800000D02*
X115520000Y-111300000D01*
X115542200Y-101811100D02*
X116214900Y-101138400D01*
%TO.N,/G3*%
X117649800Y-106081900D02*
X116869100Y-106862600D01*
X117162900Y-98769800D02*
X117649800Y-99256700D01*
X116869100Y-106862600D02*
X116869100Y-115290900D01*
X117649800Y-99256700D02*
X117649800Y-106081900D01*
X116869100Y-115290900D02*
X114560000Y-117600000D01*
%TO.N,/G4*%
X118066300Y-98770800D02*
X118066300Y-108465900D01*
%TO.N,/G5*%
X119428700Y-97816000D02*
X120711400Y-96533300D01*
X119428700Y-117388700D02*
X119428700Y-97816000D01*
X119640000Y-117600000D02*
X119428700Y-117388700D01*
%TO.N,/G6*%
X122180000Y-117600000D02*
X121772400Y-117192400D01*
X121772400Y-117192400D02*
X121772400Y-95625000D01*
%TO.N,/G7*%
X137879500Y-108367100D02*
X137879500Y-114372100D01*
X125880300Y-118760300D02*
X124720000Y-117600000D01*
X137879500Y-114372100D02*
X133491300Y-118760300D01*
X136964100Y-107451700D02*
X137879500Y-108367100D01*
X133491300Y-118760300D02*
X125880300Y-118760300D01*
X135691900Y-107451700D02*
X136964100Y-107451700D01*
X125100000Y-95100000D02*
X125100000Y-96859800D01*
X125100000Y-96859800D02*
X135691900Y-107451700D01*
%TO.N,/G8*%
X122737300Y-95730500D02*
X121776100Y-94769300D01*
X121454100Y-94769300D02*
X121454100Y-94769200D01*
X122737300Y-100025400D02*
X122737300Y-95730500D01*
X121776100Y-94769300D02*
X121454100Y-94769300D01*
X127580300Y-104868400D02*
X122737300Y-100025400D01*
X127580300Y-114699500D02*
X127580300Y-104868400D01*
%TO.N,/SWDIO*%
X123740700Y-93578700D02*
X122188100Y-92026100D01*
X123740700Y-96093000D02*
X123740700Y-93578700D01*
X136487700Y-108840000D02*
X123740700Y-96093000D01*
X136700000Y-108840000D02*
X136487700Y-108840000D01*
%TO.N,/SWCLK*%
X127584800Y-94070800D02*
X122214000Y-88700000D01*
X127584800Y-98737300D02*
X127584800Y-94070800D01*
X136700000Y-106300000D02*
X135147500Y-106300000D01*
X135147500Y-106300000D02*
X127584800Y-98737300D01*
%TO.N,/O2*%
X119050000Y-82202700D02*
X119050000Y-87405600D01*
X118050500Y-81203200D02*
X119050000Y-82202700D01*
%TO.N,/SCL*%
X105860000Y-77900000D02*
X105460000Y-77900000D01*
X110160000Y-82200000D02*
X105860000Y-77900000D01*
X113696700Y-84051400D02*
X113696700Y-83483300D01*
X113696700Y-83483300D02*
X112413400Y-82200000D01*
X112413400Y-82200000D02*
X110160000Y-82200000D01*
X117050000Y-87404700D02*
X113696700Y-84051400D01*
%TO.N,/SDA*%
X102920000Y-79417200D02*
X99306100Y-83031100D01*
X113295000Y-83649600D02*
X113295000Y-84554400D01*
X106102800Y-82600000D02*
X112247714Y-82600000D01*
X102920000Y-77900000D02*
X102920000Y-79417200D01*
X112600000Y-82954600D02*
X113295000Y-83649600D01*
X102920000Y-79417200D02*
X106102800Y-82600000D01*
X113295000Y-84554400D02*
X116151500Y-87410900D01*
X112600000Y-82952286D02*
X112600000Y-82954600D01*
X112247714Y-82600000D02*
X112600000Y-82952286D01*
%TO.N,Net-(U1-BOOT0)*%
X111886700Y-83374200D02*
X111803000Y-83290500D01*
X116050000Y-89986100D02*
X111886700Y-85822800D01*
X111886700Y-85822800D02*
X111886700Y-83374200D01*
%TD*%
%TA.AperFunction,Conductor*%
%TO.N,GND*%
G36*
X137392410Y-114258856D02*
G01*
X137425895Y-114320179D01*
X137420911Y-114389871D01*
X137392410Y-114434218D01*
X137214218Y-114612410D01*
X137152895Y-114645895D01*
X137083203Y-114640911D01*
X137038856Y-114612410D01*
X136829408Y-114402962D01*
X136892993Y-114385925D01*
X137007007Y-114320099D01*
X137100099Y-114227007D01*
X137165925Y-114112993D01*
X137182962Y-114049408D01*
X137392410Y-114258856D01*
G37*
%TD.AperFunction*%
%TA.AperFunction,Conductor*%
G36*
X140492539Y-74470185D02*
G01*
X140538294Y-74522989D01*
X140549500Y-74574500D01*
X140549500Y-84911485D01*
X140529815Y-84978524D01*
X140477011Y-85024279D01*
X140407853Y-85034223D01*
X140352620Y-85011807D01*
X140349028Y-85009197D01*
X140194757Y-84930591D01*
X140030084Y-84877085D01*
X139859071Y-84850000D01*
X139422500Y-84850000D01*
X139422500Y-85650000D01*
X138922500Y-85650000D01*
X138922500Y-84850000D01*
X138485929Y-84850000D01*
X138314915Y-84877085D01*
X138150242Y-84930591D01*
X137995975Y-85009195D01*
X137855897Y-85110967D01*
X137733467Y-85233397D01*
X137631695Y-85373475D01*
X137553091Y-85527744D01*
X137499585Y-85692415D01*
X137498384Y-85699999D01*
X137498385Y-85700000D01*
X138405512Y-85700000D01*
X138388295Y-85709940D01*
X138332440Y-85765795D01*
X138292944Y-85834204D01*
X138272500Y-85910504D01*
X138272500Y-85989496D01*
X138292944Y-86065796D01*
X138332440Y-86134205D01*
X138388295Y-86190060D01*
X138405512Y-86200000D01*
X137498385Y-86200000D01*
X137499585Y-86207584D01*
X137553091Y-86372255D01*
X137631698Y-86526528D01*
X137723305Y-86652616D01*
X137746785Y-86718422D01*
X137730959Y-86786476D01*
X137680853Y-86835171D01*
X137622987Y-86849501D01*
X136722013Y-86849501D01*
X136654974Y-86829816D01*
X136609219Y-86777012D01*
X136599275Y-86707854D01*
X136621695Y-86652616D01*
X136713301Y-86526528D01*
X136791908Y-86372255D01*
X136845414Y-86207584D01*
X136846615Y-86200000D01*
X135789488Y-86200000D01*
X135806705Y-86190060D01*
X135862560Y-86134205D01*
X135902056Y-86065796D01*
X135922500Y-85989496D01*
X135922500Y-85910504D01*
X135902056Y-85834204D01*
X135862560Y-85765795D01*
X135806705Y-85709940D01*
X135789488Y-85700000D01*
X136846615Y-85700000D01*
X136846615Y-85699999D01*
X136845414Y-85692415D01*
X136791908Y-85527744D01*
X136713304Y-85373475D01*
X136611532Y-85233397D01*
X136489102Y-85110967D01*
X136349024Y-85009195D01*
X136194757Y-84930591D01*
X136030084Y-84877085D01*
X135859071Y-84850000D01*
X135422500Y-84850000D01*
X135422500Y-85650000D01*
X134922500Y-85650000D01*
X134922500Y-84850000D01*
X134485929Y-84850000D01*
X134314915Y-84877085D01*
X134150242Y-84930591D01*
X133995975Y-85009195D01*
X133855897Y-85110967D01*
X133733467Y-85233397D01*
X133631695Y-85373475D01*
X133553091Y-85527744D01*
X133499585Y-85692415D01*
X133498384Y-85699999D01*
X133498385Y-85700000D01*
X134555512Y-85700000D01*
X134538295Y-85709940D01*
X134482440Y-85765795D01*
X134442944Y-85834204D01*
X134422500Y-85910504D01*
X134422500Y-85989496D01*
X134442944Y-86065796D01*
X134482440Y-86134205D01*
X134538295Y-86190060D01*
X134555512Y-86200000D01*
X133498385Y-86200000D01*
X133499585Y-86207584D01*
X133553091Y-86372255D01*
X133631695Y-86526524D01*
X133733467Y-86666602D01*
X133855897Y-86789032D01*
X133995975Y-86890804D01*
X134150242Y-86969408D01*
X134314915Y-87022914D01*
X134485929Y-87050000D01*
X134922500Y-87050000D01*
X134922500Y-86250000D01*
X135422500Y-86250000D01*
X135422500Y-87050000D01*
X135440998Y-87068498D01*
X135445039Y-87069685D01*
X135490794Y-87122489D01*
X135502000Y-87174000D01*
X135502000Y-94626000D01*
X135482315Y-94693039D01*
X135458667Y-94713529D01*
X135458819Y-94713681D01*
X135422500Y-94750000D01*
X135422500Y-95550000D01*
X134922500Y-95550000D01*
X134922500Y-94750000D01*
X134485929Y-94750000D01*
X134314915Y-94777085D01*
X134150242Y-94830591D01*
X133995975Y-94909195D01*
X133855897Y-95010967D01*
X133733467Y-95133397D01*
X133631695Y-95273475D01*
X133553091Y-95427744D01*
X133499585Y-95592415D01*
X133498384Y-95599999D01*
X133498385Y-95600000D01*
X134555512Y-95600000D01*
X134538295Y-95609940D01*
X134482440Y-95665795D01*
X134442944Y-95734204D01*
X134422500Y-95810504D01*
X134422500Y-95889496D01*
X134442944Y-95965796D01*
X134482440Y-96034205D01*
X134538295Y-96090060D01*
X134555512Y-96100000D01*
X133498385Y-96100000D01*
X133499585Y-96107584D01*
X133553091Y-96272255D01*
X133631695Y-96426524D01*
X133733467Y-96566602D01*
X133855897Y-96689032D01*
X133995975Y-96790804D01*
X134150242Y-96869408D01*
X134314915Y-96922914D01*
X134485929Y-96950000D01*
X134922500Y-96950000D01*
X134922500Y-96150000D01*
X135422500Y-96150000D01*
X135422500Y-96950000D01*
X135859071Y-96950000D01*
X136030084Y-96922914D01*
X136194757Y-96869408D01*
X136349024Y-96790804D01*
X136489102Y-96689032D01*
X136611532Y-96566602D01*
X136713304Y-96426524D01*
X136791908Y-96272255D01*
X136845414Y-96107584D01*
X136846615Y-96100000D01*
X135789488Y-96100000D01*
X135806705Y-96090060D01*
X135862560Y-96034205D01*
X135902056Y-95965796D01*
X135922500Y-95889496D01*
X135922500Y-95810504D01*
X135902056Y-95734204D01*
X135862560Y-95665795D01*
X135806705Y-95609940D01*
X135789488Y-95600000D01*
X136846615Y-95600000D01*
X136846615Y-95599999D01*
X136845414Y-95592415D01*
X136791908Y-95427744D01*
X136713301Y-95273471D01*
X136621696Y-95147385D01*
X136598216Y-95081578D01*
X136614042Y-95013525D01*
X136664148Y-94964830D01*
X136722014Y-94950500D01*
X137622986Y-94950500D01*
X137690025Y-94970185D01*
X137735780Y-95022989D01*
X137745724Y-95092147D01*
X137723304Y-95147385D01*
X137631698Y-95273471D01*
X137553091Y-95427744D01*
X137499585Y-95592415D01*
X137498384Y-95599999D01*
X137498385Y-95600000D01*
X138405512Y-95600000D01*
X138388295Y-95609940D01*
X138332440Y-95665795D01*
X138292944Y-95734204D01*
X138272500Y-95810504D01*
X138272500Y-95889496D01*
X138292944Y-95965796D01*
X138332440Y-96034205D01*
X138388295Y-96090060D01*
X138405512Y-96100000D01*
X137498385Y-96100000D01*
X137499585Y-96107584D01*
X137553091Y-96272255D01*
X137631695Y-96426524D01*
X137733467Y-96566602D01*
X137855897Y-96689032D01*
X137995975Y-96790804D01*
X138150242Y-96869408D01*
X138314915Y-96922914D01*
X138485929Y-96950000D01*
X138922500Y-96950000D01*
X138922500Y-96150000D01*
X139422500Y-96150000D01*
X139422500Y-96950000D01*
X139859071Y-96950000D01*
X140030084Y-96922914D01*
X140194757Y-96869408D01*
X140349023Y-96790804D01*
X140352611Y-96788198D01*
X140418417Y-96764716D01*
X140486471Y-96780539D01*
X140535168Y-96830643D01*
X140549500Y-96888514D01*
X140549500Y-119325500D01*
X140529815Y-119392539D01*
X140477011Y-119438294D01*
X140425500Y-119449500D01*
X95174500Y-119449500D01*
X95107461Y-119429815D01*
X95061706Y-119377011D01*
X95050500Y-119325500D01*
X95050500Y-105494138D01*
X98116000Y-105494138D01*
X98116000Y-107436062D01*
X98136479Y-107512489D01*
X98141455Y-107521108D01*
X98148252Y-107532881D01*
X98176037Y-107581007D01*
X98176041Y-107581012D01*
X98612924Y-108017895D01*
X98646409Y-108079218D01*
X98641425Y-108148910D01*
X98639804Y-108153029D01*
X98589870Y-108273579D01*
X98589868Y-108273587D01*
X98549500Y-108476530D01*
X98549500Y-108683469D01*
X98589868Y-108886412D01*
X98589870Y-108886420D01*
X98669058Y-109077596D01*
X98784024Y-109249657D01*
X98930342Y-109395975D01*
X98930345Y-109395977D01*
X99102402Y-109510941D01*
X99293580Y-109590130D01*
X99468025Y-109624829D01*
X99496530Y-109630499D01*
X99496534Y-109630500D01*
X99496535Y-109630500D01*
X99703466Y-109630500D01*
X99703467Y-109630499D01*
X99906420Y-109590130D01*
X100097598Y-109510941D01*
X100269655Y-109395977D01*
X100415977Y-109249655D01*
X100530941Y-109077598D01*
X100610130Y-108886420D01*
X100650500Y-108683465D01*
X100650500Y-108476535D01*
X100610130Y-108273580D01*
X100530941Y-108082402D01*
X100415977Y-107910345D01*
X100415975Y-107910342D01*
X100269657Y-107764024D01*
X100142095Y-107678791D01*
X100097598Y-107649059D01*
X100045002Y-107627273D01*
X99906420Y-107569870D01*
X99906412Y-107569868D01*
X99703469Y-107529500D01*
X99703465Y-107529500D01*
X99496535Y-107529500D01*
X99496530Y-107529500D01*
X99293587Y-107569868D01*
X99293579Y-107569870D01*
X99173029Y-107619804D01*
X99103559Y-107627273D01*
X99041080Y-107595998D01*
X99037895Y-107592924D01*
X98753319Y-107308348D01*
X98719834Y-107247025D01*
X98717000Y-107220667D01*
X98717000Y-106941995D01*
X98736685Y-106874956D01*
X98789489Y-106829201D01*
X98858647Y-106819257D01*
X98922203Y-106848282D01*
X98928681Y-106854314D01*
X98930342Y-106855975D01*
X98930345Y-106855977D01*
X99102402Y-106970941D01*
X99293580Y-107050130D01*
X99496530Y-107090499D01*
X99496534Y-107090500D01*
X99496535Y-107090500D01*
X99703466Y-107090500D01*
X99703467Y-107090499D01*
X99906420Y-107050130D01*
X100097598Y-106970941D01*
X100269655Y-106855977D01*
X100415977Y-106709655D01*
X100530941Y-106537598D01*
X100580875Y-106417046D01*
X100624716Y-106362644D01*
X100691010Y-106340579D01*
X100695436Y-106340500D01*
X106980460Y-106340500D01*
X106980462Y-106340500D01*
X107056889Y-106320021D01*
X107125411Y-106280460D01*
X107181360Y-106224511D01*
X109927820Y-103478050D01*
X109989142Y-103444566D01*
X110058834Y-103449550D01*
X110114767Y-103491422D01*
X110139184Y-103556886D01*
X110139500Y-103565732D01*
X110139500Y-110125500D01*
X110119815Y-110192539D01*
X110067011Y-110238294D01*
X110015500Y-110249500D01*
X109570247Y-110249500D01*
X109511770Y-110261131D01*
X109511769Y-110261132D01*
X109445447Y-110305447D01*
X109401132Y-110371769D01*
X109401131Y-110371770D01*
X109389500Y-110430247D01*
X109389500Y-112169752D01*
X109401131Y-112228229D01*
X109401132Y-112228230D01*
X109445448Y-112294553D01*
X109445449Y-112294554D01*
X109455733Y-112301426D01*
X109500537Y-112355039D01*
X109509243Y-112424364D01*
X109479086Y-112487391D01*
X109474521Y-112492207D01*
X106755489Y-115211240D01*
X106699541Y-115267187D01*
X106699535Y-115267195D01*
X106659982Y-115335704D01*
X106659979Y-115335709D01*
X106646326Y-115386662D01*
X106640907Y-115406889D01*
X106639500Y-115412139D01*
X106639500Y-116023800D01*
X106619815Y-116090839D01*
X106567011Y-116136594D01*
X106515500Y-116147800D01*
X106255833Y-116147800D01*
X106188794Y-116128115D01*
X106168152Y-116111481D01*
X100936212Y-110879541D01*
X100936204Y-110879535D01*
X100867695Y-110839982D01*
X100867690Y-110839979D01*
X100842213Y-110833152D01*
X100791262Y-110819500D01*
X100791260Y-110819500D01*
X100774500Y-110819500D01*
X100707461Y-110799815D01*
X100661706Y-110747011D01*
X100650500Y-110695500D01*
X100650500Y-110250249D01*
X100650499Y-110250247D01*
X100638868Y-110191770D01*
X100638867Y-110191769D01*
X100594552Y-110125447D01*
X100528230Y-110081132D01*
X100528229Y-110081131D01*
X100469752Y-110069500D01*
X100469748Y-110069500D01*
X98730252Y-110069500D01*
X98730247Y-110069500D01*
X98671770Y-110081131D01*
X98671769Y-110081132D01*
X98605447Y-110125447D01*
X98561132Y-110191769D01*
X98561131Y-110191770D01*
X98549500Y-110250247D01*
X98549500Y-111989752D01*
X98561131Y-112048229D01*
X98561132Y-112048230D01*
X98605447Y-112114552D01*
X98671769Y-112158867D01*
X98671770Y-112158868D01*
X98730247Y-112170499D01*
X98730250Y-112170500D01*
X98730252Y-112170500D01*
X100469750Y-112170500D01*
X100469751Y-112170499D01*
X100484568Y-112167552D01*
X100528229Y-112158868D01*
X100528229Y-112158867D01*
X100528231Y-112158867D01*
X100594552Y-112114552D01*
X100638867Y-112048231D01*
X100638867Y-112048229D01*
X100638868Y-112048229D01*
X100650499Y-111989752D01*
X100650500Y-111989750D01*
X100650500Y-111743133D01*
X100670185Y-111676094D01*
X100722989Y-111630339D01*
X100792147Y-111620395D01*
X100855703Y-111649420D01*
X100862181Y-111655452D01*
X105853181Y-116646452D01*
X105886666Y-116707775D01*
X105889500Y-116734133D01*
X105889500Y-118469752D01*
X105901131Y-118528229D01*
X105901132Y-118528230D01*
X105945447Y-118594552D01*
X106011769Y-118638867D01*
X106011770Y-118638868D01*
X106070247Y-118650499D01*
X106070250Y-118650500D01*
X106070252Y-118650500D01*
X107809750Y-118650500D01*
X107809751Y-118650499D01*
X107824568Y-118647552D01*
X107868229Y-118638868D01*
X107868229Y-118638867D01*
X107868231Y-118638867D01*
X107934552Y-118594552D01*
X107978867Y-118528231D01*
X107978867Y-118528229D01*
X107978868Y-118528229D01*
X107990499Y-118469752D01*
X107990500Y-118469750D01*
X107990500Y-116730249D01*
X107990499Y-116730247D01*
X107978868Y-116671770D01*
X107978867Y-116671769D01*
X107934552Y-116605447D01*
X107868230Y-116561132D01*
X107868229Y-116561131D01*
X107809752Y-116549500D01*
X107809748Y-116549500D01*
X107364500Y-116549500D01*
X107297461Y-116529815D01*
X107251706Y-116477011D01*
X107240500Y-116425500D01*
X107240500Y-115627533D01*
X107260185Y-115560494D01*
X107276819Y-115539852D01*
X110429852Y-112386819D01*
X110491175Y-112353334D01*
X110517533Y-112350500D01*
X111225500Y-112350500D01*
X111292539Y-112370185D01*
X111338294Y-112422989D01*
X111349500Y-112474500D01*
X111349500Y-115254166D01*
X111329815Y-115321205D01*
X111313181Y-115341847D01*
X110042104Y-116612923D01*
X109980781Y-116646408D01*
X109911089Y-116641424D01*
X109906971Y-116639803D01*
X109786424Y-116589871D01*
X109786412Y-116589868D01*
X109583469Y-116549500D01*
X109583465Y-116549500D01*
X109376535Y-116549500D01*
X109376530Y-116549500D01*
X109173587Y-116589868D01*
X109173579Y-116589870D01*
X108982403Y-116669058D01*
X108810342Y-116784024D01*
X108664024Y-116930342D01*
X108549058Y-117102403D01*
X108469870Y-117293579D01*
X108469868Y-117293587D01*
X108429500Y-117496530D01*
X108429500Y-117703469D01*
X108469868Y-117906412D01*
X108469870Y-117906420D01*
X108549058Y-118097596D01*
X108664024Y-118269657D01*
X108810342Y-118415975D01*
X108810345Y-118415977D01*
X108982402Y-118530941D01*
X109173580Y-118610130D01*
X109318052Y-118638867D01*
X109376530Y-118650499D01*
X109376534Y-118650500D01*
X109376535Y-118650500D01*
X109583466Y-118650500D01*
X109583467Y-118650499D01*
X109786420Y-118610130D01*
X109977598Y-118530941D01*
X110149655Y-118415977D01*
X110295977Y-118269655D01*
X110410941Y-118097598D01*
X110490130Y-117906420D01*
X110530500Y-117703465D01*
X110530500Y-117496535D01*
X110490130Y-117293580D01*
X110440194Y-117173026D01*
X110432726Y-117103559D01*
X110464001Y-117041080D01*
X110467046Y-117037923D01*
X111890460Y-115614511D01*
X111903803Y-115591400D01*
X111930021Y-115545989D01*
X111950500Y-115469562D01*
X111950500Y-112055495D01*
X111970185Y-111988456D01*
X112022989Y-111942701D01*
X112092147Y-111932757D01*
X112155703Y-111961782D01*
X112162181Y-111967814D01*
X112310342Y-112115975D01*
X112310345Y-112115977D01*
X112482402Y-112230941D01*
X112673580Y-112310130D01*
X112818052Y-112338867D01*
X112876530Y-112350499D01*
X112876534Y-112350500D01*
X112876535Y-112350500D01*
X113083466Y-112350500D01*
X113083467Y-112350499D01*
X113286420Y-112310130D01*
X113477598Y-112230941D01*
X113649655Y-112115977D01*
X113795977Y-111969655D01*
X113809997Y-111948671D01*
X113863609Y-111903867D01*
X113932934Y-111895158D01*
X113995962Y-111925313D01*
X114032681Y-111984755D01*
X114037100Y-112017562D01*
X114037100Y-115106566D01*
X114017415Y-115173605D01*
X114000781Y-115194247D01*
X112582104Y-116612923D01*
X112520781Y-116646408D01*
X112451089Y-116641424D01*
X112446971Y-116639803D01*
X112326424Y-116589871D01*
X112326412Y-116589868D01*
X112123469Y-116549500D01*
X112123465Y-116549500D01*
X111916535Y-116549500D01*
X111916530Y-116549500D01*
X111713587Y-116589868D01*
X111713579Y-116589870D01*
X111522403Y-116669058D01*
X111350342Y-116784024D01*
X111204024Y-116930342D01*
X111089058Y-117102403D01*
X111009870Y-117293579D01*
X111009868Y-117293587D01*
X110969500Y-117496530D01*
X110969500Y-117703469D01*
X111009868Y-117906412D01*
X111009870Y-117906420D01*
X111089058Y-118097596D01*
X111204024Y-118269657D01*
X111350342Y-118415975D01*
X111350345Y-118415977D01*
X111522402Y-118530941D01*
X111713580Y-118610130D01*
X111858052Y-118638867D01*
X111916530Y-118650499D01*
X111916534Y-118650500D01*
X111916535Y-118650500D01*
X112123466Y-118650500D01*
X112123467Y-118650499D01*
X112326420Y-118610130D01*
X112517598Y-118530941D01*
X112689655Y-118415977D01*
X112835977Y-118269655D01*
X112950941Y-118097598D01*
X113030130Y-117906420D01*
X113070500Y-117703465D01*
X113070500Y-117496535D01*
X113030130Y-117293580D01*
X112980194Y-117173026D01*
X112972726Y-117103559D01*
X113004001Y-117041080D01*
X113007046Y-117037923D01*
X114578060Y-115466911D01*
X114609683Y-115412138D01*
X114617621Y-115398389D01*
X114638100Y-115321962D01*
X114638100Y-112203095D01*
X114657785Y-112136056D01*
X114710589Y-112090301D01*
X114779747Y-112080357D01*
X114843303Y-112109382D01*
X114849781Y-112115414D01*
X114850342Y-112115975D01*
X114850345Y-112115977D01*
X115022402Y-112230941D01*
X115213580Y-112310130D01*
X115358052Y-112338867D01*
X115416530Y-112350499D01*
X115416534Y-112350500D01*
X115416535Y-112350500D01*
X115623466Y-112350500D01*
X115623467Y-112350499D01*
X115826420Y-112310130D01*
X116017598Y-112230941D01*
X116189655Y-112115977D01*
X116335977Y-111969655D01*
X116341496Y-111961394D01*
X116395107Y-111916588D01*
X116464432Y-111907879D01*
X116527460Y-111938032D01*
X116564181Y-111997474D01*
X116568600Y-112030283D01*
X116568600Y-115115066D01*
X116548915Y-115182105D01*
X116532281Y-115202747D01*
X115122104Y-116612923D01*
X115060781Y-116646408D01*
X114991089Y-116641424D01*
X114986971Y-116639803D01*
X114866424Y-116589871D01*
X114866412Y-116589868D01*
X114663469Y-116549500D01*
X114663465Y-116549500D01*
X114456535Y-116549500D01*
X114456530Y-116549500D01*
X114253587Y-116589868D01*
X114253579Y-116589870D01*
X114062403Y-116669058D01*
X113890342Y-116784024D01*
X113744024Y-116930342D01*
X113629058Y-117102403D01*
X113549870Y-117293579D01*
X113549868Y-117293587D01*
X113509500Y-117496530D01*
X113509500Y-117703469D01*
X113549868Y-117906412D01*
X113549870Y-117906420D01*
X113629058Y-118097596D01*
X113744024Y-118269657D01*
X113890342Y-118415975D01*
X113890345Y-118415977D01*
X114062402Y-118530941D01*
X114253580Y-118610130D01*
X114398052Y-118638867D01*
X114456530Y-118650499D01*
X114456534Y-118650500D01*
X114456535Y-118650500D01*
X114663466Y-118650500D01*
X114663467Y-118650499D01*
X114866420Y-118610130D01*
X115057598Y-118530941D01*
X115229655Y-118415977D01*
X115375977Y-118269655D01*
X115490941Y-118097598D01*
X115570130Y-117906420D01*
X115610500Y-117703465D01*
X115610500Y-117496535D01*
X115610499Y-117496530D01*
X116049500Y-117496530D01*
X116049500Y-117703469D01*
X116089868Y-117906412D01*
X116089870Y-117906420D01*
X116169058Y-118097596D01*
X116284024Y-118269657D01*
X116430342Y-118415975D01*
X116430345Y-118415977D01*
X116602402Y-118530941D01*
X116793580Y-118610130D01*
X116938052Y-118638867D01*
X116996530Y-118650499D01*
X116996534Y-118650500D01*
X116996535Y-118650500D01*
X117203466Y-118650500D01*
X117203467Y-118650499D01*
X117406420Y-118610130D01*
X117597598Y-118530941D01*
X117769655Y-118415977D01*
X117915977Y-118269655D01*
X118030941Y-118097598D01*
X118110130Y-117906420D01*
X118150500Y-117703465D01*
X118150500Y-117496535D01*
X118110130Y-117293580D01*
X118030941Y-117102402D01*
X117915977Y-116930345D01*
X117915975Y-116930342D01*
X117769657Y-116784024D01*
X117601655Y-116671770D01*
X117597598Y-116669059D01*
X117543020Y-116646452D01*
X117406420Y-116589870D01*
X117406412Y-116589868D01*
X117203469Y-116549500D01*
X117203465Y-116549500D01*
X116996535Y-116549500D01*
X116996530Y-116549500D01*
X116793587Y-116589868D01*
X116793579Y-116589870D01*
X116602403Y-116669058D01*
X116430342Y-116784024D01*
X116284024Y-116930342D01*
X116169058Y-117102403D01*
X116089870Y-117293579D01*
X116089868Y-117293587D01*
X116049500Y-117496530D01*
X115610499Y-117496530D01*
X115570130Y-117293580D01*
X115520194Y-117173026D01*
X115512726Y-117103559D01*
X115544001Y-117041080D01*
X115547046Y-117037923D01*
X117109560Y-115475411D01*
X117149122Y-115406888D01*
X117169600Y-115330462D01*
X117169600Y-115251338D01*
X117169600Y-112194595D01*
X117189285Y-112127556D01*
X117242089Y-112081801D01*
X117311247Y-112071857D01*
X117374803Y-112100882D01*
X117381281Y-112106914D01*
X117390342Y-112115975D01*
X117390345Y-112115977D01*
X117562402Y-112230941D01*
X117753580Y-112310130D01*
X117898052Y-112338867D01*
X117956530Y-112350499D01*
X117956534Y-112350500D01*
X117956535Y-112350500D01*
X118163466Y-112350500D01*
X118163467Y-112350499D01*
X118366420Y-112310130D01*
X118557598Y-112230941D01*
X118729655Y-112115977D01*
X118875977Y-111969655D01*
X118901097Y-111932060D01*
X118954708Y-111887254D01*
X119024033Y-111878545D01*
X119087061Y-111908699D01*
X119123781Y-111968142D01*
X119128200Y-112000949D01*
X119128200Y-116612268D01*
X119108515Y-116679307D01*
X119073091Y-116715370D01*
X118970345Y-116784022D01*
X118970341Y-116784025D01*
X118824024Y-116930342D01*
X118709058Y-117102403D01*
X118629870Y-117293579D01*
X118629868Y-117293587D01*
X118589500Y-117496530D01*
X118589500Y-117703469D01*
X118629868Y-117906412D01*
X118629870Y-117906420D01*
X118709058Y-118097596D01*
X118824024Y-118269657D01*
X118970342Y-118415975D01*
X118970345Y-118415977D01*
X119142402Y-118530941D01*
X119333580Y-118610130D01*
X119478052Y-118638867D01*
X119536530Y-118650499D01*
X119536534Y-118650500D01*
X119536535Y-118650500D01*
X119743466Y-118650500D01*
X119743467Y-118650499D01*
X119946420Y-118610130D01*
X120137598Y-118530941D01*
X120309655Y-118415977D01*
X120455977Y-118269655D01*
X120570941Y-118097598D01*
X120650130Y-117906420D01*
X120690500Y-117703465D01*
X120690500Y-117496535D01*
X120650130Y-117293580D01*
X120570941Y-117102402D01*
X120455977Y-116930345D01*
X120455975Y-116930342D01*
X120309657Y-116784024D01*
X120141655Y-116671770D01*
X120137598Y-116669059D01*
X120083020Y-116646452D01*
X119946420Y-116589870D01*
X119946412Y-116589868D01*
X119829009Y-116566515D01*
X119767098Y-116534130D01*
X119732524Y-116473415D01*
X119729200Y-116444898D01*
X119729200Y-112213077D01*
X119748885Y-112146038D01*
X119801689Y-112100283D01*
X119870847Y-112090339D01*
X119924383Y-112113932D01*
X119925279Y-112112592D01*
X119930344Y-112115976D01*
X119930345Y-112115977D01*
X120102402Y-112230941D01*
X120293580Y-112310130D01*
X120438052Y-112338867D01*
X120496530Y-112350499D01*
X120496534Y-112350500D01*
X120496535Y-112350500D01*
X120703466Y-112350500D01*
X120703467Y-112350499D01*
X120906420Y-112310130D01*
X121097598Y-112230941D01*
X121269655Y-112115977D01*
X121269655Y-112115976D01*
X121274721Y-112112592D01*
X121275449Y-112113682D01*
X121333543Y-112089009D01*
X121402411Y-112100799D01*
X121453972Y-112147951D01*
X121471900Y-112212175D01*
X121471900Y-116771105D01*
X121452215Y-116838144D01*
X121435581Y-116858786D01*
X121364025Y-116930341D01*
X121364024Y-116930342D01*
X121249058Y-117102403D01*
X121169870Y-117293579D01*
X121169868Y-117293587D01*
X121129500Y-117496530D01*
X121129500Y-117703469D01*
X121169868Y-117906412D01*
X121169870Y-117906420D01*
X121249058Y-118097596D01*
X121364024Y-118269657D01*
X121510342Y-118415975D01*
X121510345Y-118415977D01*
X121682402Y-118530941D01*
X121873580Y-118610130D01*
X122018052Y-118638867D01*
X122076530Y-118650499D01*
X122076534Y-118650500D01*
X122076535Y-118650500D01*
X122283466Y-118650500D01*
X122283467Y-118650499D01*
X122486420Y-118610130D01*
X122677598Y-118530941D01*
X122849655Y-118415977D01*
X122995977Y-118269655D01*
X123110941Y-118097598D01*
X123190130Y-117906420D01*
X123230500Y-117703465D01*
X123230500Y-117496535D01*
X123190130Y-117293580D01*
X123110941Y-117102402D01*
X122995977Y-116930345D01*
X122995975Y-116930342D01*
X122849657Y-116784024D01*
X122681655Y-116671770D01*
X122677598Y-116669059D01*
X122623020Y-116646452D01*
X122486420Y-116589870D01*
X122486412Y-116589868D01*
X122283469Y-116549500D01*
X122283465Y-116549500D01*
X122196900Y-116549500D01*
X122129861Y-116529815D01*
X122084106Y-116477011D01*
X122072900Y-116425500D01*
X122072900Y-112436762D01*
X122092585Y-112369723D01*
X122145389Y-112323968D01*
X122214547Y-112314024D01*
X122269785Y-112336444D01*
X122432442Y-112454620D01*
X122621782Y-112551095D01*
X122823870Y-112616757D01*
X123033754Y-112650000D01*
X123246246Y-112650000D01*
X123456127Y-112616757D01*
X123456130Y-112616757D01*
X123658217Y-112551095D01*
X123847554Y-112454622D01*
X123901716Y-112415270D01*
X123901717Y-112415270D01*
X123269409Y-111782962D01*
X123332993Y-111765925D01*
X123447007Y-111700099D01*
X123540099Y-111607007D01*
X123605925Y-111492993D01*
X123622962Y-111429409D01*
X124255270Y-112061717D01*
X124255270Y-112061716D01*
X124294622Y-112007554D01*
X124391095Y-111818217D01*
X124456757Y-111616130D01*
X124456757Y-111616127D01*
X124490000Y-111406246D01*
X124490000Y-111193753D01*
X124456757Y-110983872D01*
X124456757Y-110983869D01*
X124391095Y-110781782D01*
X124294624Y-110592449D01*
X124255270Y-110538282D01*
X124255269Y-110538282D01*
X123622962Y-111170590D01*
X123605925Y-111107007D01*
X123540099Y-110992993D01*
X123447007Y-110899901D01*
X123332993Y-110834075D01*
X123269407Y-110817036D01*
X123901716Y-110184728D01*
X123847550Y-110145375D01*
X123658217Y-110048904D01*
X123456129Y-109983242D01*
X123246246Y-109950000D01*
X123033754Y-109950000D01*
X122823872Y-109983242D01*
X122823869Y-109983242D01*
X122621782Y-110048904D01*
X122432446Y-110145376D01*
X122269785Y-110263556D01*
X122203978Y-110287035D01*
X122135925Y-110271209D01*
X122087230Y-110221103D01*
X122072900Y-110163237D01*
X122072900Y-96083676D01*
X122092585Y-96016637D01*
X122109219Y-95995995D01*
X122139418Y-95965796D01*
X122172900Y-95932314D01*
X122205413Y-95876000D01*
X122255979Y-95827784D01*
X122324586Y-95814560D01*
X122389451Y-95840528D01*
X122429980Y-95897442D01*
X122436800Y-95937999D01*
X122436800Y-100064962D01*
X122450447Y-100115892D01*
X122457279Y-100141390D01*
X122457280Y-100141391D01*
X122477803Y-100176938D01*
X122496840Y-100209911D01*
X122496842Y-100209913D01*
X127243481Y-104956552D01*
X127276966Y-105017875D01*
X127279800Y-105044233D01*
X127279800Y-114240823D01*
X127260115Y-114307862D01*
X127243482Y-114328504D01*
X127179800Y-114392186D01*
X127113908Y-114506312D01*
X127079800Y-114633608D01*
X127079800Y-114765391D01*
X127113908Y-114892687D01*
X127146854Y-114949750D01*
X127179800Y-115006814D01*
X127272986Y-115100000D01*
X127387114Y-115165892D01*
X127514408Y-115200000D01*
X127514410Y-115200000D01*
X127646190Y-115200000D01*
X127646192Y-115200000D01*
X127773486Y-115165892D01*
X127887614Y-115100000D01*
X127980800Y-115006814D01*
X128046692Y-114892686D01*
X128080800Y-114765392D01*
X128080800Y-114633608D01*
X128046692Y-114506314D01*
X127980800Y-114392186D01*
X127917118Y-114328504D01*
X127883634Y-114267180D01*
X127880800Y-114240823D01*
X127880800Y-104828839D01*
X127872769Y-104798867D01*
X127860321Y-104752411D01*
X127842843Y-104722138D01*
X127820764Y-104683895D01*
X127820758Y-104683887D01*
X123074119Y-99937248D01*
X123040634Y-99875925D01*
X123037800Y-99849567D01*
X123037800Y-98442133D01*
X123057485Y-98375094D01*
X123110289Y-98329339D01*
X123179447Y-98319395D01*
X123243003Y-98348420D01*
X123249481Y-98354452D01*
X135712924Y-110817895D01*
X135746409Y-110879218D01*
X135741425Y-110948910D01*
X135739804Y-110953029D01*
X135689870Y-111073579D01*
X135689868Y-111073587D01*
X135649500Y-111276530D01*
X135649500Y-111483469D01*
X135682510Y-111649420D01*
X135689870Y-111686420D01*
X135769059Y-111877598D01*
X135825050Y-111961395D01*
X135884024Y-112049657D01*
X136030342Y-112195975D01*
X136202405Y-112310943D01*
X136297903Y-112350499D01*
X136367108Y-112379164D01*
X136421511Y-112423005D01*
X136443576Y-112489299D01*
X136426297Y-112556998D01*
X136375160Y-112604609D01*
X136357974Y-112611656D01*
X136181781Y-112668905D01*
X135992439Y-112765380D01*
X135938282Y-112804727D01*
X135938282Y-112804728D01*
X136570591Y-113437037D01*
X136507007Y-113454075D01*
X136392993Y-113519901D01*
X136299901Y-113612993D01*
X136234075Y-113727007D01*
X136217037Y-113790591D01*
X135584728Y-113158282D01*
X135584727Y-113158282D01*
X135545380Y-113212439D01*
X135448904Y-113401782D01*
X135383242Y-113603869D01*
X135383242Y-113603872D01*
X135350000Y-113813753D01*
X135350000Y-114026246D01*
X135383242Y-114236127D01*
X135383242Y-114236130D01*
X135448904Y-114438217D01*
X135545375Y-114627550D01*
X135584728Y-114681716D01*
X136217037Y-114049408D01*
X136234075Y-114112993D01*
X136299901Y-114227007D01*
X136392993Y-114320099D01*
X136507007Y-114385925D01*
X136570590Y-114402962D01*
X135938282Y-115035269D01*
X135938282Y-115035270D01*
X135992449Y-115074624D01*
X136181782Y-115171095D01*
X136346905Y-115224747D01*
X136404581Y-115264184D01*
X136431779Y-115328543D01*
X136419864Y-115397389D01*
X136396268Y-115430359D01*
X133403148Y-118423481D01*
X133341825Y-118456966D01*
X133315467Y-118459800D01*
X131079400Y-118459800D01*
X131012361Y-118440115D01*
X130966606Y-118387311D01*
X130956662Y-118318153D01*
X130968915Y-118279505D01*
X131051095Y-118118217D01*
X131116757Y-117916130D01*
X131116757Y-117916127D01*
X131150000Y-117706246D01*
X131150000Y-117493753D01*
X131116757Y-117283872D01*
X131116757Y-117283869D01*
X131051095Y-117081782D01*
X130954624Y-116892449D01*
X130915270Y-116838282D01*
X130915269Y-116838282D01*
X130282962Y-117470589D01*
X130265925Y-117407007D01*
X130200099Y-117292993D01*
X130107007Y-117199901D01*
X129992993Y-117134075D01*
X129929409Y-117117037D01*
X130561716Y-116484728D01*
X130507550Y-116445375D01*
X130318217Y-116348904D01*
X130116129Y-116283242D01*
X129906246Y-116250000D01*
X129693754Y-116250000D01*
X129483872Y-116283242D01*
X129483869Y-116283242D01*
X129281782Y-116348904D01*
X129092439Y-116445380D01*
X129038282Y-116484727D01*
X129038282Y-116484728D01*
X129670591Y-117117037D01*
X129607007Y-117134075D01*
X129492993Y-117199901D01*
X129399901Y-117292993D01*
X129334075Y-117407007D01*
X129317037Y-117470591D01*
X128684728Y-116838282D01*
X128684727Y-116838282D01*
X128645380Y-116892439D01*
X128548905Y-117081781D01*
X128491656Y-117257974D01*
X128452218Y-117315649D01*
X128387859Y-117342847D01*
X128319013Y-117330932D01*
X128267537Y-117283688D01*
X128259164Y-117267107D01*
X128190943Y-117102405D01*
X128075975Y-116930342D01*
X127929657Y-116784024D01*
X127761655Y-116671770D01*
X127757598Y-116669059D01*
X127566420Y-116589870D01*
X127566412Y-116589868D01*
X127363469Y-116549500D01*
X127363465Y-116549500D01*
X127156535Y-116549500D01*
X127156530Y-116549500D01*
X126953587Y-116589868D01*
X126953579Y-116589870D01*
X126762403Y-116669058D01*
X126590342Y-116784024D01*
X126444024Y-116930342D01*
X126329058Y-117102403D01*
X126249870Y-117293579D01*
X126249868Y-117293587D01*
X126209500Y-117496530D01*
X126209500Y-117703469D01*
X126249868Y-117906412D01*
X126249870Y-117906420D01*
X126329058Y-118097596D01*
X126442189Y-118266910D01*
X126463066Y-118333587D01*
X126444581Y-118400967D01*
X126392602Y-118447657D01*
X126339086Y-118459800D01*
X126056133Y-118459800D01*
X125989094Y-118440115D01*
X125968452Y-118423481D01*
X125707075Y-118162104D01*
X125673590Y-118100781D01*
X125678574Y-118031089D01*
X125680163Y-118027049D01*
X125730130Y-117906420D01*
X125770500Y-117703465D01*
X125770500Y-117496535D01*
X125730130Y-117293580D01*
X125650941Y-117102402D01*
X125535977Y-116930345D01*
X125535975Y-116930342D01*
X125389657Y-116784024D01*
X125221655Y-116671770D01*
X125217598Y-116669059D01*
X125163020Y-116646452D01*
X125026420Y-116589870D01*
X125026412Y-116589868D01*
X124823469Y-116549500D01*
X124823465Y-116549500D01*
X124616535Y-116549500D01*
X124616530Y-116549500D01*
X124413587Y-116589868D01*
X124413579Y-116589870D01*
X124222403Y-116669058D01*
X124050342Y-116784024D01*
X123904024Y-116930342D01*
X123789058Y-117102403D01*
X123709870Y-117293579D01*
X123709868Y-117293587D01*
X123669500Y-117496530D01*
X123669500Y-117703469D01*
X123709868Y-117906412D01*
X123709870Y-117906420D01*
X123789058Y-118097596D01*
X123904024Y-118269657D01*
X124050342Y-118415975D01*
X124050345Y-118415977D01*
X124222402Y-118530941D01*
X124413580Y-118610130D01*
X124558052Y-118638867D01*
X124616530Y-118650499D01*
X124616534Y-118650500D01*
X124616535Y-118650500D01*
X124823466Y-118650500D01*
X124823467Y-118650499D01*
X125026420Y-118610130D01*
X125146974Y-118560194D01*
X125216438Y-118552726D01*
X125278918Y-118584000D01*
X125282104Y-118587075D01*
X125639840Y-118944811D01*
X125695789Y-119000760D01*
X125695791Y-119000761D01*
X125695795Y-119000764D01*
X125764304Y-119040317D01*
X125764311Y-119040321D01*
X125840738Y-119060800D01*
X125840740Y-119060800D01*
X133530860Y-119060800D01*
X133530862Y-119060800D01*
X133607289Y-119040321D01*
X133675811Y-119000760D01*
X133731760Y-118944811D01*
X138119960Y-114556611D01*
X138126714Y-114544913D01*
X138159521Y-114488089D01*
X138180000Y-114411662D01*
X138180000Y-108327538D01*
X138159521Y-108251111D01*
X138159517Y-108251104D01*
X138119964Y-108182595D01*
X138119958Y-108182587D01*
X137286882Y-107349511D01*
X137253397Y-107288188D01*
X137258381Y-107218496D01*
X137300253Y-107162563D01*
X137305662Y-107158734D01*
X137369655Y-107115977D01*
X137515977Y-106969655D01*
X137630941Y-106797598D01*
X137710130Y-106606420D01*
X137750500Y-106403465D01*
X137750500Y-106196535D01*
X137710130Y-105993580D01*
X137630941Y-105802402D01*
X137515977Y-105630345D01*
X137515975Y-105630342D01*
X137369657Y-105484024D01*
X137270401Y-105417704D01*
X137197598Y-105369059D01*
X137149642Y-105349195D01*
X137006420Y-105289870D01*
X137006412Y-105289868D01*
X136803469Y-105249500D01*
X136803465Y-105249500D01*
X136596535Y-105249500D01*
X136596530Y-105249500D01*
X136393587Y-105289868D01*
X136393579Y-105289870D01*
X136202403Y-105369058D01*
X136030342Y-105484024D01*
X135884024Y-105630342D01*
X135769058Y-105802403D01*
X135719125Y-105922953D01*
X135675284Y-105977356D01*
X135608990Y-105999421D01*
X135604564Y-105999500D01*
X135323333Y-105999500D01*
X135256294Y-105979815D01*
X135235652Y-105963181D01*
X132162718Y-102890247D01*
X135649500Y-102890247D01*
X135649500Y-104629752D01*
X135661131Y-104688229D01*
X135661132Y-104688230D01*
X135705447Y-104754552D01*
X135771769Y-104798867D01*
X135771770Y-104798868D01*
X135830247Y-104810499D01*
X135830250Y-104810500D01*
X135830252Y-104810500D01*
X137569750Y-104810500D01*
X137569751Y-104810499D01*
X137584568Y-104807552D01*
X137628229Y-104798868D01*
X137628229Y-104798867D01*
X137628231Y-104798867D01*
X137694552Y-104754552D01*
X137738867Y-104688231D01*
X137738867Y-104688229D01*
X137738868Y-104688229D01*
X137750499Y-104629752D01*
X137750500Y-104629750D01*
X137750500Y-102890249D01*
X137750499Y-102890247D01*
X137738868Y-102831770D01*
X137738867Y-102831769D01*
X137694552Y-102765447D01*
X137628230Y-102721132D01*
X137628229Y-102721131D01*
X137569752Y-102709500D01*
X137569748Y-102709500D01*
X135830252Y-102709500D01*
X135830247Y-102709500D01*
X135771770Y-102721131D01*
X135771769Y-102721132D01*
X135705447Y-102765447D01*
X135661132Y-102831769D01*
X135661131Y-102831770D01*
X135649500Y-102890247D01*
X132162718Y-102890247D01*
X127921619Y-98649148D01*
X127888134Y-98587825D01*
X127885300Y-98561467D01*
X127885300Y-94031239D01*
X127885300Y-94031238D01*
X127864821Y-93954811D01*
X127864817Y-93954804D01*
X127825264Y-93886295D01*
X127825258Y-93886287D01*
X122750819Y-88811848D01*
X122717334Y-88750525D01*
X122714500Y-88724167D01*
X122714500Y-88634110D01*
X122714500Y-88634108D01*
X122680392Y-88506814D01*
X122614500Y-88392686D01*
X122521314Y-88299500D01*
X122457332Y-88262560D01*
X122410308Y-88235410D01*
X122362093Y-88184842D01*
X122348871Y-88116235D01*
X122374839Y-88051371D01*
X122384620Y-88040350D01*
X126289052Y-84135919D01*
X126350375Y-84102434D01*
X126376733Y-84099600D01*
X128617224Y-84099600D01*
X128684263Y-84119285D01*
X128704905Y-84135919D01*
X128768586Y-84199600D01*
X128882714Y-84265492D01*
X129010008Y-84299600D01*
X129010010Y-84299600D01*
X129141790Y-84299600D01*
X129141792Y-84299600D01*
X129269086Y-84265492D01*
X129383214Y-84199600D01*
X129476400Y-84106414D01*
X129542292Y-83992286D01*
X129576400Y-83864992D01*
X129576400Y-83733208D01*
X129542292Y-83605914D01*
X129537615Y-83597814D01*
X129514998Y-83558640D01*
X129476400Y-83491786D01*
X129412717Y-83428103D01*
X129379234Y-83366780D01*
X129376400Y-83340423D01*
X129376400Y-80317432D01*
X129396085Y-80250393D01*
X129412714Y-80229756D01*
X132105651Y-77536818D01*
X132166974Y-77503334D01*
X132193332Y-77500500D01*
X132283390Y-77500500D01*
X132283392Y-77500500D01*
X132410686Y-77466392D01*
X132524814Y-77400500D01*
X132618000Y-77307314D01*
X132683892Y-77193186D01*
X132718000Y-77065892D01*
X132718000Y-76934108D01*
X132683892Y-76806814D01*
X132618000Y-76692686D01*
X132524814Y-76599500D01*
X132439078Y-76550000D01*
X132410687Y-76533608D01*
X132347039Y-76516554D01*
X132283392Y-76499500D01*
X132151608Y-76499500D01*
X132024312Y-76533608D01*
X131910186Y-76599500D01*
X131910183Y-76599502D01*
X131817002Y-76692683D01*
X131817000Y-76692686D01*
X131751108Y-76806812D01*
X131717000Y-76934108D01*
X131717000Y-77024166D01*
X131697315Y-77091205D01*
X131680681Y-77111847D01*
X128891389Y-79901140D01*
X128835441Y-79957087D01*
X128835435Y-79957095D01*
X128795882Y-80025604D01*
X128795879Y-80025609D01*
X128775400Y-80102039D01*
X128775400Y-83340423D01*
X128755715Y-83407462D01*
X128739083Y-83428103D01*
X128704904Y-83462281D01*
X128643584Y-83495766D01*
X128617224Y-83498600D01*
X126161338Y-83498600D01*
X126110386Y-83512252D01*
X126084910Y-83519079D01*
X126025834Y-83553187D01*
X126025833Y-83553186D01*
X126016392Y-83558637D01*
X126016387Y-83558641D01*
X119361441Y-90213587D01*
X119361435Y-90213595D01*
X119321882Y-90282104D01*
X119321879Y-90282109D01*
X119301400Y-90358539D01*
X119301400Y-91602400D01*
X119281715Y-91669439D01*
X119228911Y-91715194D01*
X119177400Y-91726400D01*
X116688038Y-91726400D01*
X116637086Y-91740052D01*
X116611610Y-91746879D01*
X116586174Y-91761564D01*
X116553920Y-91780187D01*
X116553918Y-91780188D01*
X116553916Y-91780189D01*
X116543091Y-91786437D01*
X116543086Y-91786441D01*
X115290847Y-93038681D01*
X115229524Y-93072166D01*
X115203166Y-93075000D01*
X115113108Y-93075000D01*
X114985812Y-93109108D01*
X114871686Y-93175000D01*
X114871683Y-93175002D01*
X114778502Y-93268183D01*
X114778500Y-93268186D01*
X114712608Y-93382312D01*
X114678500Y-93509608D01*
X114678500Y-93641391D01*
X114712608Y-93768687D01*
X114745554Y-93825750D01*
X114778500Y-93882814D01*
X114871686Y-93976000D01*
X114985814Y-94041892D01*
X115113108Y-94076000D01*
X115113110Y-94076000D01*
X115244890Y-94076000D01*
X115244892Y-94076000D01*
X115372186Y-94041892D01*
X115486314Y-93976000D01*
X115579500Y-93882814D01*
X115645392Y-93768686D01*
X115679500Y-93641392D01*
X115679500Y-93551332D01*
X115699185Y-93484293D01*
X115715819Y-93463651D01*
X116815752Y-92363719D01*
X116877075Y-92330234D01*
X116903433Y-92327400D01*
X119426067Y-92327400D01*
X119493106Y-92347085D01*
X119513748Y-92363719D01*
X121268319Y-94118290D01*
X121301804Y-94179613D01*
X121296820Y-94249305D01*
X121254948Y-94305238D01*
X121242639Y-94313357D01*
X121146792Y-94368695D01*
X121146783Y-94368702D01*
X121053602Y-94461883D01*
X121053600Y-94461886D01*
X120987708Y-94576012D01*
X120975761Y-94620600D01*
X120953600Y-94703308D01*
X120953600Y-94835092D01*
X120962576Y-94868590D01*
X120987708Y-94962387D01*
X121007049Y-94995886D01*
X121053600Y-95076514D01*
X121146786Y-95169700D01*
X121256333Y-95232947D01*
X121267953Y-95239656D01*
X121266883Y-95241509D01*
X121312490Y-95278249D01*
X121334565Y-95344540D01*
X121318033Y-95410985D01*
X121306008Y-95431811D01*
X121281951Y-95521597D01*
X121271900Y-95559108D01*
X121271900Y-95690892D01*
X121280771Y-95724000D01*
X121306008Y-95818187D01*
X121311549Y-95827784D01*
X121371900Y-95932314D01*
X121371902Y-95932316D01*
X121435581Y-95995995D01*
X121469066Y-96057318D01*
X121471900Y-96083676D01*
X121471900Y-110387824D01*
X121452215Y-110454863D01*
X121399411Y-110500618D01*
X121330253Y-110510562D01*
X121275397Y-110486396D01*
X121274721Y-110487408D01*
X121250486Y-110471215D01*
X121097598Y-110369059D01*
X121097593Y-110369057D01*
X120906420Y-110289870D01*
X120906412Y-110289868D01*
X120703469Y-110249500D01*
X120703465Y-110249500D01*
X120496535Y-110249500D01*
X120496530Y-110249500D01*
X120293587Y-110289868D01*
X120293579Y-110289870D01*
X120102403Y-110369058D01*
X119925279Y-110487408D01*
X119924323Y-110485978D01*
X119867551Y-110510089D01*
X119798684Y-110498295D01*
X119747125Y-110451142D01*
X119729200Y-110386922D01*
X119729200Y-97991832D01*
X119748885Y-97924793D01*
X119765515Y-97904155D01*
X120599551Y-97070118D01*
X120660874Y-97036634D01*
X120687232Y-97033800D01*
X120777290Y-97033800D01*
X120777292Y-97033800D01*
X120904586Y-96999692D01*
X121018714Y-96933800D01*
X121111900Y-96840614D01*
X121177792Y-96726486D01*
X121211900Y-96599192D01*
X121211900Y-96467408D01*
X121177792Y-96340114D01*
X121111900Y-96225986D01*
X121018714Y-96132800D01*
X120951753Y-96094140D01*
X120904587Y-96066908D01*
X120812448Y-96042220D01*
X120777292Y-96032800D01*
X120645508Y-96032800D01*
X120518212Y-96066908D01*
X120404086Y-96132800D01*
X120404083Y-96132802D01*
X120310902Y-96225983D01*
X120310900Y-96225986D01*
X120245008Y-96340112D01*
X120210900Y-96467408D01*
X120210900Y-96557466D01*
X120191215Y-96624505D01*
X120174581Y-96645147D01*
X119244189Y-97575540D01*
X119188241Y-97631487D01*
X119188235Y-97631495D01*
X119148682Y-97700004D01*
X119148679Y-97700009D01*
X119128200Y-97776439D01*
X119128200Y-98199367D01*
X119108515Y-98266406D01*
X119055711Y-98312161D01*
X118986553Y-98322105D01*
X118922997Y-98293080D01*
X118916519Y-98287048D01*
X118516412Y-97886941D01*
X118516407Y-97886937D01*
X118462061Y-97855561D01*
X118462061Y-97855560D01*
X118462059Y-97855560D01*
X118447889Y-97847379D01*
X118371462Y-97826900D01*
X116667138Y-97826900D01*
X116628924Y-97837139D01*
X116590709Y-97847379D01*
X116576539Y-97855561D01*
X116522192Y-97886937D01*
X116522187Y-97886941D01*
X116175547Y-98233581D01*
X116114224Y-98267066D01*
X116087866Y-98269900D01*
X115997808Y-98269900D01*
X115870512Y-98304008D01*
X115756386Y-98369900D01*
X115756382Y-98369903D01*
X115720178Y-98406106D01*
X115658854Y-98439590D01*
X115589163Y-98434604D01*
X115544818Y-98406104D01*
X115507316Y-98368602D01*
X115507314Y-98368600D01*
X115439312Y-98329339D01*
X115393187Y-98302708D01*
X115278633Y-98272014D01*
X115265892Y-98268600D01*
X115134108Y-98268600D01*
X115006814Y-98302708D01*
X115006813Y-98302708D01*
X115006811Y-98302709D01*
X115006810Y-98302709D01*
X114953800Y-98333315D01*
X114885900Y-98349788D01*
X114819873Y-98326935D01*
X114776682Y-98272014D01*
X114767800Y-98225928D01*
X114767800Y-96295039D01*
X114747320Y-96218609D01*
X114747317Y-96218604D01*
X114707764Y-96150095D01*
X114707758Y-96150087D01*
X114294519Y-95736848D01*
X114261034Y-95675525D01*
X114258200Y-95649167D01*
X114258200Y-95559110D01*
X114258200Y-95559108D01*
X114224092Y-95431814D01*
X114222128Y-95428413D01*
X114209946Y-95407313D01*
X114158200Y-95317686D01*
X114112620Y-95272106D01*
X114079135Y-95210783D01*
X114084119Y-95141091D01*
X114097335Y-95117225D01*
X114097036Y-95117052D01*
X114101098Y-95110015D01*
X114101100Y-95110014D01*
X114166992Y-94995886D01*
X114201100Y-94868592D01*
X114201100Y-94736808D01*
X114166992Y-94609514D01*
X114101100Y-94495386D01*
X114007914Y-94402200D01*
X113949882Y-94368695D01*
X113893787Y-94336308D01*
X113808131Y-94313357D01*
X113766492Y-94302200D01*
X113634708Y-94302200D01*
X113507412Y-94336308D01*
X113393286Y-94402200D01*
X113393283Y-94402202D01*
X113300102Y-94495383D01*
X113300100Y-94495386D01*
X113234208Y-94609512D01*
X113200100Y-94736808D01*
X113200100Y-94826866D01*
X113180415Y-94893905D01*
X113163781Y-94914547D01*
X112925089Y-95153240D01*
X112895581Y-95182748D01*
X112834258Y-95216233D01*
X112764566Y-95211249D01*
X112708633Y-95169377D01*
X112684216Y-95103913D01*
X112683900Y-95095067D01*
X112683900Y-89780076D01*
X112703585Y-89713037D01*
X112720219Y-89692395D01*
X112733831Y-89678783D01*
X112783900Y-89628714D01*
X112849792Y-89514586D01*
X112883900Y-89387292D01*
X112883900Y-89255508D01*
X112849792Y-89128214D01*
X112783900Y-89014086D01*
X112690714Y-88920900D01*
X112603641Y-88870628D01*
X112576587Y-88855008D01*
X112509912Y-88837143D01*
X112449292Y-88820900D01*
X112359233Y-88820900D01*
X112292194Y-88801215D01*
X112271552Y-88784581D01*
X111621819Y-88134848D01*
X111588334Y-88073525D01*
X111585500Y-88047167D01*
X111585500Y-86245933D01*
X111605185Y-86178894D01*
X111657989Y-86133139D01*
X111727147Y-86123195D01*
X111790703Y-86152220D01*
X111797181Y-86158252D01*
X115513181Y-89874252D01*
X115546666Y-89935575D01*
X115549500Y-89961933D01*
X115549500Y-90051991D01*
X115583608Y-90179287D01*
X115603412Y-90213587D01*
X115649500Y-90293414D01*
X115742686Y-90386600D01*
X115856814Y-90452492D01*
X115984108Y-90486600D01*
X115984110Y-90486600D01*
X116115890Y-90486600D01*
X116115892Y-90486600D01*
X116243186Y-90452492D01*
X116357314Y-90386600D01*
X116450500Y-90293414D01*
X116516392Y-90179286D01*
X116550500Y-90051992D01*
X116550500Y-89920208D01*
X116516392Y-89792914D01*
X116450500Y-89678786D01*
X116357314Y-89585600D01*
X116300250Y-89552654D01*
X116243187Y-89519708D01*
X116179539Y-89502654D01*
X116115892Y-89485600D01*
X116025833Y-89485600D01*
X115958794Y-89465915D01*
X115938152Y-89449281D01*
X112223519Y-85734648D01*
X112190034Y-85673325D01*
X112187200Y-85646967D01*
X112187200Y-83659271D01*
X112203812Y-83597273D01*
X112269392Y-83483686D01*
X112303500Y-83356392D01*
X112303500Y-83356390D01*
X112305603Y-83348542D01*
X112309034Y-83349461D01*
X112330528Y-83300521D01*
X112388748Y-83261893D01*
X112458611Y-83260874D01*
X112513096Y-83292667D01*
X112958181Y-83737752D01*
X112991666Y-83799075D01*
X112994500Y-83825433D01*
X112994500Y-84593962D01*
X113008152Y-84644913D01*
X113014979Y-84670390D01*
X113014982Y-84670395D01*
X113054535Y-84738904D01*
X113054541Y-84738912D01*
X115614681Y-87299052D01*
X115648166Y-87360375D01*
X115651000Y-87386733D01*
X115651000Y-87476791D01*
X115685108Y-87604087D01*
X115718054Y-87661150D01*
X115751000Y-87718214D01*
X115844186Y-87811400D01*
X115958314Y-87877292D01*
X116085608Y-87911400D01*
X116085610Y-87911400D01*
X116217390Y-87911400D01*
X116217392Y-87911400D01*
X116344686Y-87877292D01*
X116458814Y-87811400D01*
X116516169Y-87754045D01*
X116577492Y-87720560D01*
X116647184Y-87725544D01*
X116691531Y-87754045D01*
X116742686Y-87805200D01*
X116856814Y-87871092D01*
X116984108Y-87905200D01*
X116984110Y-87905200D01*
X117115890Y-87905200D01*
X117115892Y-87905200D01*
X117243186Y-87871092D01*
X117357314Y-87805200D01*
X117450500Y-87712014D01*
X117516392Y-87597886D01*
X117550500Y-87470592D01*
X117550500Y-87338808D01*
X117516392Y-87211514D01*
X117450500Y-87097386D01*
X117357314Y-87004200D01*
X117258108Y-86946923D01*
X117243187Y-86938308D01*
X117146629Y-86912436D01*
X117115892Y-86904200D01*
X117025833Y-86904200D01*
X116958794Y-86884515D01*
X116938152Y-86867881D01*
X114033519Y-83963248D01*
X114000034Y-83901925D01*
X113997200Y-83875567D01*
X113997200Y-83443739D01*
X113997200Y-83443738D01*
X113976721Y-83367311D01*
X113970416Y-83356391D01*
X113937164Y-83298795D01*
X113937158Y-83298787D01*
X112597912Y-81959541D01*
X112597904Y-81959535D01*
X112529395Y-81919982D01*
X112529390Y-81919979D01*
X112503913Y-81913152D01*
X112452962Y-81899500D01*
X112452960Y-81899500D01*
X110335833Y-81899500D01*
X110268794Y-81879815D01*
X110248152Y-81863181D01*
X109522279Y-81137308D01*
X117550000Y-81137308D01*
X117550000Y-81269092D01*
X117562314Y-81315048D01*
X117584108Y-81396387D01*
X117617054Y-81453450D01*
X117650000Y-81510514D01*
X117743186Y-81603700D01*
X117857314Y-81669592D01*
X117984608Y-81703700D01*
X117984610Y-81703700D01*
X118074667Y-81703700D01*
X118141706Y-81723385D01*
X118162348Y-81740019D01*
X118713181Y-82290852D01*
X118746666Y-82352175D01*
X118749500Y-82378533D01*
X118749500Y-86946923D01*
X118729815Y-87013962D01*
X118713182Y-87034604D01*
X118649500Y-87098286D01*
X118583608Y-87212412D01*
X118549500Y-87339708D01*
X118549500Y-87471491D01*
X118583608Y-87598787D01*
X118616554Y-87655850D01*
X118649500Y-87712914D01*
X118742686Y-87806100D01*
X118856814Y-87871992D01*
X118984108Y-87906100D01*
X118984110Y-87906100D01*
X119115890Y-87906100D01*
X119115892Y-87906100D01*
X119243186Y-87871992D01*
X119357314Y-87806100D01*
X119450500Y-87712914D01*
X119516392Y-87598786D01*
X119550500Y-87471492D01*
X119550500Y-87339708D01*
X119516392Y-87212414D01*
X119515872Y-87211514D01*
X119507563Y-87197121D01*
X119450500Y-87098286D01*
X119386818Y-87034604D01*
X119353334Y-86973280D01*
X119350500Y-86946923D01*
X119350500Y-82163139D01*
X119350500Y-82163138D01*
X119330021Y-82086711D01*
X119330017Y-82086704D01*
X119290464Y-82018195D01*
X119290458Y-82018187D01*
X118587319Y-81315048D01*
X118553834Y-81253725D01*
X118551000Y-81227367D01*
X118551000Y-81137310D01*
X118551000Y-81137308D01*
X118516892Y-81010014D01*
X118451000Y-80895886D01*
X118357814Y-80802700D01*
X118300750Y-80769754D01*
X118243687Y-80736808D01*
X118180039Y-80719754D01*
X118116392Y-80702700D01*
X117984608Y-80702700D01*
X117857312Y-80736808D01*
X117743186Y-80802700D01*
X117743183Y-80802702D01*
X117650002Y-80895883D01*
X117650000Y-80895886D01*
X117584108Y-81010012D01*
X117550000Y-81137308D01*
X109522279Y-81137308D01*
X107846652Y-79461681D01*
X107813167Y-79400358D01*
X107818151Y-79330666D01*
X107860023Y-79274733D01*
X107925487Y-79250316D01*
X107934333Y-79250000D01*
X108106246Y-79250000D01*
X108316127Y-79216757D01*
X108316130Y-79216757D01*
X108518217Y-79151095D01*
X108707554Y-79054622D01*
X108761716Y-79015270D01*
X108761717Y-79015270D01*
X108129408Y-78382962D01*
X108192993Y-78365925D01*
X108307007Y-78300099D01*
X108400099Y-78207007D01*
X108465925Y-78092993D01*
X108482962Y-78029409D01*
X109115270Y-78661717D01*
X109115270Y-78661716D01*
X109154622Y-78607554D01*
X109251095Y-78418217D01*
X109316757Y-78216130D01*
X109316757Y-78216127D01*
X109350000Y-78006246D01*
X109350000Y-77793753D01*
X109316757Y-77583872D01*
X109316757Y-77583869D01*
X109251095Y-77381782D01*
X109154624Y-77192449D01*
X109115270Y-77138282D01*
X109115269Y-77138282D01*
X108482962Y-77770590D01*
X108465925Y-77707007D01*
X108400099Y-77592993D01*
X108307007Y-77499901D01*
X108192993Y-77434075D01*
X108129409Y-77417037D01*
X108761716Y-76784728D01*
X108707550Y-76745375D01*
X108518217Y-76648904D01*
X108316129Y-76583242D01*
X108106246Y-76550000D01*
X107893754Y-76550000D01*
X107683872Y-76583242D01*
X107683869Y-76583242D01*
X107481782Y-76648904D01*
X107292439Y-76745380D01*
X107238282Y-76784727D01*
X107238282Y-76784728D01*
X107870591Y-77417037D01*
X107807007Y-77434075D01*
X107692993Y-77499901D01*
X107599901Y-77592993D01*
X107534075Y-77707007D01*
X107517037Y-77770591D01*
X106884728Y-77138282D01*
X106884727Y-77138282D01*
X106845380Y-77192439D01*
X106748905Y-77381781D01*
X106691656Y-77557974D01*
X106652218Y-77615649D01*
X106587859Y-77642847D01*
X106519013Y-77630932D01*
X106467537Y-77583688D01*
X106459164Y-77567107D01*
X106446618Y-77536819D01*
X106417447Y-77466392D01*
X106390943Y-77402405D01*
X106275975Y-77230342D01*
X106129657Y-77084024D01*
X105961655Y-76971770D01*
X105957598Y-76969059D01*
X105766420Y-76889870D01*
X105766412Y-76889868D01*
X105563469Y-76849500D01*
X105563465Y-76849500D01*
X105356535Y-76849500D01*
X105356530Y-76849500D01*
X105153587Y-76889868D01*
X105153579Y-76889870D01*
X104962403Y-76969058D01*
X104790342Y-77084024D01*
X104644024Y-77230342D01*
X104529058Y-77402403D01*
X104449870Y-77593579D01*
X104449868Y-77593587D01*
X104409500Y-77796530D01*
X104409500Y-78003469D01*
X104449868Y-78206412D01*
X104449870Y-78206420D01*
X104529058Y-78397596D01*
X104644024Y-78569657D01*
X104790342Y-78715975D01*
X104790345Y-78715977D01*
X104962402Y-78830941D01*
X105153580Y-78910130D01*
X105298052Y-78938867D01*
X105356530Y-78950499D01*
X105356534Y-78950500D01*
X105356535Y-78950500D01*
X105563466Y-78950500D01*
X105563467Y-78950499D01*
X105766420Y-78910130D01*
X105957598Y-78830941D01*
X106117788Y-78723905D01*
X106184462Y-78703029D01*
X106251843Y-78721513D01*
X106274357Y-78739328D01*
X109622848Y-82087819D01*
X109656333Y-82149142D01*
X109651349Y-82218834D01*
X109609477Y-82274767D01*
X109544013Y-82299184D01*
X109535167Y-82299500D01*
X106278633Y-82299500D01*
X106211594Y-82279815D01*
X106190952Y-82263181D01*
X103256819Y-79329048D01*
X103223334Y-79267725D01*
X103220500Y-79241367D01*
X103220500Y-78995435D01*
X103240185Y-78928396D01*
X103292989Y-78882641D01*
X103297012Y-78880889D01*
X103417598Y-78830941D01*
X103589655Y-78715977D01*
X103735977Y-78569655D01*
X103850941Y-78397598D01*
X103930130Y-78206420D01*
X103970500Y-78003465D01*
X103970500Y-77796535D01*
X103930130Y-77593580D01*
X103850941Y-77402402D01*
X103735977Y-77230345D01*
X103735975Y-77230342D01*
X103589657Y-77084024D01*
X103421655Y-76971770D01*
X103417598Y-76969059D01*
X103333219Y-76934108D01*
X103226420Y-76889870D01*
X103226412Y-76889868D01*
X103023469Y-76849500D01*
X103023465Y-76849500D01*
X102816535Y-76849500D01*
X102816530Y-76849500D01*
X102613587Y-76889868D01*
X102613579Y-76889870D01*
X102422403Y-76969058D01*
X102250342Y-77084024D01*
X102104024Y-77230342D01*
X101989058Y-77402403D01*
X101909870Y-77593579D01*
X101909868Y-77593587D01*
X101869500Y-77796530D01*
X101869500Y-78003469D01*
X101909868Y-78206412D01*
X101909870Y-78206420D01*
X101989058Y-78397596D01*
X102104024Y-78569657D01*
X102250342Y-78715975D01*
X102250345Y-78715977D01*
X102422402Y-78830941D01*
X102542953Y-78880875D01*
X102597356Y-78924714D01*
X102619421Y-78991008D01*
X102619500Y-78995435D01*
X102619500Y-79241366D01*
X102599815Y-79308405D01*
X102583181Y-79329047D01*
X99417947Y-82494281D01*
X99356624Y-82527766D01*
X99330266Y-82530600D01*
X99240208Y-82530600D01*
X99112912Y-82564708D01*
X98998786Y-82630600D01*
X98998783Y-82630602D01*
X98905602Y-82723783D01*
X98905600Y-82723786D01*
X98839708Y-82837912D01*
X98822938Y-82900500D01*
X98805600Y-82965208D01*
X98805600Y-83096992D01*
X98815419Y-83133636D01*
X98839708Y-83224287D01*
X98850420Y-83242840D01*
X98905600Y-83338414D01*
X98998786Y-83431600D01*
X99112914Y-83497492D01*
X99240208Y-83531600D01*
X99240210Y-83531600D01*
X99371990Y-83531600D01*
X99371992Y-83531600D01*
X99499286Y-83497492D01*
X99613414Y-83431600D01*
X99706600Y-83338414D01*
X99772492Y-83224286D01*
X99806600Y-83096992D01*
X99806600Y-83006932D01*
X99826285Y-82939893D01*
X99842919Y-82919251D01*
X101251657Y-81510513D01*
X102832322Y-79929848D01*
X102893641Y-79896366D01*
X102963333Y-79901350D01*
X103007680Y-79929851D01*
X105862340Y-82784511D01*
X105918289Y-82840460D01*
X105918291Y-82840461D01*
X105918295Y-82840464D01*
X105986804Y-82880017D01*
X105986811Y-82880021D01*
X106063238Y-82900500D01*
X106142362Y-82900500D01*
X111235464Y-82900500D01*
X111302503Y-82920185D01*
X111348258Y-82972989D01*
X111358202Y-83042147D01*
X111342851Y-83086501D01*
X111336608Y-83097312D01*
X111302586Y-83224286D01*
X111302500Y-83224608D01*
X111302500Y-83356392D01*
X111316184Y-83407462D01*
X111336608Y-83483687D01*
X111357042Y-83519079D01*
X111402500Y-83597814D01*
X111495686Y-83691000D01*
X111524198Y-83707461D01*
X111572414Y-83758027D01*
X111586200Y-83814849D01*
X111586200Y-83916150D01*
X111566515Y-83983189D01*
X111513711Y-84028944D01*
X111444553Y-84038888D01*
X111430108Y-84035925D01*
X111350893Y-84014700D01*
X111350892Y-84014700D01*
X111219108Y-84014700D01*
X111091812Y-84048808D01*
X110977686Y-84114700D01*
X110977683Y-84114702D01*
X110884502Y-84207883D01*
X110884500Y-84207886D01*
X110818608Y-84322012D01*
X110784500Y-84449308D01*
X110784500Y-84581092D01*
X110801554Y-84644739D01*
X110818608Y-84708387D01*
X110836232Y-84738912D01*
X110884500Y-84822514D01*
X110884502Y-84822516D01*
X110948181Y-84886195D01*
X110981666Y-84947518D01*
X110984500Y-84973876D01*
X110984500Y-88262562D01*
X111004979Y-88338989D01*
X111035981Y-88392686D01*
X111044539Y-88407509D01*
X111044541Y-88407512D01*
X111846581Y-89209552D01*
X111880066Y-89270875D01*
X111882900Y-89297233D01*
X111882900Y-89387291D01*
X111917008Y-89514587D01*
X111919965Y-89519708D01*
X111982900Y-89628714D01*
X111982902Y-89628716D01*
X112046581Y-89692395D01*
X112080066Y-89753718D01*
X112082900Y-89780076D01*
X112082900Y-98101862D01*
X112097647Y-98156899D01*
X112095984Y-98226749D01*
X112056821Y-98284611D01*
X112009967Y-98308767D01*
X111997301Y-98312161D01*
X111931814Y-98329708D01*
X111931813Y-98329708D01*
X111931811Y-98329709D01*
X111817686Y-98395600D01*
X111817683Y-98395602D01*
X111724502Y-98488783D01*
X111724500Y-98488786D01*
X111658608Y-98602912D01*
X111624500Y-98730208D01*
X111624500Y-98820266D01*
X111604815Y-98887305D01*
X111588181Y-98907947D01*
X106062948Y-104433181D01*
X106001625Y-104466666D01*
X105975267Y-104469500D01*
X100807672Y-104469500D01*
X100740633Y-104449815D01*
X100694878Y-104397011D01*
X100684934Y-104327853D01*
X100707354Y-104272615D01*
X100754620Y-104207557D01*
X100851095Y-104018217D01*
X100916757Y-103816130D01*
X100916757Y-103816127D01*
X100950000Y-103606246D01*
X100950000Y-103393753D01*
X100916757Y-103183872D01*
X100916757Y-103183869D01*
X100851095Y-102981782D01*
X100754624Y-102792449D01*
X100715270Y-102738282D01*
X100715269Y-102738282D01*
X100082962Y-103370590D01*
X100065925Y-103307007D01*
X100000099Y-103192993D01*
X99907007Y-103099901D01*
X99792993Y-103034075D01*
X99729409Y-103017037D01*
X100228237Y-102518208D01*
X102974500Y-102518208D01*
X102974500Y-102649991D01*
X103008608Y-102777287D01*
X103017362Y-102792449D01*
X103074500Y-102891414D01*
X103167686Y-102984600D01*
X103281814Y-103050492D01*
X103409108Y-103084600D01*
X103409110Y-103084600D01*
X103540890Y-103084600D01*
X103540892Y-103084600D01*
X103668186Y-103050492D01*
X103782314Y-102984600D01*
X103875500Y-102891414D01*
X103941392Y-102777286D01*
X103975500Y-102649992D01*
X103975500Y-102518208D01*
X103941392Y-102390914D01*
X103875500Y-102276786D01*
X103811818Y-102213104D01*
X103778334Y-102151780D01*
X103775500Y-102125423D01*
X103775500Y-101987932D01*
X103795185Y-101920893D01*
X103811814Y-101900256D01*
X110054151Y-95657918D01*
X110115474Y-95624434D01*
X110141832Y-95621600D01*
X110231890Y-95621600D01*
X110231892Y-95621600D01*
X110359186Y-95587492D01*
X110473314Y-95521600D01*
X110566500Y-95428414D01*
X110632392Y-95314286D01*
X110666500Y-95186992D01*
X110666500Y-95055208D01*
X110632392Y-94927914D01*
X110566500Y-94813786D01*
X110473314Y-94720600D01*
X110416250Y-94687654D01*
X110359187Y-94654708D01*
X110252045Y-94626000D01*
X110231892Y-94620600D01*
X110100108Y-94620600D01*
X109972812Y-94654708D01*
X109858686Y-94720600D01*
X109858683Y-94720602D01*
X109765502Y-94813783D01*
X109765500Y-94813786D01*
X109699608Y-94927912D01*
X109665500Y-95055208D01*
X109665500Y-95145266D01*
X109645815Y-95212305D01*
X109629181Y-95232947D01*
X103290489Y-101571640D01*
X103234541Y-101627587D01*
X103234535Y-101627595D01*
X103194982Y-101696104D01*
X103194979Y-101696109D01*
X103174500Y-101772539D01*
X103174500Y-102125423D01*
X103154815Y-102192462D01*
X103138182Y-102213104D01*
X103074500Y-102276786D01*
X103008608Y-102390912D01*
X102974500Y-102518208D01*
X100228237Y-102518208D01*
X100324045Y-102422400D01*
X100361716Y-102384728D01*
X100307550Y-102345375D01*
X100118217Y-102248904D01*
X99916129Y-102183242D01*
X99706246Y-102150000D01*
X99493754Y-102150000D01*
X99283872Y-102183242D01*
X99283869Y-102183242D01*
X99081782Y-102248904D01*
X98892439Y-102345380D01*
X98838282Y-102384727D01*
X98838282Y-102384728D01*
X99470591Y-103017037D01*
X99407007Y-103034075D01*
X99292993Y-103099901D01*
X99199901Y-103192993D01*
X99134075Y-103307007D01*
X99117037Y-103370591D01*
X98484728Y-102738282D01*
X98484727Y-102738282D01*
X98445380Y-102792439D01*
X98348904Y-102981782D01*
X98283242Y-103183869D01*
X98283242Y-103183872D01*
X98250000Y-103393753D01*
X98250000Y-103606246D01*
X98283242Y-103816127D01*
X98283242Y-103816130D01*
X98348904Y-104018217D01*
X98445375Y-104207550D01*
X98484728Y-104261716D01*
X99117037Y-103629408D01*
X99134075Y-103692993D01*
X99199901Y-103807007D01*
X99292993Y-103900099D01*
X99407007Y-103965925D01*
X99470590Y-103982962D01*
X98838281Y-104615271D01*
X98839026Y-104624729D01*
X98824661Y-104693106D01*
X98803089Y-104722138D01*
X98231989Y-105293240D01*
X98176041Y-105349187D01*
X98176035Y-105349195D01*
X98136482Y-105417704D01*
X98136479Y-105417709D01*
X98122826Y-105468662D01*
X98116000Y-105494138D01*
X95050500Y-105494138D01*
X95050500Y-77030247D01*
X99329500Y-77030247D01*
X99329500Y-78769752D01*
X99341131Y-78828229D01*
X99341132Y-78828230D01*
X99385447Y-78894552D01*
X99451769Y-78938867D01*
X99451770Y-78938868D01*
X99510247Y-78950499D01*
X99510250Y-78950500D01*
X99510252Y-78950500D01*
X101249750Y-78950500D01*
X101249751Y-78950499D01*
X101264568Y-78947552D01*
X101308229Y-78938868D01*
X101308229Y-78938867D01*
X101308231Y-78938867D01*
X101374552Y-78894552D01*
X101418867Y-78828231D01*
X101418867Y-78828229D01*
X101418868Y-78828229D01*
X101430499Y-78769752D01*
X101430500Y-78769750D01*
X101430500Y-77030249D01*
X101430499Y-77030247D01*
X101418868Y-76971770D01*
X101418867Y-76971769D01*
X101374552Y-76905447D01*
X101308230Y-76861132D01*
X101308229Y-76861131D01*
X101249752Y-76849500D01*
X101249748Y-76849500D01*
X99510252Y-76849500D01*
X99510247Y-76849500D01*
X99451770Y-76861131D01*
X99451769Y-76861132D01*
X99385447Y-76905447D01*
X99341132Y-76971769D01*
X99341131Y-76971770D01*
X99329500Y-77030247D01*
X95050500Y-77030247D01*
X95050500Y-74574500D01*
X95070185Y-74507461D01*
X95122989Y-74461706D01*
X95174500Y-74450500D01*
X140425500Y-74450500D01*
X140492539Y-74470185D01*
G37*
%TD.AperFunction*%
%TD*%
M02*
